<?xml version="1.0" encoding="utf-8"?>
<!-- Generator: Adobe Illustrator 19.0.0, SVG Export Plug-In . SVG Version: 6.00 Build 0)  -->
<svg version="1.1" id="Capa_1" xmlns="http://www.w3.org/2000/svg" xmlns:xlink="http://www.w3.org/1999/xlink" x="0px" y="0px"
	 viewBox="236.6 -299.9 838.5 1148.9" style="enable-background:new 236.6 -299.9 838.5 1148.9;" xml:space="preserve">
<style type="text/css">
	.st0{fill:#7C7C7C;stroke:#FFFFFF;stroke-width:2;stroke-linecap:round;stroke-linejoin:round;}
	.st1{fill:none;stroke:#7C7C7C;stroke-width:2;stroke-linecap:round;stroke-linejoin:round;}
</style>
<path id="COL99" class="st0" d="M73.5,283.1l0.2,0.9l-0.6,0.5h-0.4l-0.8,0.7l-0.4,0.1l-0.3-0.3l0.5-0.8l0.5-0.3v-0.6l0.4-0.2
	L73.5,283.1L73.5,283.1z"/>
<path id="COL1283" class="st0" d="M890.9,635.2l0.2,3l-1.1,6.2v3.1l-1.2,4.6v1.3l-1,3.4l-6.6,36.7l-4,21.7l-3.9,21.7l-4,21.7
	l-2,10.8l-7.8,43.5l-4,21.7l-1.2,2.4l-1.8-3.8l-1.2-1.7l-1.4-1.6l-2-1.6l-6.8-3.5l-1.8-1.8l-0.7-2.2l-0.4-2.4l-0.8-2.4l-1.6-2.3
	l-2.2-2.3l-2.5-1.9l-2.6-0.9l-1.9,0.2l-1.5,0.9l-2.6,2.4l-1.7,0.8H819l-3.6-0.9l-0.7-0.5l-9.2-4.8l-2.9-0.3l18.1-28.3l10.5-16.5
	l5.3-8.2l10.6-16.5l1.5-2.4l-1.2-0.8l-0.5-0.8l-0.5-1l-0.8-3l-0.7-0.5l-1.4,0.9l-0.4,0.7l-0.3,0.7l-0.4,0.5l-0.5,0.2l-0.7-0.4
	l-0.1-0.6v-0.6l-0.2-0.7l-1.3-1.1l-1.1,0.4l-1.2,0.5l-1.2-0.5l-0.8-1.2l-0.9-2.8l-0.8-1.3l-1.5-0.7l-1.3,0.4l-1.4,0.8l-1.6,0.5
	l-0.8-0.7l-0.3-0.6v-0.6l0.3-0.3l1.1-0.5l0.4-0.2l0.3-1.4l-0.9-0.7l-1.4-0.1h-1.4l-0.8,0.2l-1.6,0.6l-0.7,0.1l-0.7-0.4l-0.4-0.6
	l-0.3-0.7l-0.4-0.7l-0.8-0.7l-1.2-0.6l-1.2-0.4l-1.2-0.1l-1-0.5l-0.8-1l-0.9-0.6l-1.2,0.8l-0.2,0.6v1.4l-0.5,0.3h-2.8l-0.4-0.4
	l-0.1-0.8v-0.9l-0.1-0.7l-0.4-0.8l-2.2-1.7l-0.2-0.1v-2l-0.2-0.5l-0.3-0.4l-1.8-0.2l-1.2-0.3L799,707l-2.3-1.5l-3.5-3.7l-2-1.3
	l-1.4,0.7l-1.7-0.4l-2.9-1.2h-1.9l-0.7,0.9l0.2,1.6l0.6,1.7l-0.6,0.3l-0.8,0.1l-0.9-0.2l-1.7-1h-0.8l-1.9,0.3l-1.5,0.7l-1.3,3.2
	l-1.9,1l-1.3,1l-0.7,0.1l-0.7-0.2l-0.8-0.6l-0.8-0.2l-1,0.4l-1.4,0.8l-1.2,0.3l-0.5-1l-4.9,2.4l-2.2,0.5l-0.8-1.5l0.3-0.5l0.9-0.8
	l0.2-0.6l-0.3-0.7l-1.5-2l-1.2-2.1l-0.7-0.2l-0.9,0.9l-0.7,2.6l-0.5,0.7l-1.1-0.5l-0.5-1v-2.8l-0.4-1.3l-0.7-0.6l-3.9-0.8l-1.4-0.7
	l-1.2-1l-1.4-0.8l-1.5-0.2l-2.3,1.1l-1.3,0.2L735,698l0.1-2.4l-0.5-0.4l-1.5,0.7l-3.9,2.5h-0.6l-0.4,0.7l-2.4,3.8l-3.2,2.4l-0.5,0.5
	l-0.3,1.5l-0.8,0.9l-1.2,0.3l-4.2-0.6h-2.2l-1.9,0.7l-1.8,1.6l-3,3.5l-1,0.3l-4.3-1h-0.7l-1.8,0.4l-0.3,0.3l0.1,1.3l-0.2,0.5
	l-0.6,0.2l-1.6,0.1l-2.7,0.8l-1.5,0.1l-1.2-0.3l-1.2-0.6l-0.9-0.8l-0.3-0.9l-0.6-0.5l-6.9-1.1l-1.3-0.4l-3-2.4l-1.2-0.7l-1.3-0.2
	l-0.8,1.1l-1.8,3.7l-0.8,0.8l-1.1,0.4l-0.4-0.2l-0.3-1.8l-0.2-0.6l-0.6-1.1l-0.8,0.4l-0.5,0.5l-0.4,0.6l-0.1,0.8l-1.8-1.2l-1.1-0.4
	l-1.7,0.8l-1.9,0.7l-0.8,0.8l-1,0.3l-2.8,0.6h-0.6l-0.6-0.5l-0.6-1.1l-1.1-3.1l-1-0.8l-0.2-0.4l-4.7-2.6l-0.1,0.7l-0.8,1.6l-0.9,0.8
	l-0.4-1.5l-0.6-0.6l-2.9-0.7l-1.1-0.7l-0.2-0.5l-0.3-2.1l-0.3-0.3l-0.9-0.7l-0.3-0.8l-0.7-1l-0.1-0.6l0.1-0.7l0.2-0.5l0.6-0.7
	l2.5-2.2l0.6-1.5l2-3.2l-0.9-0.9l-0.6-1.4l-0.3-1.5l-0.5-1.3l-1.2-1.7l-0.4-0.9l-0.3-1.1l0.1-0.9l0.7-1.7l0.2-0.6l-0.4-1.1l-1.6-1.9
	l-0.4-0.9l0.5-2.5l-0.4-0.8l-1.2-0.6l-0.7-0.5l-1.8-2H633l-0.2,1.8l-0.5,0.2l-2.2-0.6l-1,0.2l-1.1,1l-0.5,0.8l-0.7-0.1l-1.6-1.5
	l-0.9-0.5l-0.8-0.2l-0.7,0.1l-1-0.1h-1l-0.5-1.4l-4.3-2.6l-1.4-1.7l0.2-2.6l0.8-2.2l0.5-1.1l1.7-0.9v-1.3l-0.7-2.8l-0.1-1.6
	l-0.1-0.7l-0.5-0.7l-1.4-1l-0.8-1.2l-2.5-1.2l-0.6-1l1.1-1.3l0.3-0.7l-1.1-0.5l-0.7-1l-0.1-0.4l-0.1-1.5l-0.3-1l-0.3-0.1l-0.8,0.1
	h-0.3l-0.2-1.1l-0.5-1l-0.2-0.8l-0.4-0.6l-1.5-0.4l-1.3-1l-0.8-0.2l-1.5-0.3l-1.3-0.7l-0.9-1l-0.6-1.2l-1,0.4l-1.1,1.7l-1.1,0.6
	h-0.8l-1.1-0.2l-1.8-0.7l-0.9-0.6l-0.7-0.7l-1.2-1.9l-1-2.7l-0.4-0.6l-1.1-0.4l-2.1,0.5l-0.9-0.5l-0.1-0.6l0.6-1.1l-0.1-0.6
	l-0.5-0.5l-0.4,0.2l-0.4,0.7l-0.8,0.4l-0.3,0.3l-0.4,0.1l-0.8-0.3l-0.6-0.5l-0.3-0.6l-1.6-4.6l-0.7-0.8l-1.1,2l-1.8,0.1l-4.1-1.6
	l-4-0.7l-1.8-1l-1.5-2l-1-3l-0.6-0.9l-1.7-1.1l-0.4-0.7l0.4-0.7l0.9-0.2l1.1,0.2h0.9l0.4-0.8l-0.4-0.8l-0.7-0.7l-0.4-0.8l0.6-1.1
	l-0.6-0.2h-1.1l-0.7-0.2l-0.4-0.3l-2.3-2.6l-0.5-0.9l0.1-1.3l0.3-0.6l0.8-0.7l0.2-0.5l-3.2-7l-0.2-0.6l37.1-11.5l5.1,1h1.2l0.9-0.4
	l1.9-1h1l1.2,0.5l1.9,1.2l0.4,0.2l0.8,0.1l0.4,0.4l0.1,0.4l-0.3,1.3l0.1,0.5l0.5,0.4l0.5,0.1l1.6-0.1l0.7,0.1l0.6,0.5l0.8,2l0.5,0.9
	l0.9,0.5l5,0.8l3-0.2l3.1,0.1l1.5-0.2l1.1-0.7l0.6-0.5l0.6-0.2l1.2,0.4l2.2,1.7l2.5,2.5l2.6,2l2.7,0.2l2.3-0.5h1.8l1.6-0.5l1.5-1.6
	l4.1-2.9l7.6,5.1l4.6-0.9l2.5-1.6l1.9-0.4l2,0.8l7.1,5.8l1.7,1.1l1.7,0.8l1-0.1l0.7-0.9l0.9-1.5l3.2-3.6l2.1-1.9l1.7-0.7l2.1,1.3
	l2.1,2.1l2.3,1.5l3-0.5l1.8-1.5l0.8-0.8l0.3-1.7l-0.1-1.9v-2.4l0.4-2.1l1.2-1.8l1.5-1.5l1.2-1.6l2.1-3.5l1-1.1l3.6-1.9l2.6-2.5
	l1.6-0.8l2.1-0.3l9.2,0.1l2.6-0.5l2.1-0.9l1.4-1.4l1-2.1l0.8-2.9l2.5-2.9l4.3-2.9l12.4-5.5l3.5-1.9l4.5-4.5l1.5,1.5l1,0.5l1.1,0.4
	l1.1,0.1h1.1l2.8-1.3h1.4l1,1.4l0.6,2.8l0.6,1.1l1.5,0.6l1.3,0.4l2.6,1.3l1.2,0.4l0.8-0.1l1.4-0.7h0.9l0.8,0.5l0.9,1l2,2.9l0.5,1
	l0.3,1v1.2l-0.3,1.2l-0.4,0.8l0.1,0.8l2.5,3.2l1.6,4.5l1.6,3.5l0.4,0.6l0.6,0.2l2.4,0.1l1.1-0.2l0.8-0.6l0.3-1.1l0.7-1.1l1.3-0.1
	l1.5,0.5l1.2,0.6l1.9,1.6l0.7,0.3l0.8,0.1l1.5-0.3h0.8l0.9,0.5l1.4,1.7l0.9,0.4l3.4-0.3l1.1,0.3l1.1,0.7l1,1.2l0.8,1.3l0.5,1.2v1.1
	l-0.2,1l0.3,0.6l2.9-0.1l3.5,0.7l1.3-0.2l0.5-0.7l-0.2-1.8l0.7-0.9l1.4-0.7l1.2-0.4h1.3l1.5,0.4l1.5,0.9l0.3,0.8l-0.6,0.8l-4.2,3.9
	l-1.4,1.9l0.1,1.5l0.7,0.1l1-0.4l1.2-0.1l1,0.9l0.3,1.2v1.3l-0.4,2.6v1.2l0.2,1.1l0.7,2.1l-0.1,1l-0.9,0.7l-1,0.6l-0.7,0.9l0.6,2.4
	l2.1,2.2l1.4,2.1l-1.5,2.3l-2,1.3l-0.8,0.8l-0.2,1.1l0.4,1.3l0.9,1.4l1.2,1l1.2-0.3l1.7-1.5l0.9-0.4l0.4,0.9l-0.2,0.9l-0.8,1.8
	l-0.1,0.9l0.6,0.7l3.3,2.6l1.3,0.3l1.3-0.2l1.2-0.7l0.6-1.3l-0.8-1.8l-1.7-1.3l-1-1.6l1.7-2.1l1.1-0.6h0.8l1.3,0.7l0.6,0.2h0.6
	l0.9-0.5l0.6-0.8l0.7-0.5l2,1l1-0.2l1-0.6l1.1-0.4l1.5-0.1l0.4,0.6l-0.3,0.8l-0.5,0.9l-1.2,1l-0.4,0.5l-0.1,0.3v1.4l-0.9,2.1v0.9
	l1.1,0.9l1.3,0.1l1.1-0.6l1-0.9l1.1-0.6h1.6l3,1.2h1.4l0.8-0.6l0.5-1.8l0.6-0.7l1-0.4l1,0.2l1,0.6l2.7,2.4l0.9,1.1l0.3,1.1l-0.3,1.2
	l-0.5,1.1l-0.3,1.1l0.2,1.3l0.5,1.3l0.5,0.4l0.8-0.1l3.4-2l1,0.1l4.8,2.4l0.9,0.1l1,0.4l0.4,0.4l0.3,0.9L890.9,635.2L890.9,635.2z"
	/>
<path id="COL1314" class="st0" d="M527-0.8l15.8,12.9l1.2,2.1l1.3,1.8l0.7,0.8l0.7,1.9l0.7,6.8l0.6,2l0.8,1.3l0.9,0.5l0.8,0.5
	l0.3,0.9l-0.2,1.2l-1,1.9l-1.2,1.2l-1.5,0.9l-1.5,1.1l-0.8,1.7l-0.9,5.6v2.1l0.3,1.8l1.3,2.9l2.3,2.8l1.4,1.3l1.3,0.4l1.3-0.3
	l1.5-1.3l0.9-1.1l1.2-2.9l0.7-1.2l2.7-2.1l1.2,3.8l-0.4,1.6l-0.4,1.1l-0.6,0.9l-1.4,1.5l-0.5,0.9l-0.3,1.5l0.3,1.6v2.7l-0.7,2.3
	l0.1,1.7l0.5,2.1l1.1,2.7l0.6,2.1l0.7,1.9l0.2,1.5l0.3,1.5l0.7,1l1.6,0.7l1.3,0.2l2-0.2l1.2,0.3l21.7-20.7l-0.5,3.2l0.7,8.7l0.3,1.4
	l0.7,1l0.8,1l0.5,1l0.4,2.8l-0.9,1.8l-1.6,1.2l-5.5,2.7l-0.7,0.5l-0.4,1l-2.8,3l-2.1,4.1l-0.9,1.2l-12.4,9.2l-2.5,1.2l-2.7,0.4
	l-1.1,0.3l-0.4,1l-0.1,0.5l-0.8,2l-0.2,0.5l0.2,6.2l0.2,0.9l1.1,1.2l0.4,0.7l0.1,0.8l-0.3,0.8l-0.5,0.6l-0.7,0.2l-0.8-0.3l-3.1,4.7
	l-1.7,1.9l-2.3,1.6l-1.9,1.3l-1.3,1.5l-0.8,1.7l-0.6,2.9l-0.9,1.6l-0.2,0.9v1l0.4,0.7l0.9,1.1l0.5,1.1l0.1,1l-0.1,2.8l0.2,1.4
	l-0.2,0.6l-0.4,0.2l-1.1,0.5l-0.3,0.3l-0.1,1.2l1,2.8l-0.3,0.6l-0.8,0.3l-0.9,0.9l-0.8,1.1l-0.5,1l-0.6,4.2l-0.9,1.8l-0.6,0.4
	l-0.8-0.7l-0.4-0.2l-0.6,0.2l-0.9,0.1l-0.4,0.4l-0.1,0.5l-0.5,1.2l-0.3,1.4l-0.9,1.6l-2.2,0.7l-0.7-0.3l-2.8-1.9l-1.2-1.1l-1.3-0.4
	l-4.1,0.8l-4.3,1.3l-0.9,1.4l-0.7,0.8l-1.3,0.7l-1.3,0.5l-2.5,0.2l-0.2,1.8l0.1,2.5l-0.5,1l-2.3,2.6v0.5l-0.6,0.4l-1.7,0.1l-0.8,0.3
	l-1,0.5l-1.4,0.9l-1.1,0.9l-0.6,1.3l-0.8,1l-0.8,1.3l-0.7,0.2l-1.1-2.7l-1.8,0.7l0.3-2.5l-0.1-1.2l-1.6-4.6l-0.5-0.8l-0.9-0.4
	l-0.5-0.3l-0.7-0.8l-0.1-0.6l0.1-0.7l0.1-1.3l-0.2-0.7l-0.3-0.4l-1.5-0.5l-0.6-0.5l-0.7-0.3l-3,1.6h-1.1l-0.4-0.2l-2.6-1l-0.6-0.6
	l-0.3-1l-0.8-0.6l-0.8-0.2l-2.2-0.8h-0.8v0.2v2.1l0.4,0.9l1,0.3l-0.4,2.1v1l1.1,3.7l0.1,1.4l-0.1,1.3l-0.3,1.6l-1.7-0.5l-1.6,0.1
	l-1.4-0.2l-1.5,0.1l-0.6-0.2l-0.7-0.7l-1.8-1.3l-1,0.1l-4.4,3.1l-3.5,1.5l-1.5,0.2l-3.1-0.5l-2.3-0.9l-1.5-0.9l-1.3-1.2l-0.8-1.6
	l-2-1l-2.6-2.7l-0.4-0.5l-0.7-1.3l0.1-1.1l0.8-2.9l-0.2-1.7l-0.5-0.9l-1.9-3.2l-0.5-1.5l-0.3-1.8l0.2-1.6l1.8-4.7l-0.4-3l-1.7-0.9
	h-1.8l-1.7-0.7l-1.9-2.4l-1.6-4.2l-0.5-4.2l-0.7-1.1l-1.2-0.9l-2.4-0.3h-2.5l-2.6,0.3l-2.2,0.5l-3.2,0.3l-3.8,0.3l-3,0.7l-5.3,0.2
	l-1.7-0.2l-1.8-0.5l-0.9-0.7l-0.6-0.8l-0.2-1.4l-0.7-1.2l-1.9-2l-0.1-0.4l-0.3-1.5l-0.3-0.2l-1.1-0.3l-0.4-0.4l-0.3-1.1l0.2-1.3
	l0.4-1.2l0.6-0.6l-0.9-0.4l0.7-1.1l-0.1-0.8l-0.6-0.7l-0.5-1.1l0.9-0.3l0.5-0.7l-1.1-0.3l-0.2-0.6l0.4-0.9l0.7-0.8l-0.1-0.5l-1.6-2
	l-0.9,0.3l-0.6-0.6l-0.5-0.9l-0.7-0.6v-1.2l-0.3-1l-0.6-0.7l-1-0.4l-0.8,0.4l-0.4-0.8l0.2-1.4l0.6-1h0.4l0.4,0.3h0.4l0.2-1l-0.3-0.3
	l-1.5-0.2l-0.6-0.2l-0.4-0.7v-0.7l0.4-1.1l-0.3-0.4l-0.6,0.4l-0.5,0.7l0.1,0.4L386,102l-0.4-0.3l-0.2-0.5v-0.7l-0.2-0.5l-0.5-0.1
	l-1.2-0.1l1.2-1.4l0.2-0.4l-0.2-0.7l-1-0.7l-0.2-0.8v-2.5l-0.2-0.6l3-1l0.9-0.1l2.1-1.3l3.2,0.3l0.6-0.3l0.3-0.4l0.8-0.8l0.6-0.8
	l0.3-1l-0.3-2.5l-0.3-1.1l-0.4-0.8l-0.8-0.5l-0.2-0.2l-0.6-1.4l0.3-1l1-0.6l1.3-0.5l2-0.3l4.3-0.4h1.4l5.5,1.4l1.2,0.4l0.9,0.5
	l1.6,0.1l2.2-3.7l0.3-0.6l0.2-1.3l-0.2-7.6l-1.4-4.2l-0.9-1.3l-2.9-2.5l-0.8-0.6l-0.9-0.3l-2.3-0.3l-1.8-1.1l-1.3-1.1l-5.4-6.7
	l-7-7.6l-7-5l-8.6-7.9l-0.7-0.8l-0.5-1l0.5-0.4l0.4-0.1l-0.2-0.7l-0.3-0.1v-2.8l1.8,0.3l1.5-1l1.4-1.4l1-0.7l0.9-1l1.3-6.9l0.4-1
	l0.5-0.7l1.3-0.8l0.2-1.3l0.5-0.7l0.4-1.4l-0.5-5.6l-0.3-1.3l-0.5-1.1l-0.8-3.3v-0.2l0.6,0.1l0.4-0.9l0.5,0.1l0.4,0.6v1.2H384
	l-0.5-0.5v1.7l0.5,1.2l0.8,0.5l1-0.6v1.4l0.9-1l0.3,0.7l-0.6,1.1l-0.1,1.1l-1.4-0.5l0.4,2.4l1.7,1l1.5-0.2l0.1-1.3h4.2L392,4
	l-0.2,0.7v0.8h0.5l0.9-0.5v0.5l-2.3,0.9v0.4l1,0.3l0.5,0.6l-0.1,0.6l-0.7-0.6l-1.1,0.1l0.5,0.6l1.3,0.9l0.5,0.8l-1.7-0.8l-1.8-0.5
	L387.7,9l-1,1.1v0.3l0.5,0.1l-1.3,3.9l1.8,2.4l3.6,1.1l4.2,0.1l0.8-0.1l0.8-0.3l0.7-0.4l0.5-0.6l0.2-0.6l-0.2-1.5l0.1-0.5l0.6-0.7
	l0.2-0.6l0.4-4.2l-0.1-1.9L398.7,5l-0.3,0.9l0.3,0.9h-0.4l-0.4-1.1l-0.2-1.5V2.6l0.7-2.3l-0.2-1.4l-0.9-2.3l-0.4-2.2v-9.5l-0.3-1.2
	l-0.9-0.6l-0.9-0.4l-0.4-0.9l-0.3-1.2l-0.4-1.2l-1.4-1.4l-2.1-1.5l-2.4-1.1l-2-0.3v0.6l-0.8-0.8l1.1-1.7l1.7-2l0.8-1.4l6.7-2.1
	l1.6-0.1l6.6-1.9l0.8-0.5l0.4-0.5l0.1-1.6l0.3-0.6l0.6-0.4v-0.4h-0.5v-0.5l1.3-0.2l4.5-1.7l0.9-0.7l3-3l3.5-2.4l0.4-0.4l0.4,0.3
	l1.8,1.8l0.5,1.4l1.1,5.4l1.6,2.3l1.2,2.1l1,1l3.6,1.3l1.1,1l2.2,3.3l0.9,5.6l0.1,2.9l-0.2,2.9l-3.6,4.2l-3.2,4.6l-3.5,7l-2,3.1
	l-1.3,2.3l0.2,6.3l-0.2,1.8l-0.9,3.2l-2.4,3.9l-2.5,9.1v6.5l0.6,3l4.2,9.2l1.8,5.7l25.3,0.7l4.4,0.1l6.6,0.3l0.7-0.2l0.8-0.5
	l0.1-0.7l0.3-1l4.7-6.7l1.9-1.4l2.4-0.8l4-0.8l2.5-1l1.3-0.8l1.6-2.5l1.3-5.6l0.8-1.2l1.2-1.1l1.8-1.1l2.1-4.7l1.1-1.1l3.5-2.4
	l1.9-1.6l2.5-3.2l4.1-4.4l2.3-3.5l1-0.4l1.7-0.5l5-0.5l1.5,0.1l1.2,0.3l0.9,0.2l0.9-0.3l1-0.6l1-0.2l1.4-0.1l3.7,0.2l2-2.7l1.8-2.8
	l1.1-1.2l1.1-0.8L527-0.8L527-0.8z"/>
<path id="COL1315" class="st0" d="M718,78.9l2,0.5l-0.6,1.9l-0.7,1.4l-2.5,6.5l-1.4,2.5l-0.8,2.9l-1.3,1.7l-1.5,0.7l-0.5,1.2
	l-1.6,12.8l-0.7,2.4l-0.6,1l-0.8,1l-1.2,0.5l-0.9,0.1l-0.8,0.2l-0.6,0.5l-0.6,0.9l-0.7,0.7l-0.5,0.4l-0.6-0.1l-0.7-0.6l-0.6-0.1
	l-0.6,0.4l-0.6,0.6l-0.4,0.7v0.9l-0.5,1.6l-1.8,1.6l-2.2,1.2l-2.8,4.5l-1.3,4.3l-0.1,0.7l0.2,0.5l1,0.5l0.4,0.5l0.4,1.6l0.4,0.9
	l0.3,0.9l0.4,0.8l2,2.1l-0.2,1.3l-0.9,1.8l-0.6,3.4l-1.5,5l-0.3,0.5l-1.5,0.3l-1.1,0.4l-0.6,0.6l-0.4,0.5v1.4l6.4,3.4l2.7,2l0.5,1.6
	l1.4,1l1.5,2.2l1.6,1.3l-1,0.9l-0.5,0.2l-0.5,0.5l-0.3,0.7l-0.3,1.2l-0.5,1.7l-0.9,0.8l-0.6,1.3l-0.9,4.7l-0.5,0.4l-0.6-0.1
	l-0.8-0.6l-1.5-1.1l-0.5-0.5l-0.6-1.1l-0.4-0.6l-0.4-0.3h-0.7l-0.8,0.4l-1.6,1.8l-7.4,8l-1.5,2.5l-0.9,1.5l-2.8,1.6l-3.9,3.5
	l-1.3-0.1l-1.9-2.5l-1.3-1l-1.6-2.4l-0.5-0.6l-1.4-0.6l-1.5,1.3l-0.8,0.4l-1,0.9l-1.1,1.3l-3.8,5.2l-0.5,0.6l0.2,2.4l-0.5,0.6
	l-0.4,0.9l-0.3,1.5v1l0.3,0.9l0.7,1.2l1.6,1.3l0.5,0.9l-1,1.9l-0.4,1.5l-0.4,0.8l-1.1,1l-1.6,1.8l-2.5-1.1l-1,0.1l-0.3,0.6l-1.1,4.4
	l-0.2,3.1l-1.1,2.9l-0.2,1.3l1.3,4l-0.2,1.2h-1l-0.5,0.7v0.8l-1,1.7l-0.2,0.6l-0.5,0.5l-0.9,0.5l-2.8,0.2l-2.7-1.1l-1.5-0.1
	l-0.5-1.2l-0.2-1.9l-0.6-0.4l-0.7-0.2l-1.3-0.1l-1.2,0.4l-0.8-0.1l-0.5-0.5l-0.4-0.8l-1.3-2.3l-2.6-1l-0.1-0.4l0.2-1.1l-0.4-0.7
	l-1-1.1l-1-1.6l-0.6-0.5l-2-0.6l-5.5-0.1l-1.5-2.1v-0.9l2.1-3.9l-0.3-2.2l2.7-2l0.1-0.9l-1-1.9l-0.2-1.4l0.3-1l-0.2-0.8l-1.7-2.8
	l-0.5-1.9l0.3-1.7l-1.1-1.8l-0.3-0.5l-1.1-0.9l-1.8-1.4l-0.3-0.8l-0.3-0.9v-0.7l0.4-1l0.4-0.8l-0.5-0.7V189l-0.7-0.5l-2.8-2.5
	l-0.7-1.4l-0.1-0.7l-0.4-0.1l-0.6,0.2h-0.8l-1-0.4l-1.5-1.5l-1.5,0.4l-3.5-1.7v-3.5l-0.4-0.3l-1,0.1l-0.6,0.3l-1.5,1.3l-3.7,3.8v1.3
	l-0.5,1.4l-1.9,0.6l-4.4,4L580,188l-1.1-0.1l-1-0.6l-0.7-0.6l-0.7-1v-1.4l-3.3,0.2l-0.7-0.3l-1.3-0.6l-2.1-1.2l-1.5-0.1l-0.9,0.1
	l-0.4-0.5l-0.1-0.5l0.2-1.7l-0.5-1.4l-2.9-2.8l-1-1.9l-0.1-0.7l0.2-0.8l0.8-1.5l0.6-0.7l0.2-0.9l-0.1-0.6l-0.5-0.7l-0.3-1v-1.2
	l-0.1-1.4l-0.5-0.7l-0.2-0.6l0.1-1.1l-0.2-0.4l-0.7-0.5l-0.4-1.1l-0.5-0.4l-0.5-0.1l-1,0.7l-2,1.7l-1,0.7l-0.6,0.5l-1.7,0.4
	l-3.1-0.6l-1-0.3l-1-0.4l-1.2-0.2l-0.4,0.1l-0.8,0.6l-1.6,0.7l-3.6,0.7l-1.1,0.4l-0.8-0.8l-0.3-0.5l0.9-1.8l0.6-4.2l0.5-1l0.8-1.1
	l0.9-0.9l0.8-0.3l0.3-0.6l-1-2.8l0.1-1.2l0.3-0.3l1.1-0.5l0.4-0.2l0.2-0.6l-0.2-1.4l0.1-2.8l-0.1-1l-0.5-1.1l-0.9-1.1l-0.4-0.7v-1
	l0.2-0.9l0.9-1.6l0.6-2.9l0.8-1.7l1.3-1.5l1.9-1.3l0.4,2.1l0.6,2.1l0.7,1.3l1,3.1l2.6,4l1.4,1.5l0.9,0.8l1.5,0.9l1.2,0.5l0.6,0.2
	l1-0.3l1.7-1.3l0.9-0.5l0.9-0.1l0.8,0.5l0.6,0.9l0.8,2l0.7,1.3l0.5,1.3v1.2l-1.6,3.1l-0.4,1.4l-0.1,1l0.9,2.4l1.1,0.2l0.5-0.1
	l0.8-0.5l1-0.8l0.9-1.5l1.3-0.9l1.4,1.3l2.9,0.8l0.9,1l0.6,2.1h1.2l0.7,0.2l0.7,0.5l1.2,2.2l1.6,2l2.3,1.3l0.8-0.1l0.8-0.3l0.5-0.1
	l1.4-0.5l1.1-0.1l0.7,0.1l0.7,0.3l0.5,0.4l-0.1,1.7l3-1.9l4.4-1.1l2.1-0.3l1.5,0.1l1.4,0.5l1.2,0.7l1.3,1.1l0.5,0.6l0.7-0.4l0.4-1.4
	v-1.5l0.6-3.4l0.7-2v-1.6v-1.3l-0.3-1.2l0.3-1.1l1.3-2.1l0.3-2.4l0.8-1.3l2.9-2.3l0.2-0.8l2.2-3.6l1,1l3.1,1.5l2.7,2.5l0.8,1.3
	l0.3,0.8v1.2l-0.3,1.4l-1,2.8l-1,1.6l-1.5,0.7l-0.3,1.4l-2,1.3l0.3,2.3l2.6,3.4l0.9,0.6l0.8-0.1l0.9-2.4l1.4-1.3l0.7-1.7l0.3-1.5
	l0.2-0.3l0.4-0.1l2.3,0.7l1.7-0.1l3.3-5.2l1.2-3.4l1.2-0.6h0.4l0.8,0.2l1.6,1.1l2.2,1.1l6.2,1h1.2l0.7-0.7l0.9-3.3l5.1-6l0.7-1.2
	l0.9-1.1l1.8-0.7l2.1-0.5l1.2-0.9l1.2-3.3l1.2-0.7l0.8-0.3l1-0.8l0.5-0.8l0.2-0.7l-0.1-1.3l0.2-1.2l-0.8-2.1l1.3-3.8l-0.3-2.9
	l0.5-2.6l-0.3-0.9l-0.5-1.1l-0.6-0.7l-0.7-0.4l-2-2.1l-0.5-1.2l0.6-1.1l1.4-0.4h0.6l1.3,1.2l2.3,1.8l1.1,1.5l0.7,1.4l1.4,3.5
	l1.2,0.3l1.8-0.5l2.4-2.5l1.3-0.6l0.7-0.5l0.6-0.8v-4l0.5-1.1l2.5-4.6l1.1-5.1l0.3-2.6l-0.7-2.3v-1.1l0.1-0.9l0.5-1.4l-1.8-4.8
	l1.7,0.3l3.8,2.1l1.5,0.3l1.2-0.2l1.2-0.7l1.8-1.7l0.8-1l0.7-1l0.7-1.9l1.2-2.4l1.5,0.4l0.5,1.3l0.4,0.3l0.7-0.2l0.6-0.4l0.6-0.6
	l0.5-0.6l0.2-1l0.3-0.6l0.4-0.4l1.4-0.5l5.5,0.1l1.9,0.5l1.3,0.5l1.3,0.7L718,78.9L718,78.9z"/>
<path id="COL1316" class="st0" d="M469-84.4l-0.1,4.2l1.8,0.7l0.6,0.4l2,0.5l3.6,1.7l0.9,1.3l1.2,1.3l2.5,0.6l0.3,0.6l0.3,0.1
	l1.4,0.1l1.1,0.7l0.5,2.9l1.9,2.9l11.7,5.4l2.9,2.1l-0.6,1.3l0.2,0.5l1.2,1.8l0.2,0.4l-0.5,0.8l-0.3,3.3l-0.7,0.5l-3.4,0.9l-1,0.1
	L496-49l-1,0.7l-1.3,1.4l-1.3,1l-0.5,0.6l-0.2,2.7l1.3,4.2l-0.4,1.8v1l0.2,1.4l1.3,4.4v2.9l0.4,3.4l0.4,1.2l0.5,0.9l0.7,0.7l2.8,1.3
	l2.2,1.5l2.5,2.6l7.1-3.5l2.9-0.9l3.7-1.3l1.5-0.1h0.9l1.4,1.2l2.5,1.9l1.9,3.1l1.5,1.5l0.9,0.6l0.8,0.9l0.4,1.1L529-7l0.3,1.1
	l0.1,0.4L529.3-5l-1,1.1l-0.8,1.1v0.9L527-0.8l-1.2,0.3l-1.1,0.8l-1.1,1.2l-1.8,2.8l-2,2.7l-3.7-0.2l-1.4,0.1l-1,0.2l-1,0.6L511.8,8
	l-0.9-0.2l-1.2-0.3l-1.5-0.1l-5,0.5l-1.7,0.5l-1,0.4l-2.3,3.5l-4.1,4.4l-2.5,3.2l-1.9,1.6l-3.5,2.4l-1.1,1.1l-2.1,4.7l-1.8,1.1
	l-1.2,1.1l-0.8,1.2l-1.3,5.6l-1.6,2.5L475,42l-2.5,1l-4,0.8l-2.4,0.8l-1.9,1.4l-4.7,6.7l-0.3,1l-0.1,0.7l-0.8,0.5l-0.7,0.2l-6.6-0.3
	l-4.4-0.1L421.3,54l-1.8-5.7l-4.2-9.2l-0.6-3v-6.5l2.5-9.1l2.4-3.9l0.9-3.2l0.2-1.8l-0.2-6.3l1.3-2.3l2-3.1l3.5-7l3.2-4.6l3.6-4.2
	l0.2-2.9l-0.1-2.9l-0.9-5.6l-2.2-3.3l-1.1-1l-3.6-1.3l-1-1l-1.2-2.1l-1.6-2.3l-1.1-5.4l-0.5-1.4l-1.8-1.8l-0.4-0.3l1.1-1v-0.4
	l-0.5-0.8l0.6-0.5l4.1-1.1l1.6-0.9l1.2-0.1l0.6-0.5l0.3-0.6l0.7-0.9l2.4-1.8l0.6-0.7l-0.6-2.4l0.7-2l1.3-1.5l2.2-2l0.7-0.8l0.4-1
	l0.7-5.7l0.5-1h0.4l1.9-0.8l1.1-0.4l0.3-0.8v-1.2l0.1-1.2l0.3-0.6l0.7-0.8l0.7-0.5l0.6-0.3l2.7-0.8l2.1-0.7l1.9-1.1l1.6-1.3l0.2-1.7
	l0.5-1l1.5,0.2l0.7,0.7l2.2-0.1l2.4-0.5l1.6-0.6l1,0.5l0.4,0.5v0.9l-1-0.4l-1-0.2l-0.9,0.3l-0.8,0.7l0.9,0.5l0.4-0.1l0.6-0.4
	l0.8,0.8v0.6l2.1-1.4l1.3-0.7l1.5-0.2l1.5,0.2L469-84.4L469-84.4z"/>
<path id="COL1317" class="st0" d="M608.3,30l1,1.2l1.2,1l1.6,0.8l1.6,1.4l1.7,1.9l0.2,0.4v0.6l0.8,1.3l0.5,0.5l1,0.6l1,0.4l1.3,0.3
	l3.7,0.5l1.2,0.7l0.3,0.7l0.7,0.2l1.3,0.2l2.2-0.1l3.2,0.3l0.2-0.5l0.7-3.1l1-1.6l0.6-0.5l0.5-0.1l0.8,0.1l1,0.4l1.3-0.1l2.1,0.3
	h1.5l0.7,0.1l0.7,0.3l1.6,0.1l1,0.3l0.7-0.5l1.3-0.4l2.4,0.5l-0.2,0.7l-0.1,0.7l0.5,2.2l0.3,0.9l0.6,1l4.8,3.8l0.2,1l-0.2,0.9
	l0.4,1.3l2,3.1l0.7,0.8l0.1,0.6l0.9,0.4l-0.1,3.8l-2.5,3l1.2,1.7l0.7,1l0.4,0.3l0.7,0.3l0.2,0.9l-0.1,1l0.4,1.2l-0.5,0.9l-0.8,1.2
	l-2.5,3.9l0.4,1l0.3,0.2l1.8,0.8L662,77l1.7,0.4l0.5,0.3l0.7,0.8l0.8,0.5l1.8,1.5l1.6-0.8l0.4-0.1h0.8l0.9-0.1l0.5,0.2l0.3,0.7
	l0.3,1l0.2,0.2l0.5-0.5l0.5-0.9l0.3-0.1l1.5,0.3l1.9-0.4l0.7-0.3l0.9-0.1l1.1,0.2l0.3,0.6l0.3,0.7l0.2,1.6l0.1,1.1l-0.3,2l0.3,1.8
	l1.3-0.1l0.4-0.3l0.6-0.7l0.5-0.9l1.8,4.8l-0.5,1.4l-0.1,0.9v1.1l0.7,2.3l-0.3,2.6l-1.1,5.1l-2.5,4.6l-0.5,1.1v4l-0.6,0.8l-0.7,0.5
	l-1.3,0.6l-2.4,2.5l-1.8,0.5l-1.2-0.3l-1.4-3.5l-0.7-1.4l-1.1-1.5l-2.3-1.8l-1.3-1.2h-0.6l-1.4,0.4l-0.6,1.1l0.5,1.2l2,2.1l0.7,0.4
	l0.6,0.7l0.5,1.1l0.3,0.9l-0.5,2.6l0.3,2.9l-1.3,3.8l0.8,2.1l-0.2,1.2l0.1,1.3l-0.2,0.7l-0.5,0.8l-1,0.8l-0.8,0.3l-1.2,0.7l-1.2,3.3
	l-1.2,0.9l-2.1,0.5l-1.8,0.7l-0.9,1.1l-0.7,1.2l-5.1,6l-0.9,3.3l-0.7,0.7H648l-6.2-1l-2.2-1.1l-1.6-1.1l-0.8-0.2h-0.4l-1.2,0.6
	l-1.2,3.4l-3.3,5.2l-1.7,0.1l-2.3-0.7l-0.4,0.1l-0.2,0.3l-0.3,1.5l-0.7,1.7l-1.4,1.3l-0.9,2.4l-0.8,0.1l-0.9-0.6l-2.6-3.4l-0.3-2.3
	l2-1.3l0.3-1.4l1.5-0.7l1-1.6l1-2.8l0.3-1.4v-1.2l-0.3-0.8l-0.8-1.3l-2.7-2.5l-3.1-1.5l-1-1l-2.2,3.6l-0.2,0.8l-2.9,2.3l-0.8,1.3
	l-0.3,2.4l-1.3,2.1l-0.3,1.1l0.3,1.2v1.3v1.6l-0.7,2l-0.6,3.4v1.5l-0.4,1.4l-0.7,0.4l-0.5-0.6l-1.3-1.1l-1.2-0.7l-1.4-0.5l-1.5-0.1
	l-2.1,0.3l-4.4,1.1l-3,1.9l0.1-1.7l-0.5-0.4l-0.7-0.3l-0.7-0.1l-1.1,0.1l-1.4,0.5l-0.5,0.1l-0.8,0.3l-0.8,0.1l-2.3-1.3l-1.6-2
	l-1.2-2.2l-0.7-0.5l-0.7-0.2h-1.2l-0.6-2.1l-0.9-1l-2.9-0.8l-1.4-1.3l-1.3,0.9l-0.9,1.5l-1,0.8l-0.8,0.5l-0.5,0.1l-1.1-0.2l-0.9-2.4
	l0.1-1l0.4-1.4l1.6-3.1v-1.2l-0.5-1.3l-0.7-1.3l-0.8-2l-0.6-0.9l-0.8-0.5l-0.9,0.1l-0.9,0.5l-1.7,1.3l-1,0.3l-0.6-0.2l-1.2-0.5
	l-1.5-0.9l-0.9-0.8l-1.4-1.5l-2.6-4l-1-3.1l-0.7-1.3l-0.6-2.1l-0.4-2.1l2.3-1.6l1.7-1.9l3.1-4.7l0.8,0.3l0.7-0.2l0.5-0.6l0.3-0.8
	l-0.1-0.8l-0.4-0.7l-1.1-1.2l-0.2-0.9l-0.2-6.2l0.2-0.5l0.8-2l0.1-0.5l0.4-1l1.1-0.3l2.7-0.4l2.5-1.2l12.4-9.2l0.9-1.2l2.1-4.1
	l2.8-3l0.4-1l0.7-0.5l5.5-2.7l1.6-1.2l0.9-1.8l-0.4-2.8l-0.5-1l-0.8-1l-0.7-1l-0.3-1.4l-0.7-8.7l0.5-3.2l0.4-2.8l0.8-2.8l0.8-1.9
	l0.1-0.6l-0.2-0.8l-0.6-0.9l-0.1-0.7v-2.6l0.3-1.1l3.8-4.7l0.2-0.6l0.9-0.5l0.3-1v-2.3l0.4-1.2l0.1-0.7l-0.3-0.6l-0.6-0.9l0.2-0.6
	l0.4-0.5l0.2-0.8l0.6-3.9l-0.1-1.4l-0.8-4.1l-0.3-0.6l-0.7-0.6l-0.9-4.1l0.2-0.8l-1.2-3.8l-0.1-1.3l0.1-1.3l0.5-2.1l0.7-1.8
	l-0.1-0.2l1.4-0.6l0.3-0.1l0.5-0.8l0.5-0.7l0.6-0.6l0.7-0.2l0.7-0.8l0.4,3.4l0.1,0.9l0.5,1.4l2.8,4.9l0.1,1.2l0.6,0.7l0.8,0.2
	l0.4,0.2l0.5,0.6l0.8,0.5l0.4,0.6l0.4,1.2V18l-0.5,1.2l-1.9,1.6l-1.1,0.8l-1.2,1.2l-0.3,0.7l-0.1,0.6l0.2,1l0.2,1.3l-0.7,1.2l-0.1,2
	L608.3,30L608.3,30z"/>
<path id="COL1318" class="st0" d="M656-153.5l-1.6,0.3l-2.6,1.1l-1.1,0.3l-1.2,0.2l-1.2-0.1l-1-0.2l-1.2-0.5l-1-0.2l-1.3,0.2
	l-1.2,0.5l-1,0.3l-0.6-0.3l-0.4-1.2l-0.4-1l-0.8-0.9l-1.3-0.4l0.4-0.8l0.4-0.7l0.8-0.4l1.3-2.5l0.9-0.5l0.8-2.4l0.9-1.1l0.6-1.6
	l0.3-0.8l0.8-1.1l-0.7-1.1l-2.6-2.2l-2.7-1.6l-2-0.5l-1.8-1.1l-2-0.6l-0.5-1l0.1-0.7l0.3-0.9l0.1-0.8l-0.3-1.8l-0.3-1.2l-0.8-1.1
	l-0.9-0.6l-1.2,0.1l-2.4-0.5l-1.8-0.1l-1.5-0.3l-4.4-0.2l-10.3,1.4l-1.4-5l-0.4-2.8l-0.3-0.9l-0.8-1.3l-0.1-0.5v-0.7l0.4-1.7l0.4-1
	l0.2-3.6l0.1-0.8v-0.8l-0.2-1l0.4-0.7l1-0.3l0.3-0.3l0.9-1.2l0.8-0.5l0.3-0.6l1.3-3.9l-0.2-1.9h11l7.4-1.2l0.6-0.4l0.5-0.6l2-1.5
	l1.7-1l0.9-0.9l0.8-1.6l0.3-0.2l0.8-0.3l0.6-0.5l0.9-1.4l0.8-0.6l2.2-1l3.8-3.7l8.2-4.3l11.7-9.7l1.2-0.7l2.5-0.9l4.1-0.8l1-0.5
	l2.1-1.5l1.3,0.4l1.5-0.7l1.4-1.1l1.6-0.5l4-0.1l1.2-0.4l1.1-0.6l1.7-1.4l2.2-0.6l2.9-2.1l3.6-1.4l0.8-1.1l1.2-1.3l0.3-0.7l0.1-0.6
	l0.9-2.4l2.4-3.8l0.7-2.3l1.5-2l0.4-0.9l0.1-1.3l-0.2-3.9l-0.3-1.4l-0.4-0.5l-0.6-0.6l-0.6-0.3h-0.3l0.2-0.9l0.6-0.6l1.5-0.9
	l2.1,0.8l6.9-1.3l2.4,0.6l-0.3,1.3l-2.8,2.9l1,0.5l1.1,1.8l1.1,0.5l2-0.9l0.4-0.2l0.2-0.9l0.4-0.8l0.6-0.6l0.6-0.4h0.9l0.9,0.1
	l0.7-0.1l0.3-0.7l-0.3-0.7l-0.4-0.6l-0.3-0.6l0.5-0.7l-0.7-0.5l-0.7-1l-0.9-0.3l-0.9-0.1l-0.8,0.1l-0.7,0.4l-0.4,0.5h-0.4l-0.5-0.9
	l3.1-2.2l2.5-2.1l0.4-1.2l0.3-0.2l1.2,0.1l0.3-0.1l1-0.8l0.6-0.1l0.8,0.4l-1.2,0.6l-0.9,0.8l-0.2,1l0.9,1l0.8,0.3l1-0.3v-0.9
	l0.2-0.1h1.2l1.3-0.7l0.8-0.6l0.4-0.8l0.3-1.2l-0.8-0.4l0.3-0.6l0.4-0.4l0.6-0.3l1.3-0.2l-0.4,1.2l0.4,0.6l0.6,0.5l0.3,1h0.4
	l0.5-0.7l0.1-0.5l-0.8-0.4l0.4-0.3l1.6-0.9l0.9-0.3l0.9-0.4l0.7-0.8l-0.9,0.1l-1.7,0.9l-0.7-0.3l0.1-0.5l0.6-0.6l0.7-0.5h-0.8
	l-0.7,0.2l-0.5,0.3l-0.4,0.4l0.3-1.5l-0.6,0.2l-1.8,1.6l-0.6,0.7l-0.4-0.5l0.7-1.2l1-1.1l1.2-0.7l1.4-0.3l1.4,0.2l2,1l1.5,0.3h4.8
	l1.4,0.2l1.4,0.7l2.1,1.4l0.9,0.9l0.4,0.3l0.9,0.2h2.4l0.6,0.2l1.4,1.1l1.3,0.5l3.1,0.6l2.3,1.1l1.3,1l1.3,2.1l0.2,1.3l4.1,7
	l0.5,1.8l2.5,3.8l0.4,1.4l-0.4,1.5l-0.8,1.5l-0.8,1l-1.8,1.4l-4.7,2.6l-1.3,1.5l-1,0.5l-1.1,0.4l-0.9,0.2l-0.3,0.6l-1.4,3.7
	l-0.3,0.5h-2l-1.2,0.7l-2.3,1.9l-2.7,1.2l-9.6,2.5l-25.4,6.7l-1.3,0.8l-1.2,1.7l-12.7,23.8l-4,7.6l-0.7,0.8l-1.2,0.4l-2.5-0.7
	l-1.3-0.1l-1.3,0.2l-3.8,1.4l-2.9,0.2l-1.4,0.2l-1.2,0.8l-0.3,0.6l-0.1,1.3l-0.2,0.7l-0.5,0.7l-1.2,1.4l-0.6,0.7l-2.3,5.8l-1.2,1.7
	l-1.3,1.2l-2.9,2l-1.8,2.1l-1.5,3l-3.3,9.3l-1.8,3l-4.1,4.8l-1.3,3.6l-0.9,1.3l-1.1,1.1l-1.1,1.4l-0.4,1.4L656-153.5L656-153.5z"/>
<path id="COL1342" class="st0" d="M302.5-146.1l-5.8,0.8l-4.7-8.3l6.3-13.1l-0.4-3.5l1-4.2l0.3-6.9l-1.9-3.1l-1.8-4.5l4.5-7.5
	l-1.8-7.4l4.8-8.2l2.2-10.6l4.4-6.1l4.3-4.2l5.7,0.2l1.9,5.1l7.4,1.8l1.7,2.5l-3.1,2l-3.7,2.3l-2.5,3.1l-3.3,4l1.5,12.7l-2.1,2.2
	l-0.4,10.2l-3.4,4.2l-1.6,13.3L302.5-146.1z M373.7-186.2l-13.5-1l-3.3-13.3l3.4-9.6l8.3-3.9l1.4-5.5l-5.7-0.2l-2.7-3.5l-1.9-3
	l5.2-2.1h5.1l3.2,3.5l-0.6,4.3l8.1,1.2l2.5,4.9v4.7l2,4.3l-2,14C383.3-191.3,373.7-186.2,373.7-186.2z"/>
<path id="COL1397" class="st0" d="M538.6,162.9l0.3,0.5l0.8,0.8v2.3l0.5,0.9l0.5,0.2l-0.8,1.6l-0.5,0.7l-0.1,0.6l0.6,0.2l0.4,0.9
	l-0.4,1.8l-1.2,2.9l1.1,0.3l0.3,0.5l-0.5,0.4l-1.1,0.2l-0.9,0.3l-0.2,0.6l0.5,0.7l0.8,0.3l-0.4,1l-0.1,1.2l0.2,1.3l0.3,1l-0.9,0.2
	l-0.3,0.4l0.4,1.5l-0.3,0.4l-0.9,0.8l-0.5,1.8l-1.3,2.2l-0.3,1.4l-0.2,0.3l-1.7,1.6l0.1,0.7l-0.7,0.2l-2.6-1.1l-2.4-0.7l-0.6,0.1
	l-1.4,0.2l-1.3,0.6l-2.5-0.5h-1.4l-2.5,0.8l-1.4,0.2h-0.9l-1.2,0.5l-0.6,0.5l-1.6,0.7l-0.4,1.2l-2.8,4.2l-0.6,1.5l-0.4,0.2l-0.6,0.2
	l-1-0.2l-1.5-0.7l-1.9,0.9l-0.6,0.7l-1,0.6l-1.2,0.4h-1l-0.8-0.3l-0.8,0.1l-1,0.5l-1.4,1.3l-1.6,1.8l-0.6,1.7l1.2,0.6l0.9,1.6
	l-2.1,4.1l-0.3,1l-0.1,0.9l1.1,2l0.6,1l-0.1,1.1l-0.5,1L492,226l-1.5,2.6l-1.7-1.7l-2-1.6l-1.2-1.2l-0.9-1.1l-1.3-2l-0.6-0.5
	l-0.7-0.2l-1.4-0.1l-1.8-0.5h-0.8l-1.5,0.1l-1.7-0.2l-0.3-0.5l-0.1-0.7l-0.7-1.1l-0.8-0.4l-0.2,0.3l-1.4,1.2l-0.8,0.4l-0.9,0.1
	l-0.7-0.1l-0.8-0.5l-0.3-0.7l-2.3-5.6l-0.4,0.1l-1.9,3l-0.2,0.5l-0.1,2.3l-0.2,0.7l-0.4,0.6l-1,1l-0.5,0.3l-1.5-0.3l-1.2-0.6
	l-0.2-0.5l-1.6-1.2l-0.7-1l-0.4-1l-0.2-0.9l-0.1-1.1l-0.5-1l-0.9-0.8l1.5-3.8l0.9-1.4l0.3-0.2l0.5-0.1l1.2,0.1l0.4,0.1l1.2,0.8
	l0.5-2.6l1.5-2.9l0.3-1.1l-0.1-1.3l-0.1-0.4l-0.8-0.6l-0.2-1.3l0.3-0.7l1.3-1.1l0.8,0.1l1.2,0.5l1.1-0.3l0.9,1l0.9,0.4l2.2,0.4
	l1.6-0.6l1.3-1.9l0.3-0.7l-0.7-0.8l-0.4-0.6l-0.2-0.8v-0.5l-0.4-0.5l-1.9-2.1l-0.8-0.6l-0.6-0.3l-0.7,0.1l-1,0.7h-0.8l-2.6,1.2
	l-0.5,0.1l-2.5,0.3l-1.1-0.9l-0.1-0.9v-0.8V182l3.5-1.5l4.4-3.1l1-0.1l1.8,1.3l0.7,0.7l0.6,0.2l1.5-0.1l1.4,0.2l1.6-0.1l1.7,0.5
	l0.3-1.6l0.1-1.3l-0.1-1.4l-1.1-3.7v-1l0.4-2.1l-1-0.3l-0.4-0.9v-2.1v-0.2h0.8l2.2,0.8l0.8,0.2l0.8,0.6l0.3,1l0.6,0.6l2.6,1l0.4,0.2
	h1.1l3-1.6l0.7,0.3l0.6,0.5l1.5,0.5l0.3,0.4l0.2,0.7l-0.1,1.3l-0.1,0.7l0.1,0.6l0.7,0.8l0.5,0.3l0.9,0.4l0.5,0.8l1.6,4.6l0.1,1.2
	l-0.3,2.5l1.8-0.7l1.1,2.7l0.7-0.2l0.8-1.3l0.8-1l0.6-1.3l1.1-0.9l1.4-0.9l1-0.5l0.8-0.3l1.7-0.1l0.6-0.4v-0.5l2.3-2.6l0.5-1
	l-0.1-2.5l0.2-1.8l2.5-0.2l1.3-0.5l1.3-0.7l0.7-0.8l0.9-1.4l4.3-1.3l4.1-0.8l1.3,0.4l1.2,1.1l2.8,1.9l0.7,0.3l2.2-0.7l0.9-1.6
	l0.3-1.4l0.5-1.2l0.1-0.5l0.4-0.4l0.9-0.1l0.6-0.2l0.4,0.2l0.8,0.7L538.6,162.9L538.6,162.9z"/>
<path id="COL1398" class="st0" d="M646.8,233l-0.7,1.2l-2.3,16l-2.2,14.6l-0.2,1.6l-0.3,0.6l-0.5,0.3l-1-0.5l-1.8-1.2l-0.8-0.4
	l-0.3-0.3l-0.4-0.8l-0.8-0.6l-1.5-0.6l-8.2-2.1l-4.3,0.5l-1.7,1.3l-1.1,0.5l-1.1,0.2l-0.9-0.2l-0.8-0.4l-1-0.4l-0.8-0.4l-0.6-0.5
	l-0.3-0.5l-0.1-0.8l-1.4-3.2l-0.4-1.9v-0.9l-0.3-0.6l-0.9-1.3l-0.8-0.9l-0.8-1.4l-0.6-0.3l-0.6-0.1h-1l-0.7-0.6l-0.7-0.9l-0.7-0.4
	l-0.7-0.2l-0.9,0.2l-0.6,0.6l-1,1.6l-0.4,0.8l-1.5,0.9l-1.6,0.7l-0.5,0.4l-0.7,0.9l-0.5,0.7l-0.1,1.4l0.9,0.9l0.8,3.6l-0.2,1.3
	l0.2,1.4l1.1,1l0.5,1.1v1l0.1,0.8l0.7,2.2l-1.9,0.1l-0.8-0.2h-1.5l-0.7,0.5l-0.6,0.6l-4.5,2l-1.2,0.2l-1.5,0.8l-0.7,1.3l-0.6,0.8
	l-1.1,0.3l-1,0.1l-1,0.2l-1.1,0.6l-1.1,1.2l-2.4,1.6l-3.3,3.2l-2.1-0.1l1.3-3.4l0.2-2.1l0.2-0.6l1.2-0.8l0.5-0.6l0.6-1l0.1-0.6
	l-0.6-1.4l-0.8-1.3l-1.6-1.9l-1-2.6l0.1-1l0.2-0.9l2.8-4.4l0.3-2.1l-0.3-0.5l-0.6-1.6v-1.8l0.2-0.9l0.5-0.6l1.2-1l0.8-1.4l0.8-1.1
	l2-3.3l0.4-0.4l1-0.5l1.3-4.4l-1.3,0.1l-1-0.8l-0.2-0.5l0.1-0.5l0.3-0.4l0.6-0.5l0.2-0.7l-0.2-0.7l-0.1-5.4l0.1-1.3l0.4-1.7
	l-1.9-0.8l-1.2-0.1h-0.7l-0.9-0.4l-0.3,0.1l0.2,0.6v0.8l-0.6,1l-0.9,0.4l-0.4,0.5l-1.4,3.3l-0.2,0.3l-1.1,0.3l-0.4,1.1l-1.2,0.8
	l0.1,0.5l-0.1,0.6h0.7l0.2,0.5l-0.3,0.5l-0.4,0.4l-1.8,0.8l-1.8,1.4l0.9,1.5l0.3,0.4l0.8,0.6l0.4,0.7l0.8,2.8l-0.1,2.7l-2.5,6.8
	l1.4-0.1l0.3,0.5l-0.1,1.1l-0.7,2.5l-0.6,3.5v1.1l-0.2,1.1l-0.4,1l-0.7,1.4l-1.3,1.6v2.9l-0.8,3l-0.3,0.5l-0.4,0.2l-1.7-0.5
	l-0.7-0.3l-1.3-1.1l-0.6,0.5l-0.4,0.5l-2,5.3l0.1,1.4v0.7l0.1,1l0.4,1.3l0.1,1.5l-0.2,1.1l-0.4,1.4l-1.7,3.9l-1.7,3.1l-4.9,6.8
	l-2.4-1.8l-2.3-2.8l0.9-4.9l1.8-3.3l0.6-1.7l0.3-1.2l-0.1-0.9l-1.3-2.3l0.8-2.6l-0.5-1.1l0.2-0.9l0.2-0.8l0.5-0.8l1.2-1.3l0.9-1
	l0.1-1.6l-0.4-1.6l-0.1-0.8l-0.4-1l-0.5-0.7l-1.5-3.2l-1.2-0.9l-0.9-0.9l-0.7-0.4l-1.1,0.2l-1.8,0.7l-0.5,0.3l-0.4,0.4l-0.4,1
	l-1.1,1.5l-0.7,0.3l-0.8-0.3l-0.7,0.2l-0.7-0.2l-0.8-0.3l-2.2-2l-1.1,0.4l-0.4-1l-1.9-1l-0.1-0.8l-1.6,0.3l-1.5,0.1l-1.9,0.5
	l-1.5,0.1l-0.7-0.7l0.3-2l4.8-10.6l0.7-2.6v-2.7l-0.9-2.9l1-0.3l-0.2-0.4l-0.8-0.7l0.5-0.8l1.1-1.4l0.3-0.8l-0.2-0.5l-0.9-0.3
	l-0.3-0.4l-0.1-0.4l0.1-0.9l-1-1.4l-0.1-0.8l0.4-0.8l0.8-0.5l0.8-0.2l0.7-0.4l0.5-1.5l0.9-0.9l0.3-0.9l-0.6-3.3v-1l0.2-0.8l0.4-0.7
	l0.8-0.2l-0.3-0.6l0.3-1v-0.7l-0.8-2.3v-0.5l0.4-0.4l1.5-0.7l0.3-0.3l-0.1-0.5l-1-1.5l-0.3-0.8l0.1-1.4l0.9-4.1l-0.5-10.9l-0.4-1.5
	l-0.1-0.7l1.7-1.6l0.2-0.3l0.3-1.4l1.3-2.2l0.5-1.8l0.9-0.8l0.3-0.4l-0.4-1.5l0.3-0.4l0.9-0.2l-0.3-1l-0.2-1.3l0.1-1.2l0.4-1
	l-0.8-0.3l-0.5-0.7l0.2-0.6l0.9-0.3l1.1-0.2l0.5-0.4l-0.3-0.5l-1.1-0.3l1.2-2.9l0.4-1.8l-0.4-0.9l-0.6-0.2l0.1-0.6l0.5-0.7l0.8-1.6
	l-0.5-0.2l-0.5-0.9v-2.3l1.1-0.4l3.6-0.7l1.6-0.7l0.8-0.6l0.4-0.1l1.2,0.2l1,0.4l1,0.3l3.1,0.6l1.7-0.4l0.6-0.5l1-0.7l2-1.7l1-0.7
	l0.5,0.1l0.5,0.4l0.4,1.1l0.7,0.5l0.2,0.4l-0.1,1.1l0.2,0.6l0.5,0.7l0.1,1.4v1.2l0.3,1l0.5,0.7l0.1,0.6l-0.2,0.9l-0.6,0.7l-0.8,1.5
	l-0.2,0.8l0.1,0.7l1,1.9l2.9,2.8l0.5,1.4l-0.2,1.7l0.1,0.5l0.4,0.5l0.9-0.1l1.5,0.1l2.1,1.2l1.3,0.6l0.7,0.3l3.3-0.2v1.4l0.7,1
	l0.7,0.6l1,0.6l1.1,0.1l3.1,1.8l4.4-4l1.9-0.6l0.5-1.4v-1.3l3.7-3.8l1.5-1.3l0.6-0.3l1-0.1l0.4,0.3v3.5l3.5,1.7l1.5-0.4l1.5,1.5
	l1,0.4h0.8l0.6-0.2l0.4,0.1l0.1,0.7l0.7,1.4l2.8,2.5l0.7,0.5v0.6l0.5,0.7l-0.4,0.8l-0.4,1v0.7l0.3,0.9l0.3,0.8l1.8,1.4l1.1,0.9
	l0.3,0.5l1.1,1.8l-0.3,1.7l0.5,1.9l1.7,2.8l0.2,0.8l-0.3,1l0.2,1.4l1,1.9l-0.1,0.9l-2.7,2l0.3,2.2l-2.1,3.9v0.9l1.5,2.1l5.5,0.1
	l2,0.6l0.6,0.5l1,1.6l1,1.1l0.4,0.7l-0.2,1.1l0.1,0.4l2.6,1l1.3,2.3l0.4,0.8l0.5,0.5l0.8,0.1l1.2-0.4l1.3,0.1l0.7,0.2l0.6,0.4
	l0.2,1.9l0.5,1.2l1.5,0.1l2.7,1.1l2.8-0.2l0.9-0.5l0.5-0.5l0.2-0.6l1-1.7v-0.8l0.5-0.7L646.8,233L646.8,233z"/>
<path id="COL1399" class="st0" d="M572.7,282.1l-3.6-0.9l-1,0.7l-1.3,2.7l-0.9,1.5l-1.7,2l-1.3,1.3l-0.6,0.8l0.1,1.4l-0.6,1.5
	l-1.3,2.2l-4.4,5.4l-0.9,2l-0.4,0.5l-0.4,0.9l-0.6,0.3l-1.9-0.1l-2-1.8l4.9-6.8l1.7-3.1l1.7-3.9l0.4-1.4l0.2-1.1l-0.1-1.5l-0.4-1.3
	l-0.1-1v-0.7l-0.1-1.4l2-5.3l0.4-0.5l0.6-0.5l1.3,1.1l0.7,0.3l1.7,0.5l0.4-0.2l0.3-0.5l0.8-3v-2.9l1.3-1.6l0.7-1.4l0.4-1l0.2-1.1
	v-1.1l0.6-3.5l0.7-2.5l0.1-1.1l-0.3-0.5l-1.4,0.1l2.5-6.8l0.1-2.7l-0.8-2.8l-0.4-0.7l-0.8-0.6l-0.3-0.4l-0.9-1.5l1.8-1.4l1.8-0.8
	l0.4-0.4l0.3-0.5l-0.2-0.5h-0.7l0.1-0.6l-0.1-0.5l1.2-0.8l0.4-1.1l1.1-0.3l0.2-0.3l1.4-3.3l0.4-0.5l0.9-0.4l0.6-1v-0.8l-0.2-0.6
	l0.3-0.1l0.9,0.4h0.7l1.2,0.1l1.9,0.8l-0.4,1.7l-0.1,1.3l0.1,5.4l0.2,0.7l-0.2,0.7l-0.6,0.5l-0.3,0.4l-0.1,0.5l0.2,0.5l1,0.8
	l1.3-0.1l-1.3,4.4l-1,0.5l-0.4,0.4l-2,3.3l-0.8,1.1l-0.8,1.4l-1.2,1l-0.5,0.6l-0.2,0.9v1.8l0.6,1.6l0.3,0.5l-0.3,2.1l-2.8,4.4
	l-0.2,0.9l-0.1,1l1,2.6l1.6,1.9l0.8,1.3l0.6,1.4l-0.1,0.6l-0.6,1l-0.5,0.6l-1.2,0.8l-0.2,0.6l-0.2,2.1L572.7,282.1L572.7,282.1z"/>
<path id="COL1400" class="st0" d="M489.7,234.2v0.5l-1.8,3.3l-0.4,1.6l-0.8,1.2l-3.2,1.7l-1.5,1.6l-0.5,0.7l-1.2,3.2l-2,2.5
	l-1.5,3.2l-0.5,4.6l-0.8,4.3l-0.8,1.2l-1.6,2.4l-1.5,1.1l-0.4,1.2l-1.4,1.9l-0.5,1l-1.1,1.9l-3.5,4l-1.3-0.6l-1.2-0.8l-2.1-0.7
	l-0.3-0.4l-0.2-0.5l-0.1-1l0.1-1.2l0.4-0.8l0.2-1.1l-0.1-1.2l0.2-0.6l0.6-1.5l0.8-1.3l1.1-2.5l0.1-0.4l-0.1-0.9v-2.7l0.2-0.2
	l-1.5-3.2l-3-1.2h-1.2l-1.2-0.5l0.4-1.4l0.4-0.5l0.7-0.5l-0.5-1.2l-0.1-5.1l0.5-1.7V243l0.6-0.9l-0.1-0.9l2.5-3.5l4.6,0.7l0.7-0.3h2
	l0.5-0.6l-0.1-1.1l-0.3-1.9l0.8-0.5h0.5l1.8,1l0.6,0.1h6l2.5,0.3l2.4,1.8l0.8,0.1l0.9-0.5l1.1-0.1l0.9-0.4l0.4-0.3l0.9-0.3l0.7-0.6
	L489.7,234.2L489.7,234.2z"/>
<path id="COL1401" class="st0" d="M458.3,182v6.1v0.8l0.1,0.9l1.1,0.9l2.5-0.3l0.5-0.1l2.6-1.2h0.8l1-0.7l0.7-0.1l0.6,0.3l0.8,0.6
	l1.9,2.1l0.4,0.5v0.5l0.2,0.8l0.4,0.6l0.7,0.8l-0.3,0.7l-1.3,1.9l-1.6,0.6l-2.2-0.4l-0.9-0.4l-0.9-1l-1.1,0.3l-1.2-0.5l-0.8-0.1
	l-1.3,1.1l-0.3,0.7l0.2,1.3l0.8,0.6l0.1,0.4l0.1,1.3l-0.3,1.1l-1.5,2.9l-0.5,2.6l-1.2-0.8l-0.4-0.1l-1.2-0.1l-0.5,0.1l-0.3,0.2
	l-0.9,1.4l-1.5,3.8l0.9,0.8l0.5,1l0.1,1.1l0.2,0.9l0.4,1l0.7,1l1.6,1.2l0.2,0.5l1.2,0.6l1.5,0.3l0.5-0.3l1-1l0.4-0.6l0.2-0.7
	l0.1-2.3l0.2-0.5l1.9-3l0.4-0.1l2.3,5.6l0.3,0.7l0.8,0.5l0.7,0.1l0.9-0.1l0.8-0.4l1.4-1.2l0.2-0.3l0.8,0.4l0.7,1.1l0.1,0.7l0.3,0.5
	l1.7,0.2l1.5-0.1h0.8l1.8,0.5l1.4,0.1l0.7,0.2l0.6,0.5l1.3,2l0.9,1.1l1.2,1.2l2,1.6l1.7,1.7l-0.8,5.6l-1.5,0.9l-0.7,0.6l-0.9,0.3
	l-0.4,0.3l-0.9,0.4l-1.1,0.1l-0.9,0.5l-0.8-0.1l-2.4-1.8l-2.5-0.3h-6L471,235l-1.8-1h-0.5l-0.8,0.5l-4.6-0.7l-2.6-0.8l-0.7-0.1
	l-1.5,0.3l0.6-1.4v-0.6l-0.2-0.8l-0.6-0.3l-0.9,0.2l-1,0.9h-0.6l-1-0.1l-0.7-0.5l-0.4-0.6l0.1-1l-1.1-1.9l0.7-0.5l0.4-0.9l0.2-1.5
	l-0.3-0.5l-0.9,0.5h-1.7l-0.6-0.2l-0.5-0.3l-0.4-0.7v-1.9l-2.4-2.1l-0.8-1.3l-0.4-0.8l-1.9-3.7l-0.5-0.5l0.1-3.3l-1-1.7l0.1-2
	l-0.7-2.4l-5.5-9.1l-0.2-2.9l1.2-3.8l1.3-1.1l3.5-2.1l0.8-3.7l0.1-1.8l2.5-2.7l2,1l0.8,1.6l1.3,1.2l1.5,0.9l2.3,0.9l3.1,0.5
	L458.3,182L458.3,182z"/>
<path id="COL1402" class="st0" d="M532.8,195.4l0.4,1.5l0.5,10.9l-0.9,4.1l-0.1,1.4l0.3,0.8l1,1.5l0.1,0.5l-0.3,0.3l-1.5,0.7
	l-0.4,0.4v0.5l0.8,2.3v0.7l-0.3,1l0.3,0.6l-0.8,0.2l-0.4,0.7l-0.2,0.8v1l0.6,3.3l-0.3,0.9l-0.9,0.9l-0.5,1.5l-0.7,0.4l-0.8,0.2
	l-0.8,0.5l-0.4,0.8l0.1,0.8l1,1.4l-0.1,0.9l0.1,0.4l0.3,0.4l0.9,0.3l0.2,0.5l-0.3,0.8l-1.1,1.4l-0.5,0.8l0.8,0.7l0.2,0.4l-1,0.3
	l0.9,2.9v2.7l-0.7,2.6l-4.8,10.6l-0.3,2l0.7,0.7l1.5-0.1l1.9-0.5l1.5-0.1l1.6-0.3l0.1,0.8l1.9,1l0.4,1l1.1-0.4l2.2,2l0.8,0.3
	l0.7,0.2l0.7-0.2l0.8,0.3l0.7-0.3l1.1-1.5l0.4-1l0.4-0.4l0.5-0.3l1.8-0.7l1.1-0.2l0.7,0.4l0.9,0.9l1.2,0.9l1.5,3.2l0.5,0.7l0.4,1
	l0.1,0.8l0.4,1.6l-0.1,1.6l-0.9,1l-1.2,1.3l-0.5,0.8l-0.2,0.8l-0.2,0.9l0.5,1.1l-0.8,2.6l1.3,2.3l0.1,0.9l-0.3,1.2l-0.6,1.7
	l-1.8,3.3l-0.9,4.9l-0.3,1l-4.2,3.8l-2.7,1.8l-0.8,0.9l-0.6,0.8l-0.7,1.5l-0.5,0.6l-0.9,0.3l-0.3,0.3l-0.4,0.7l-0.3,0.6l0.1,0.8
	l0.2,0.5v0.7l-0.3,0.5l-0.8,0.9l-0.6,0.4l-0.6,0.5l-0.4,0.8l-0.3,1.5l0.1,1l0.3,0.9l0.1,0.7l-0.4,0.8l-1.4,1.2l-1.3,1.7l-2.6,3.7
	l-3.6,3.6l-3.8,0.7l-3.2-0.2l-3.1-0.8l-0.5-0.5l-0.3-0.6l0.4-1.6l0.2-0.8l0.1-1.2l0.1-0.4l0.6-0.8l0.2-0.6v-0.7l0.5-1.5l0.3-0.7
	h-6.6l-1.1,0.3l-0.4,0.5l-0.8,0.4l-0.6,0.7l-0.1,1.1l-1.3-0.5l-0.4-0.8l-0.6-0.1l-0.8,0.2l-0.9,0.9l-0.5,0.7l-0.8,0.7l-1-0.8
	l-0.9-0.5l-1.4-0.9l-0.6-0.4l-0.7-0.1l-2,0.3l-0.7,0.5l-0.9,1.2l-0.5,0.3l-1.3,0.4L488,325l-0.7,0.6l-0.8,0.2h-0.6l-1.3-0.3
	l-0.8,0.1l-1,0.9l-1.3,2.1l-2,2.6l-1.9,3l-1.5,3.1l-0.2,2.6l-1.7,1.7l-0.5,2.2l-1.2,1.5l-6.6,5.4l-2.5,2.7l-1.5,3l-0.6,0.8l-1,0.2
	l-1.8-0.1l-5.4-1.9l-1.3-0.7l-1.4-1.3l-1-0.1h-0.8l-2,1.4l0.1-4.5l-1-2.7l-1.4-1.2l-0.9-1.3l-1-0.4l-1.3-1.1l0.1-1.5l0.2-0.6
	l0.7-0.6l0.4-1.9l-0.2-1.2l0.2-1.5l1.1-0.6l0.7-1l0.1-3.7l0.2-0.8l0.4-0.5l0.5-0.4l0.3-0.4l-0.2-0.7l-0.5-0.6l-0.8-1.7l0.9-1.8
	l0.1-1.7l0.1-2.2l0.4-1.3l0.7-1.7l0.3-1l0.4-1l0.8-1l0.4-1l0.5-0.8l0.1-0.9l-0.1-1.3l0.6-3.7l0.6-1.3l0.5-0.8l0.7-2.4l0.3-0.2
	l1.2-1.5l0.2-0.4l0.8-1.7l4.5-6.8l1.5-3.7l1-2l0.7-1l0.9-2.6l0.5-0.8l0.8-0.5l2.1-1V279l-1.1-1.7l3.5-4l1.1-1.9l0.5-1l1.4-1.9
	l0.4-1.2l1.5-1.1l1.6-2.4l0.8-1.2l0.8-4.3l0.5-4.6l1.5-3.2l2-2.5l1.2-3.2l0.5-0.7l1.5-1.6l3.2-1.7l0.8-1.2l0.4-1.6l1.8-3.3v-0.5
	l0.8-5.6l1.5-2.6l1.2-1.7l0.5-1l0.1-1.1l-0.6-1l-1.1-2l0.1-0.9l0.3-1l2.1-4.1l-0.9-1.6l-1.2-0.6l0.6-1.7l1.6-1.8l1.4-1.3l1-0.5
	l0.8-0.1l0.8,0.3h1l1.2-0.4l1-0.6l0.6-0.7l1.9-0.9l1.5,0.7l1,0.2l0.6-0.2l0.4-0.2l0.6-1.5l2.8-4.2l0.4-1.2l1.6-0.7l0.6-0.5l1.2-0.5
	h0.9l1.4-0.2l2.5-0.8h1.4l2.5,0.5l1.3-0.6l1.4-0.2l0.6-0.1l2.4,0.7l2.6,1.1L532.8,195.4L532.8,195.4z"/>
<path id="COL1403" class="st0" d="M605,442.5l0.5,1.8l0.1,0.9l6.8,10l1.1,1.1l3.4,2.6l1,1.1l1,1.9l1,1.2l0.6,1.1l0.8,2.2l0.1,0.9
	l0.1,1.5l0.2,1.6l3.4,3.9l6.8,6l1.8,2.3l2.5,0.8l0.8,0.5l0.4,0.8l0.4,1l0.7,1l1.3,0.9l1.4,0.9l3.6,1.1h1.3l1-0.1l1-0.4l1.5-1l1-1.6
	l1.5-1.2l1.4-1.5l1-0.9l2.1-0.9l0.9-0.6l0.4-0.8l0.3-0.9v-0.8l-0.3-1.3l0.2-0.7l0.5-1.2l0.2-1.1l0.2-0.7l0.9-1.1l0.5-0.2l1.2-0.3
	l0.3-0.3l0.2-0.6l0.5-0.2l0.8,0.3l1.1,0.7l0.9,1.2l1,0.8l1.5-2.3v-0.6l2.4-0.5l2.2,0.9l1,0.6l1.9,1.7l5.5,3.6l1.7,0.5l2.2,0.3
	l0.9,0.4l3.1,2.9l0.7,1.1l0.3,1.2l0.1,2.1l0.2,1.1l0.4,0.9l0.7,0.5l1.1,0.1l0.9,0.3l0.5,1.3l0.2,2.1l0.3,0.4l0.7,0.3l0.7-0.2
	l0.5-0.5h0.5l0.5,1.4l-0.1,1l-0.3,1.2l-0.1,1.1l0.7,0.7l1.9,0.6l0.6,0.6l1.2,2.7l0.5,0.6l4.6,0.3l1.2,0.3l3.1,1.1l0.5,0.4l0.4,0.6
	l0.4,1.4l0.6,0.4l2.8,0.3l1.1,0.6l0.8,1.5l0.4,2.7l0.5,1.1l1,0.8l0.5-0.2l0.3-0.6l0.5-0.2l1.1,0.7l0.8,1l0.4,1l-0.1,1.1l-0.6,0.9
	v1.6l2.2,1.7l2.6,1.6l1.5,1.3l-0.1,1l-0.3,1.2l-0.2,1.1l0.3,0.9h1l2.1-1.4l1,0.2l0.7,1.2l0.5,1.2l0.8,0.9l1.5,0.5l0.8,0.6l1.4,2.4
	l0.8,0.9l6.8,3.2l3.4,2.2h0.8l0.7-0.4l1.1-0.4l0.6,0.1l1.2,0.4l0.6,0.1l0.7-0.1l2.1-0.6l0.8,0.2l1.5,1l2.3,0.8l2.1,1.9l-4.5,4.5
	l-3.5,1.9l-12.4,5.5l-4.3,2.9l-2.5,2.9l-0.8,2.9l-1,2.1l-1.4,1.4l-2.1,0.9l-2.6,0.5l-9.2-0.1l-2.1,0.3l-1.6,0.8l-2.6,2.5l-3.6,1.9
	l-1,1.1l-2.1,3.5l-1.2,1.6l-1.5,1.5l-1.2,1.8l-0.4,2.1v2.4l0.1,1.9l-0.3,1.7l-0.8,0.8l-1.8,1.5l-3,0.5l-2.3-1.5l-2.1-2.1l-2.1-1.3
	l-1.7,0.7l-2.1,1.9l-3.2,3.6l-0.9,1.5l-0.7,0.9l-1,0.1l-1.7-0.8l-1.7-1.1l-7.1-5.8l-2-0.8l-1.9,0.4l-2.5,1.6l-4.6,0.9l-7.6-5.1
	l-4.1,2.9l-1.5,1.6l-1.6,0.5h-1.8l-2.3,0.5l-2.7-0.2l-2.6-2l-2.5-2.5l-2.2-1.7l-1.2-0.4l-0.6,0.2l-0.6,0.5l-1.1,0.7l-1.5,0.2
	l-3.1-0.1l-3,0.2l-5-0.8l-0.9-0.5l-0.5-0.9l-0.8-2l-0.6-0.5l-0.7-0.1l-1.6,0.1l-0.5-0.1l-0.5-0.4l-0.1-0.5l0.3-1.3l-0.1-0.4
	l-0.4-0.4l-0.8-0.1l-0.4-0.2l-1.9-1.2l-1.2-0.5h-1l-1.9,1l-0.9,0.4h-1.2l-5.1-1l-5.3-1.5l-3.2-1.4l-1.4-1l-2.2-2.6l-3.7-2.7
	l-1.2-0.6l-1.2,0.3l-1.1,0.5h-1.2l-0.4-0.5l-0.3-1.3l-0.3-0.5l-0.6-0.3l-1.5,0.1l-0.7,0.1l-0.5,0.2l-0.5,0.1l-0.8-0.4l-0.5-0.6
	l-0.3-0.6l-0.6-2l-0.2-1l-0.4-0.7l-0.7-0.5l-2.4-1.2l-1.4-0.3l-2.3,0.9h-1.1l-0.6-0.8l-0.1-1l-0.2-1l-1.2-0.5l-1,0.4l-0.7,2l-1,0.5
	l-1.1-0.3l-0.6-0.4l-0.6-0.2l-1.2,0.3l-1.1,0.1l-1.3-0.2l-1.4-0.4l-0.9-0.5l-0.4-0.6l-0.4-1.5l-0.4-0.5l-0.5-0.3h-1l-1.1-0.2
	l-0.6,0.1l-0.4-0.3l-0.3-0.9l-0.3-1.7l-0.8-1.4l0.1-0.5l0.4-0.5l0.9-1.7l0.4-0.5l-0.3-0.4l-1.3-0.4l-0.9-0.6l0.2-0.8l0.6-0.8
	l0.4-0.8l-0.4-2.8l-1.6-2l-2.4-1.3l-7.6-1.4l-4.3-2.4l-2.9-0.9l-0.5-0.7l-0.3-2.3l-1-3.1l-0.1-0.9l0.4-4.6l-0.7-1.8l-2.6-0.5
	l-1.3,0.4h-0.6L511,520l-0.2-0.4l-0.2-1.1l-0.2-0.4l-0.9-0.4h-0.7l-1.7,0.7l-2.3,0.5l-1.4-0.5l-1.1-1.4l-0.9-2.3l-0.2-1.2l0.4-2.2
	v-1.2l-0.4-1.1l-1.6-1.9l-0.6-1l-0.1-0.7l0.2-1.3l-0.3-0.7l-0.6-0.6l-0.7-0.5l-1.6-0.7l-1.3-0.3l-3.8,0.5l-5.7-0.4l-2.7-1l-4.1-4.3
	l-2.7-1.3l-3.1-0.4l-4.6,0.4h-1.2l-1.2-0.4l-1.2-0.8l-1.3-0.7l-2.7-0.3l-1.2-0.6l-3.7-4.4l-0.8-1.5l-0.1-1.1v-0.9l-0.3-0.9l-1-0.7
	l-1.1-0.3l-2.6,0.2h-1.2l-1.8-0.8l-1-0.2l-0.9,0.2l-6.6-6l-0.7-0.2l-2.6,0.5l-3.1-0.6l-1.2-0.7l-0.8-0.9l-0.8-1.6l-0.1-0.8l0.8-8.8
	l0.2-0.8l1.3-1.7l0.5-1.1l0.4-2.3l1.5-3.3l4.2-6.6l1.3-0.9l4.3,0.7l3.4,0.1l1.7,0.3l1.7-0.3l1.4-0.6l1.2-1.2l1.1-1.4l1.2-1.2
	l3.5-2.5l1-1l0.9-1.6l1.3-1.5l4.4-4.8l3.3-4.5l4.5-6.7l5.1-4.6l5.1-8.1l2.1-3.5l1.5-2.8l1.4-1.2l3.1-2.2l0.7-0.4l2.5-2.8l1-1.4
	l0.9-2l2.2-7.6l1-1.5l0.8-0.8l0.7-0.2l0.8,0.1l2,1.1l0.8,0.3l2.2-0.7l5.7-4.4l2.3-2.6l0.5-1.2l-0.5-2l-1.5-1.6l-1.6-1l-0.6-1.7
	l0.4-1.3l0.8-2.1l1.3-2.4l3-3.8l3.6-3.3l0.6-0.3l1.1-0.4l6.7,2.2l3.2,0.4l1.3,0.4l1.2,0.7l0.9,0.8l0.6,1l1.9,5l1,1.5l1.3,1.2l1.3,1
	l0.8,1.3l0.1,2.4l-3.8,14.9l-0.4,3.4l-0.1,2.1l0.3,2.4l0.6,1.9l1.1,1.7l4.1,4.6l1,1.5l0.7,1.4v1.4l-0.4,1.2l-1,1.4l-1.5,1.6
	l-1.3,1.7l-0.7,2.1v2.3l0.6,3.1l1.5,3.2l2.3,2.9l2.7,1.9l39.8,14l1.9,0.3h2.5l6.4-0.5L605,442.5L605,442.5z"/>
<path id="COL1404" class="st0" d="M327.2,378.3l-2.2,0.1l-2-0.5l-1.2-0.6l0.5-0.4l-0.5-0.5l1.4-1.4v-0.8l-0.9-0.5l-1.2-0.1l-1-0.7
	l-0.5-1.4l0.3-1.2l0.9,0.1l1,0.6l2.5,3.3l1,0.8l2.3,1.3l1.1,0.9L327.2,378.3L327.2,378.3z M322.9,369.2l0.8,0.3l0.2-0.5l0.7-0.5
	l1.8,1.9l0.3,0.5l0.3,1.3l0.3,0.5l2.6,2l0.9,1l-0.3,1l-1.2,0.1l-1.7-0.9l-3-2.3l-1.9-2.4l-0.4-0.8l-0.2-0.8l-0.1-0.8l0.2-0.3
	L322.9,369.2L322.9,369.2z M301.3,354.4l-1,0.3l-0.8-0.3v-0.7l1-0.1l0.4-1l0.3-1.3l0.5-0.7l1-0.8h0.5l-0.1,1l-0.1,1.8l-1,1.2
	L301.3,354.4L301.3,354.4z M446.6,354.7l0.5,1.2l8.8,7.7l1.8,2.1l0.9,0.8l1.1,0.4l1.2,0.9l0.8,1l0.8,1.8l0.9,1.6l-1.4,4.7l-1.3,2.7
	l-0.1,2l1.9,3.7l-1.7,0.9L460,387l-0.8,1.4l-2.3,0.1l-1.3-0.6l-2.2-2l-2.4-1.7l-0.9,0.3l-1.6,1.9l-1.6,1.4l-1.6,1.1l-4.8,2.4
	l-2.2,0.9l-5.3,1.4l-1.7-0.1l-1.3-0.2l-3.7-2.9l-1-1l-2.1-0.4l-0.9,3.6l2.4,5.3v1.1l-0.5,0.7l-0.3,0.7L423,403l-1,1.7l-0.7,0.4
	l-0.9,1.1l0.1,1.2l0.2,1l-0.2,0.4l-0.5,0.3l-0.9,0.3l-1,0.3l-1.3-0.3h-1.2l-1-0.1l-0.8-0.5l-1.2-0.2l-0.9,0.5l-1.1,1.4l0.1,3.1
	l0.2,2l-0.2,0.7l-1.8,1.7l-0.5,1.2l-0.1,0.8l0.2,2.9l1.4,2.5l4.9,3.8l3.5,4.5l2.9,4.7l1.8,1.8l2.4,1.4l5,1.5l1.1,0.6l2.4,0.9
	l2.6,0.1l2.4,1.1l-1.3,0.9l-4.2,6.6l-1.5,3.3l-0.4,2.3L431,460l-1.3,1.7l-0.2,0.8l-0.8,8.8l0.1,0.8l0.8,1.6l0.8,0.9l1.2,0.7l3.1,0.6
	l2.6-0.5l0.7,0.2l6.6,6l-0.8,0.7l-0.3,0.8l-0.6,0.7l-1.2,0.2l-2.1-0.1l-0.9,0.2l-1,0.5l-0.8,0.5l-0.6,0.6l-0.7,0.4l-1,0.3l-9.5-0.3
	l-2-0.4l-2.7-1.3l-4.8-1.5l-1.3-1l-1.7-2.4l-0.6-2.9l0.2-5.9l0.4-1.2l1.1-2.3l0.3-1.1v-0.9l-0.3-0.9l-0.8-2l-1.2-1l-0.1-0.7l-1.3-2
	l-1.1-1.5l-2.3-0.9l-1.1-0.7l-1.1-0.4l-1.1,0.3l-3.5,5.3l-1.5,1.7l-1.8,1l-1.8,0.4l-5.4-0.3h-2.2l-0.1-2.6l-0.7-3.3l-0.3-5.7
	l0.3-1.2l3.2-2l0.7-0.8l0.8-0.9l0.3-0.7l0.3-1.4l0.1-0.7l-0.1-0.5l-0.6-0.9l-0.7-0.5l-1.9-2.9l-2.1-3.3l-1.1-0.5l-2.2,0.6l-2.7,0.4
	l-2.1,0.6l-0.4,0.2l-1.4,1.2l-0.7,0.6l-0.5,0.3l-0.7,0.1h-0.7l-1.2-0.4l-1.1-0.9h-0.5l-1,0.4h-1.1l-3.4,1.2l-0.7-0.3l-0.6-0.4
	l-0.9,0.2l-4-1.2l1.7-4l0.2-1l0.1-1l-0.3-1.1v-0.9l0.2-0.6l0.9-2.6l2.4-2.1l0.6-1.1l0.2-1l0.4-0.3l1.1-0.3l0.2-0.4l0.8-1.9l-1-1.7
	l-1.2-0.7l-0.8-0.3l-0.9-0.5l-4-3l-0.6-0.6l-0.3-0.6l0.7-2.1l1-1.6l0.2-2l-0.8-1.1l-5.9-2.8l-1.3-0.4l-0.7-0.1h-1h-0.8l-1.2,0.2
	l-0.7,0.3l-0.8,0.8l-1.2,0.4l-1.9,0.2l-1.8,0.4l-0.5,0.2l-1.1,0.9l-2,0.8l-2.1-0.1l-3.1,1.2H333l-1.5-0.2l-2.4-0.8l-2.1-0.5l-2-0.9
	l-0.6-0.6l-0.3-0.6l-0.2-2.2l-0.2-0.6l-4.8-7l-1.2-2.8l-0.1-0.6l0.2-1.2l0.8-2.3l0.2-0.9l0.1-0.7l-0.1-0.7l-0.9-2.4l-0.3-1.5
	l-0.1-1.3l-2.1-2.2l-6.1-4l0.7-0.5h1.6h1.3h1.1l2.3-1.5l1.3,0.1l1,0.9l0.7,1.3l0.5,0.7l0.7,0.2l1.3-0.4l-0.6,1.1l-0.6,1.4l0.1,1.2
	l1.3,0.5l0.8,0.1l1.4,0.3l0.9,0.1l1.7-0.4l0.8-0.1l1.6-0.3l1.2-1l0.6-1.2V375l-0.4-0.8l-0.8-1.2l-1-0.9l-1-0.3v-0.4h1.4v-0.6
	l-0.9-0.1l-0.4-0.5v-0.6l0.3-0.6l-0.7-0.2l-0.2-0.4l0.1-0.6l0.4-0.6l-0.9-0.3v-1.1l1.2,0.5l0.9-0.4l0.8-0.7l1-0.4l1-0.2l0.4-0.3
	l-0.3-0.3l-0.5-0.1l-1.1,0.5h-0.6l-1-0.7l0.2-0.4l0.8-0.5l0.4-0.5l1.5,0.4l1.3,0.1l0.9-0.2l0.7,1l0.2,0.4h0.5l-0.7-1.5l-2.4-0.6
	l0.8-1.2l1-0.6l1-0.1l0.9-0.2l0.8-0.9l1.2,0.5l0.3,0.4l0.3,0.5l0.3-1.6l-1.4-0.5l-2.1,0.3l-1.4,0.8l-0.4-1v-1.5l0.4-1.4l0.9-0.7
	l0.9,0.1l0.6,0.6l0.6,0.6l0.7,0.6l0.7,0.2l0.7-1.2l0.9-0.8v-1l-0.2-0.4l-1-0.2l-0.2-0.3v-0.4l0.3-0.2l0.4-0.9l0.5-0.2l-0.3-0.7
	l-0.4-0.2l-1.1-0.1l-0.3-0.6l-0.2,0.7l0.2,0.2l-0.7,0.5l-0.8,0.1l-0.6-0.2l-0.2-0.8l-1.7,1.5l-0.6,0.4l0.1-0.9l2.4-2.9l1.6-2.2l1-1
	l5.1-4.4l2.1-3.9l1-0.3l1.1,0.4l0.2-0.6l0.3-1.3l1,0.1l0.4-0.4l-0.3-0.7l-1.1-0.5l-1,0.4l-1.5,0.2l-0.2-0.6l0.8-1.1l1.6-1.4l1.1-0.7
	l1.6-0.6l2.8,2.7l0.3,0.2l1,1.7l0.7,0.8l0.2,0.7l0.2,0.9l0.2,0.5l0.9,1.4l0.5,0.3l1-0.1l1.2-0.5l0.8-0.1l1.7,0.8l0.1,0.3l-0.3,0.4
	l0.1,0.3l0.5,0.4h0.8l1,1.3l0.2-0.4l0.4,0.4l0.5,0.1l0.7-0.2l1.9-1.7l0.6-0.6l0.8-0.7l0.4-0.1l1,0.1l1.1-0.8l1.4-0.5l1.2-0.2
	l3.1,0.6l3.3,1l0.5,0.3l1.1,1l0.4,0.6l0.7,0.3l3.9,2.1l2,0.6l1.2,0.2l1-0.2l1.2-0.3l0.5-0.4l1.2-1.3l2.2-4l0.8,0.9l3.6,2.4l1.4,1.3
	l1.3,0.6l0.9,0.1l0.5-0.3l0.9-0.9l0.4-0.1l0.5,1l0.6,0.6l0.8,0.2l0.4-0.6l0.6-0.8l0.8-0.3l0.5,0.1l1.1,0.8l1.1-1l0.4-0.6l0.6-1.5
	l0.5-0.5l0.8-0.3l1.7-0.4l0.7-0.3l0.7-0.7l0.6-1l0.3-1.1l0.1-2.3l-0.3-0.6l-0.9-0.9l-0.2-0.6l0.3-0.5l1.4-1.7l2.6,1.3l3,0.6l6.6,0.5
	l1.8,0.6l2.5,1.8l1,0.4l4.3,0.9l2.5,1l-1.1,0.6l-0.2,1.5l0.2,1.2l-0.4,1.9l-0.7,0.6l-0.2,0.6l-0.1,1.5l1.3,1.1l1,0.4l0.9,1.3
	l1.4,1.2l1,2.7L446.6,354.7L446.6,354.7z"/>
<path id="COL1405" class="st0" d="M549.9,302.5l-0.3,1.9l-1.5,3.7l-1.4,2.5l-5,6.7l-0.8,2.3l-0.3,2.8l-0.3,5.6l-0.3,2.2l-0.7,2.2
	l-2,3.4l-1.2,1l-3.2,2.1l-1.7,1.8l-2,0.9l-1.5,1.1l-0.7,0.9l-2.3,4l-1.8,5.2l-0.1,0.4l-1.1,0.4l-0.6,0.3l-3.6,3.3l-3,3.8l-1.3,2.4
	l-0.8,2.1l-0.4,1.3l0.6,1.7l1.6,1l1.5,1.6l0.5,2l-0.5,1.2l-2.3,2.6l-5.7,4.4l-2.2,0.7l-0.8-0.3l-2-1.1l-0.8-0.1l-0.7,0.2l-0.8,0.8
	l-1,1.5l-2.2,7.6l-0.9,2l-1,1.4l-2.5,2.8l-0.7,0.4l-3.1,2.2l-1.4,1.2l-1.5,2.8l-2.1,3.5l-5.1,8.1l-5.1,4.6l-4.5,6.7l-3.3,4.5
	l-4.4,4.8l-1.3,1.5l-0.9,1.6l-1,1l-3.5,2.5l-1.2,1.2l-1.1,1.4l-1.2,1.2l-1.4,0.6l-1.7,0.3l-1.7-0.3l-3.4-0.1l-4.3-0.7l-2.4-1.1
	l-2.6-0.1l-2.4-0.9l-1.1-0.6l-5-1.5l-2.4-1.4l-1.8-1.8l-2.9-4.7l-3.5-4.5l-4.9-3.8l-1.4-2.5l-0.2-2.9l0.1-0.8l0.5-1.2l1.8-1.7
	l0.2-0.7l-0.2-2l-0.1-3.1l1.1-1.4l0.9-0.5l1.2,0.2l0.8,0.5l1,0.1h1.2l1.3,0.3l1-0.3l0.9-0.3l0.5-0.3l0.2-0.4l-0.2-1l-0.1-1.2
	l0.9-1.1l0.7-0.4l1-1.7l0.9-2.6l0.3-0.7l0.5-0.7v-1.1l-2.4-5.3l0.9-3.6l2.1,0.4l1,1l3.7,2.9l1.3,0.2l1.7,0.1l5.3-1.4l2.2-0.9
	l4.8-2.4l1.6-1.1l1.6-1.4l1.6-1.9l0.9-0.3l2.4,1.7l2.2,2l1.3,0.6l2.3-0.1l0.8-1.4l0.8-0.8l1.7-0.9l-1.9-3.7l0.1-2l1.3-2.7l1.4-4.7
	l-0.9-1.6l-0.8-1.8l-0.8-1l-1.2-0.9l-1.1-0.4l-0.9-0.8l-1.8-2.1l-8.8-7.7l-0.5-1.2l2-1.4h0.8l1,0.1l1.4,1.3l1.3,0.7l5.4,1.9l1.8,0.1
	l1-0.2l0.6-0.8l1.5-3l2.5-2.7l6.6-5.4l1.2-1.5l0.5-2.2l1.7-1.7l0.2-2.6l1.5-3.1l1.9-3l2-2.6l1.3-2.1l1-0.9l0.8-0.1l1.3,0.3h0.6
	l0.8-0.2l0.7-0.6l0.6-0.2l1.3-0.4l0.5-0.3l0.9-1.2l0.7-0.5l2-0.3l0.7,0.1l0.6,0.4l1.4,0.9l0.9,0.5l1,0.8l0.8-0.7l0.5-0.7l0.9-0.9
	l0.8-0.2l0.6,0.1l0.4,0.8l1.3,0.5l0.1-1.1l0.6-0.7l0.8-0.4l0.4-0.5l1.1-0.3h6.6l-0.3,0.7l-0.5,1.5v0.7l-0.2,0.6l-0.6,0.8l-0.1,0.4
	l-0.1,1.2l-0.2,0.8l-0.4,1.6l0.3,0.6l0.5,0.5l3.1,0.8l3.2,0.2l3.8-0.7l3.6-3.6l2.6-3.7l1.3-1.7l1.4-1.2l0.4-0.8l-0.1-0.7l-0.3-0.9
	l-0.1-1l0.3-1.5l0.4-0.8l0.6-0.5l0.6-0.4l0.8-0.9l0.3-0.5v-0.7l-0.2-0.5l-0.1-0.8l0.3-0.6l0.4-0.7l0.3-0.3l0.9-0.3l0.5-0.6l0.7-1.5
	l0.6-0.8l0.8-0.9l2.7-1.8l4.2-3.8l0.3-1l2.3,2.8L549.9,302.5L549.9,302.5z"/>
<path id="COL1406" class="st0" d="M309.3,373.7l6.1,4l2.1,2.2l0.1,1.3l0.3,1.5l0.9,2.4l0.1,0.7l-0.1,0.7l-0.2,0.9l-0.8,2.3l-0.2,1.2
	l0.1,0.6l1.2,2.8l4.8,7l0.2,0.6l0.2,2.2l0.3,0.6l0.6,0.6l2,0.9l2.1,0.5l2.4,0.8l1.5,0.2h1.3l3.1-1.2l2.1,0.1l2-0.8l1.1-0.9l0.5-0.2
	l1.8-0.4l1.9-0.2l1.2-0.4l0.8-0.8l0.7-0.3l1.2-0.2h0.8h1l0.7,0.1l1.3,0.4l5.9,2.8l0.8,1.1l-0.2,2l-1,1.6l-0.7,2.1l0.3,0.6l0.6,0.6
	l4,3l0.9,0.5l0.8,0.3l1.2,0.7l1,1.7l-0.8,1.9l-0.2,0.4l-1.1,0.3l-0.4,0.3l-0.2,1l-0.6,1.1l-2.4,2.1l-0.9,2.6l-0.2,0.6v0.9l0.3,1.1
	l-0.1,1l-0.2,1l-1.7,4l4,1.2l0.9-0.2l0.6,0.4l0.7,0.3l3.4-1.2h1.1l1-0.4h0.5l1.1,0.9l1.2,0.4h0.7l0.7-0.1l0.5-0.3l0.7-0.6l1.4-1.2
	l0.4-0.2l2.1-0.6l2.7-0.4l2.2-0.6l1.1,0.5l2.1,3.3l1.9,2.9l0.7,0.5l0.6,0.9l0.1,0.5l-0.1,0.7l-0.3,1.4l-0.3,0.7l-0.8,0.9l-0.7,0.8
	l-3.2,2l-0.3,1.2l0.3,5.7l0.7,3.3l0.1,2.6l-2,1.7l-1.2,0.1l-0.5-0.6l-0.4,0.2l-0.1,0.8l0.2,1.4l-0.1,0.8l-0.3,0.6l-0.9,0.9l-0.7,0.5
	l-4.8,1.8l-1.1,0.3l-0.1,1l-0.1,2.9l0.4,3.7l0.1,0.4h0.6l0.4,0.2l1.4,1l0.8,0.3l0.3,0.3l0.2,0.6v0.6l-0.6,1.8l-3.5,7.5l-1.9,3.3
	l-1.3,0.9l-1.2,1.7l-4.2,5.2l-1.3,1.5l2.6,2.7l3.1,2.5l1.3,0.8l1,0.5l0.4,0.4l0.3,0.7l-0.1,1.1l-0.2,0.4l-0.5,0.4l-0.3,0.4v0.7
	l0.1,0.7l1.4,3.2l0.2,0.9l0.2,2.1l0.6,1.4l0.2,1.3l-0.3,0.9l-0.7,0.5l-0.3,1.5l-0.9-0.2l-1.2,0.2l-3.4,1.2l-1.4,0.1l-1.1-0.3l-1-0.5
	l-1.2-0.5l-7.2-1.4l-2.3-0.9l-1.8-1.4l-0.7-1.7l-0.3-2l-0.6-2.2l-0.5-7.1L350,508l-2.7-0.7l-2.3,0.3l-2.5-0.9l-4.4-3.1l-1.4-2.1
	l-0.5-4.8l-2-1.6h-1.6l-5.4,2l-1.3,0.3h-1.4l-1.4-0.4l-1.6-0.6l-0.7-0.6l-0.2-0.7l0.1-0.7l-0.3-0.7l-0.6-0.7l-0.7,0.1h-0.7l-4.6-1.7
	l-4.8-0.2l-2.8-1.4l-8.7-6.6l-1.4-0.7l-4-1.1l-1.3-0.6l-1.6-1.2l-6.3-7.1l-1.2-0.9l-3.8-0.9l-1,0.1l-0.9,0.6l-0.4-1.1l-1.4-1.5
	l-0.3-0.7l-0.1-1.3l-0.6-0.2l-1,0.3l-1,0.2l-1.6-0.5l-1.3-1l-1-1.4l-0.7-1.5l-0.7-1.1l-2-1.6l-1.4-2l-3.9-2.7l1-0.5l-0.4-1.2
	l-0.8-0.7l-0.9-0.6l-0.7-0.7v-1.1l0.1-1.2V448l-0.5-1l-0.4-0.2l-2.2,1l-0.5-0.6l-0.7-0.6l-0.9-0.2l-0.7-0.5l-2-1.1l-1.8-1.2l-1-1
	l-0.6-1l0.3-1.1l0.6-0.7l1-0.4l1.3-0.3l1.2-1.1l1.1-2.1l0.9-1.2l1.7-1.7l1.4-1.6l0.9-1l1.4-1.1l3.1-0.7l1.6,0.2l1.1-0.1l1.5,0.3
	l1.3,0.6l1.4,0.3l2.3,0.2l1.5,0.3l1.9,0.2l0.3,0.2l0.5,0.6l0.7,0.4l0.6,0.2l0.7-0.1l-0.1-0.9l0.4-1.6l0.9-1l0.5-1.7l-0.6-1.1l0.1-1
	l0.5-1V423l-0.4-0.1l-0.5,0.8l-0.8,0.5h-1.4l-0.4-0.9v-1.2l0.3-1.4l0.1-1l0.3-1.7l0.1-0.8l-0.3-0.6l-0.5-0.6l-0.7-0.6l-0.7-0.3
	l-0.7,0.4l-0.6,0.9l-0.6,2.2l-0.8,0.3l-0.5-0.5l-0.1-1.4l-0.2-1.8l-0.8-2.3l-0.6-3.2l-0.6-2.3l-0.2-2.9l1.6-3.5l0.5-1.7l1.8-0.8
	l0.6-1.9l2-3.6l1.4-2.9l0.8-2l1-1.1l-0.4,1.1l-0.1,1.2l0.2,1.1l0.3,1.2l1-3.1l0.5-3.2l0.8-1.4l1.2,0.3l1.7-2.1l1.7-2l1.6-2.4
	l1.5-0.5l2.6-2.5l1.7-1.1l0.8,0.1l1.4,3.4l1.1,1.7l1.3,1.9l1.6,0.1l-0.8-2.3l-0.3-1.9v-2.1l0.6-1l1-0.9l0.7,1.2l0.5,2l-0.4,1.5
	l0.7,1.1l1.1,2.7l1,1.1l0.6,0.4l2.4,1.2l1.1,0.3l0.6-0.1l1.1-0.7l1.4-0.4l0.1-0.9l-0.1-0.5l0.3-0.7v-2.4l-0.6-2.1l-0.6-1.1l-0.4-1.2
	l0.6-0.6L309.3,373.7L309.3,373.7z M300.5,371l1.2,0.6l1.4-0.5l1.4,0.8l0.4,1.2l0.5,0.7l0.2,0.8l-0.2,0.4l0.1,0.4l1.6,1.9l0.6,1.4
	l0.1,2.2l-0.7,1.9l-1.9,0.5l-1.5-0.9l-1.8-1.9l-1.5-2l-0.7-1.4l0.2-1l1-0.7l0.3-0.7l-0.5-0.7l-1-1.9l0.1-0.7L300.5,371L300.5,371z"
	/>
<path id="COL1407" class="st0" d="M444.6,481.6l0.9-0.2l1,0.2l1.8,0.8h1.2l2.6-0.2l1.1,0.3l1,0.7l0.3,0.9v0.9l0.1,1.1l0.8,1.5
	l3.7,4.4l1.2,0.6l2.7,0.3l1.3,0.7l1.2,0.8l1.2,0.4h1.2l4.6-0.4l3.1,0.4l2.7,1.3l4.1,4.3l2.7,1l5.7,0.4l3.8-0.5l1.3,0.3l1.6,0.7
	l0.7,0.5l0.6,0.6l0.3,0.7l-0.2,1.3l0.1,0.7l0.6,1l1.6,1.9l0.4,1.1v1.2l-0.4,2.2l0.2,1.2l0.9,2.3l1.1,1.4l1.4,0.5l2.3-0.5l1.7-0.7
	h0.7l0.9,0.4l0.2,0.4l0.2,1.1l0.2,0.4l0.7,0.1h0.6l1.3-0.4l2.6,0.5l0.7,1.8l-0.4,4.6l0.1,0.9l1,3.1l0.3,2.3l0.5,0.7l2.9,0.9l4.3,2.4
	l7.6,1.4l2.4,1.3l1.6,2l0.4,2.8l-0.4,0.8l-0.6,0.8l-0.2,0.8l0.9,0.6l1.3,0.4l0.3,0.4l-0.4,0.5l-0.9,1.7l-0.4,0.5l-0.1,0.5l0.8,1.4
	l0.3,1.7l0.3,0.9l0.4,0.3l0.6-0.1l1.1,0.2h1l0.5,0.3l0.4,0.5l0.4,1.5l0.4,0.6l0.9,0.5l1.4,0.4l1.3,0.2l1.1-0.1l1.2-0.3l0.6,0.2
	l0.6,0.4l1.1,0.3l1-0.5l0.7-2l1-0.4l1.2,0.5l0.2,1l0.1,1l0.6,0.8h1.1l2.3-0.9l1.4,0.3l2.4,1.2l0.7,0.5l0.4,0.7l0.2,1l0.6,2l0.3,0.6
	l0.5,0.6l0.8,0.4l0.5-0.1l0.5-0.2l0.7-0.1l1.5-0.1l0.6,0.3l0.3,0.5l0.3,1.3l0.4,0.5h1.2l1.1-0.5l1.2-0.3l1.2,0.6l3.7,2.7l2.2,2.6
	l1.4,1l3.2,1.4l5.3,1.5l-37.1,11.5l-0.2-1.4l-0.3-0.3h-0.9l-0.4-0.2l-0.6-0.9l-0.8-1l-0.8-0.7l-4.1-2.5l-1.8-1.3l-2.8-3l-1.9-3.2
	l-0.6-0.5l-0.8,0.1l-1.3,0.8H537l-1.7-1.6l-0.4-0.2l-1.7-0.1l-1.3-0.4l-0.7-0.1l-1.2-0.4l0.5-0.9l1.9-1.4l-2.3-4.6l-1-1.4l-1.4-1.2
	l-0.8,0.2l-1.7,2.6l-0.7,0.6l-0.7,0.1l-1.1-0.4l-2.3-0.5l-1.5-0.6l-0.9-0.7l-2.7-3l-0.4-0.4l-0.6-0.1l-1.2-0.1l-0.6-0.2l-0.8-0.7
	l-2.6-3.7l-1.3-1l-1.4-0.7l-3-0.8l-1.4-0.1l-1,0.2l-0.7,0.7l-0.2,1.3l-0.3,0.8l-0.9,1l-1,0.8l-1,0.4l-1.3-0.7l-4.3-1.6l-3.7-0.7
	l-1.3-1l-1.6-0.5l-3.9-2.4l-3.2-2.9l-1.2-0.4l-0.7-0.4l-0.9-0.9l-1-1l-1.4-0.4l-1.2,0.1l-2.9,0.7l-1.6,0.1l-1.5-0.1l-1.3-0.3
	l-1.1-0.5l-1.9-1l-2.7-2l-0.5-1l-4.1-2.5l-1.7-1.5l-0.7-1.1l-0.3-1.3l-0.4-0.8l-4.5-5.7l-0.2-0.8l-0.7-1.1l-1.5,0.2l-1.7,0.6h-1.2
	l-0.4-0.5l-0.4-1.8l-0.4-0.7l-0.5-0.2l-0.8-0.1l-1.4,0.1l-1.7-0.1l-1.4-0.4l-1.4-0.5L431,523l-1.8-2l-0.7-0.3l-0.7,0.3l-2,1.4
	l-1.7,2l-1.3,0.4l-1.5,0.1l-0.6-0.1v0.4l-0.1,5l0.7,4.5l-1.2,0.8l-6.7,0.7l-1.7,0.9l-1,0.2l-1.3-0.5l-1.8-1.6l-1-0.8l-1-0.3
	l-3.3-0.3l-2.3-0.7l-0.8,0.3l0.1,2.7h-1l-2.4-1l-0.8-0.1l-4.7,0.7l-1-0.1l-1-0.3l-1.1-0.8l-1.5-1.5l-0.7-0.5l-1.1-0.4l-0.8-0.1
	l-2.7-0.1l-2-0.7l-2.6-2.9l-1.4-0.3l0.3-1.5l0.7-0.5l0.3-0.9l-0.2-1.3l-0.6-1.4l-0.2-2.1l-0.2-0.9l-1.4-3.2l-0.1-0.7v-0.7l0.3-0.4
	l0.5-0.4l0.2-0.4l0.1-1.1l-0.3-0.7l-0.4-0.4l-1-0.5l-1.3-0.8l-3.1-2.5l-2.6-2.7l1.3-1.5l4.2-5.2l1.2-1.7l1.3-0.9l1.9-3.3l3.5-7.5
	l0.6-1.8v-0.6l-0.2-0.6l-0.3-0.3l-0.8-0.3l-1.4-1l-0.4-0.2h-0.6l-0.1-0.4l-0.4-3.7l0.1-2.9l0.1-1l1.1-0.3l4.8-1.8l0.7-0.5l0.9-0.9
	l0.3-0.6l0.1-0.8l-0.2-1.4l0.1-0.8l0.4-0.2l0.5,0.6l1.2-0.1l2-1.7h2.2l5.4,0.3l1.8-0.4l1.8-1l1.5-1.7l3.5-5.3l1.1-0.3l1.1,0.4
	l1.1,0.7l2.3,0.9l1.1,1.5l1.3,2l0.1,0.7l1.2,1l0.8,2l0.3,0.9v0.9l-0.3,1.1l-1.1,2.3l-0.4,1.2l-0.2,5.9l0.6,2.9l1.7,2.4l1.3,1
	l4.8,1.5l2.7,1.3l2,0.4l9.5,0.3l1-0.3l0.7-0.4l0.6-0.6l0.8-0.5l1-0.5l0.9-0.2l2.1,0.1l1.2-0.2l0.6-0.7l0.3-0.8L444.6,481.6
	L444.6,481.6z"/>
<path id="COL1408" class="st0" d="M467.9,234.5l0.3,1.9l0.1,1.1l-0.5,0.6h-2l-0.7,0.3l-4.6-0.7l-2.5,3.5l0.1,0.9l-0.6,0.9v0.6
	l-0.5,1.7l0.1,5.1l0.5,1.2l-0.7,0.5l-0.4,0.5l-0.4,1.4l1.2,0.5h1.2l3,1.2l1.5,3.2l-0.2,0.2v2.7l0.1,0.9l-0.1,0.4l-1.1,2.5l-0.8,1.3
	l-0.6,1.5l-0.2,0.6l0.1,1.2l-0.2,1.1l-0.4,0.8l-0.1,1.2l0.1,1l0.2,0.5l0.3,0.4l2.1,0.7l1.2,0.8l1.3,0.6l1.1,1.7v0.7l-2.1,1l-0.8,0.5
	l-0.5,0.8l-0.9,2.6l-0.7,1l-1,2l-1.5,3.7l-4.5,6.8l-0.8,1.7l-0.2,0.4l-1.2,1.5l-0.3,0.2l-0.7,2.4l-0.5,0.8l-0.6,1.3l-0.6,3.7
	l0.1,1.3l-0.1,0.9l-0.5,0.8l-0.4,1l-0.8,1l-0.4,1l-0.3,1l-0.7,1.7l-0.4,1.3l-0.1,2.2l-0.1,1.7l-0.9,1.8l0.8,1.7l0.5,0.6l0.2,0.7
	l-0.3,0.4l-0.5,0.4l-0.4,0.5l-0.2,0.8l-0.1,3.7l-0.7,1l-2.5-1l-4.3-0.9l-1-0.4l-2.5-1.8l-1.8-0.6l-6.6-0.5l-3-0.6l-2.6-1.3l-1.4,1.7
	l-0.3,0.5l0.2,0.6l0.9,0.9l0.3,0.6l-0.1,2.3l-0.3,1.1l-0.6,1l-0.7,0.7l-0.7,0.3l-1.7,0.4l-0.8,0.3l-0.5,0.5l-0.6,1.5l-0.4,0.6
	l-1.1,1l-1.1-0.8l-0.5-0.1l-0.8,0.3l-0.6,0.8l-0.4,0.6l-0.8-0.2l-0.6-0.6l-0.5-1l-0.4,0.1l-0.9,0.9l-0.5,0.3l-0.9-0.1l-1.3-0.6
	l-1.4-1.3l-3.6-2.4l-0.8-0.9l-2.2,4l-1.2,1.3l-0.5,0.4l-1.2,0.3l-1,0.2l-1.2-0.2l-2-0.6l-3.9-2.1l-0.7-0.3l-0.4-0.6l-1.1-1l-0.5-0.3
	l-3.3-1l-3.1-0.6l-1.2,0.2l-1.4,0.5l-1.1,0.8l-1-0.1l-0.4,0.1l-0.8,0.7l-0.6,0.6l-1.9,1.7l-0.7,0.2l-0.5-0.1l-0.4-0.4l-0.2,0.4
	l-1-1.3h-0.8l-0.5-0.4l-0.1-0.3l0.3-0.4l-0.1-0.3l-1.7-0.8l-0.8,0.1l-1.2,0.5l-1,0.1l-0.5-0.3l-0.9-1.4l-0.2-0.5l-0.2-0.9L355,335
	l-0.7-0.8l-1-1.7l-0.3-0.2l-2.8-2.7l-0.8-0.8l0.1-1.3l0.5-0.8l0.7-0.8l0.8-0.4l0.7,0.1l1.1-0.3l1-0.1l0.3-0.2l1.3-1.2l1.5,2.8l1,1.1
	l1.7,0.7l-0.4-0.8l-2.2-2.7l-0.6-0.9l-0.1-1.2l0.3-1l0.7-0.8l0.2,0.5l0.5,0.7l0.4,0.3l0.2-0.3l-0.1-0.5l-0.8-1.1l0.4-1.4l0.6-1.2
	l0.4-1.1l-0.5-1.4h1.4l-0.4,0.6v1l0.1,0.5h0.5l0.6-0.4h1.2l0.9,0.8l0.2-0.4l-0.2-0.5l-0.5-0.4l-0.6-0.3l0.9-0.5l-1.2-0.4h-0.6
	l0.3-0.7l0.2-0.1l0.9,0.3l0.2-1l-0.9-0.3l-1.4,0.1l-1.1,0.3l0.3-1.1l0.7-0.1l1.1,0.2l0.8-0.1l-1.1-0.7l0.9-0.5l0.3-0.3l-0.3-0.7
	l1.4-0.3l1.4-0.1v0.4l-0.3,0.6h0.6l2-0.6l-1-0.2l-0.2-0.5l0.3-0.6l1.2-1.4l0.4-0.9l0.7-1.9l0.7,0.5l0.6,0.2l0.5-0.3l0.7-0.6l0.8-0.3
	l1-0.3l0.4-0.3l-1-0.3l-0.9,0.1l-0.9,0.4l-0.7-0.1l-0.3-1l1.6-0.4l1.1-0.4l0.6-0.9l-1.2,0.2l-2.8,0.7l-0.9-0.4l-0.3-1.1l0.2-1.2
	l0.4-1l1.8,1.4l1,0.3l1.5,0.1l0.2-0.4l-0.5-0.3l-0.6-0.1l-1.3-0.1l-0.4-0.3l-0.4-0.6l1.1,0.1l1-0.1l0.7-0.5l0.5-0.8l-1.1-0.7
	l-0.6-0.8l0.1-0.9l1.1-0.9l0.8,0.7l0.1,0.5v0.7l1-1l-0.4-1.4l-0.2-1.2l3.1-1l0.8-1.2l0.7-1.2l1-0.9v-0.4l-4.2,0.9v-0.5l1-0.4h-1.7
	l-0.8-0.1l-0.7-0.4l0.2,2.9l-3.9,2.3l-4.8,0.8l-2.6-1.4l0.1-0.6l1-0.5l0.2-0.5L363,290l-1.2-0.6l-0.8-0.5l-0.5-0.2V288v-0.6l0.5-1
	l0.3-1.8l0.4-0.6l0.6-0.4l1-0.1l0.7,0.2v0.5l-0.8,0.8l3.2-0.6l1-0.3v-0.5l-2.3,0.5l0.3-0.9l0.5-0.7l1.8-2.2l1.1-2.3h-1.1l-0.3-0.9
	l-1,0.3l-0.8-0.6l-0.8-0.9l-1.1-0.7l0.3,0.7l0.1,0.7l-0.1,0.8l-0.3,0.6l-0.6-0.3l-0.5-0.1l-0.6,0.1l-0.6,0.3v0.5l0.2,0.4l-0.2,0.6
	l-0.3-0.3l-1-0.2l0.2,1.2l-0.2,1.9l-0.5,1.7l-0.7,0.7l-0.2,0.4l-0.3,1.9l-0.2,0.5l-1.1,0.1l-0.8-0.6l-0.3-0.9l0.4-0.9l-3.5-2.8
	l-0.4-0.5l-0.3-1.1l0.4-1l1.4-0.1l-0.7-1L353,278l-0.5-1.8l-0.3-2.1v-1.9l2.8-0.4l2.9-2.4l0.9-0.1l0.6,0.2l0.8,0.8l0.8,0.3l0.9-0.4
	l0.5-0.7l-0.1-1.2l0.3-0.2l1.1-1l0.7-0.9l0.5,1.1v1.7l0.2,0.7l0.9,1.1l0.6,0.4l0.5,0.1l1.1-0.7l1.5-0.5h0.7l0.6,0.1l1.3,0.9l0.8,0.2
	l2.9,3l0.8,1l0.3,0.2h1.1l1.4,0.2h0.7l0.6-0.2l0.5-0.3l0.6-0.8l0.3-0.2h0.5l0.9,0.1h0.7l0.7,0.3l0.8,0.8l2.8,4.3l1.7,0.8l2.1-0.2
	l0.9,0.2l0.4,0.7l0.7,0.4l0.9,0.3l2.1,0.9l1.2,0.1l0.9-0.3l2.2-2.1l1.2-0.9l1-1l0.7-0.3l0.8-0.1l3.3,0.9h0.8l0.5-0.3l0.1-0.9
	l0.3-0.7l1.5-2.1l1.7-1.8l1.6-0.8l1.6-0.5l1.8-1.7l0.4-1.3l-1-1l-2.8-1.5l-0.3-1.7l0.5-3.3l-0.1-0.5l-1.6-1.4l-0.6-0.9l-1.2-2.1
	l-0.1-0.5l0.4-0.2l0.8,0.2h0.5l1.2-0.3l1.9-0.6l1.4-1l0.9-3.1l-0.1-1.3l-0.5-1.1v-0.8l1-3.5l0.6-1.1l3.6-3.2l1.8-1.3l2-2.1l0.9-1.4
	l-0.2-1l-0.4-0.7v-0.8l0.4-0.9l0.5-0.9l0.5-0.6l5.5-4.7l2.7-3.2l1.9-5.4l0.6-0.9l1.1-1.1l0.7-0.5l2-1.9l0.5,0.5l1.9,3.7l0.4,0.8
	l0.8,1.3l2.4,2.1v1.9l0.4,0.7l0.5,0.3l0.6,0.2h1.7l0.9-0.5l0.3,0.5l-0.2,1.5l-0.4,0.9l-0.7,0.5l1.1,1.9l-0.1,1l0.4,0.6l0.7,0.5
	l1,0.1h0.6l1-0.9l0.9-0.2l0.6,0.3l0.2,0.8v0.6l-0.6,1.4l1.5-0.3l0.7,0.1l2.6,0.8L467.9,234.5L467.9,234.5z"/>
<path id="COL1412" class="st0" d="M521.5-142.5l-1.4-1.7l-3-3.5l-1.8-1.4l-1.5-0.4l-3-3l-3.8,0.8l-2-3.1l-1-0.6l0.6-0.9l-0.2-0.5
	l-1.1-0.4l-1.2-0.2l-2.6-0.2l-0.4-0.3l-0.3-0.6l-0.6-1.1l-0.2-0.9l0.8-2.6l0.1-1l0.6-0.5l0.7-0.4l0.4-0.7v-1.5l-0.2-1l-0.4-0.6
	l-1.4-1.1l-0.4-0.4l-0.1-0.8l0.2-0.9l0.4-0.7l0.4,0.1l0.4-0.5l1.5-1.4l-0.5-1v-0.9l0.5-1.1l-0.2-1.7l-0.3-0.5l0.9-1.1l0.7-0.3h0.8
	l0.8-0.2l0.7-0.3l4.3-2.8l2.5-0.7l1.4-0.8l0.9-1l-0.1-1.1l0.3-0.7l0.3-1.6l0.3-0.6l0.7-0.4l0.9-0.4l1.2-0.1l1.3-0.5l0.9-1l1.6-1.3
	l0.1-1.2h1.9l2.3-0.2l1.1-0.9l-0.1-1.7l0.6,0.9l2.8,2.6l1.5,1.8l0.5,1l0.5,2.8l0.6,0.9l0.8,0.7l0.6,0.8l0.3,1.3l-0.3,1.2l-0.6,1.3
	l-0.3,1.6l0.1,0.8l1.1,3.1l0.2,0.6v1.4l-0.5,5.8l0.2,4.4l-0.2,1.5l-1.3,2.3l-3.9,2.7l-1.2,2.5l-0.4,3.1l-0.4,1.5l-0.8,1.2l-1.1,1.3
	L521.5-142.5L521.5-142.5z"/>
<path id="COL1413" class="st0" d="M479.9-148.2l-0.7,0.8l-1.4-0.3l-0.6,0.3l-0.2,0.9l-0.2,0.5h-0.6l-0.2-0.9l-0.1-1.1l0.2-0.8
	l0.4-0.6l0.7-0.7l0.5,0.4l0.8,0.3l1.3,0.4L479.9-148.2L479.9-148.2z M521.5-142.5l-0.5,0.9l-0.5,2.4l-0.9,2.2l-0.2,1.5l0.3,1.9
	l0.8,0.8l1.1,0.4l1.3,0.9l0.5,0.2l2,0.4l0.8,0.7l0.6,0.8l0.9,2.1l0.2,0.2l0.9,0.5l0.3,0.6l-0.2,1.8l-0.4,1l-0.8,0.6l-2.4,1.2
	l-0.7,0.5l-0.4,0.9l-0.1,1.5v3.2l0.3,1.4l0.6,1.3l0.6,0.9l2.3,2.1l0.4,1.2L528-107l-0.5,1.5l-0.3,1.3l0.2,1.4l0.6,1l1.8,1.6l0.8,1.1
	l0.2,1.1l-0.8,2.7l-1,6.1l0.4,2.6l2-0.3l0.5,0.6l1.3,1.8l0.9-0.5l0.9-0.3h0.9l0.8,0.5l0.3,0.5l0.3,1l0.3,0.4l0.4,0.1h0.9l0.3,0.1
	l1.1,0.6l0.5,0.5l0.2,0.5l0.1,0.9l0.4,0.6l0.4,0.6l0.6,0.5l2.1,1.4l1.1,1.2l0.6,2.2l0.4,0.6l0.6,0.5l0.7,0.2h0.7l0.4-0.4l0.7-1
	l1.1-0.6l1.1-0.1l2.2,0.2l0.3,0.4l0.5,1.8l0.3,0.6l0.9,0.4l0.6-0.2l0.6-0.4l0.7-0.2l1.3,0.1l1.5,0.5l1.3,0.7l0.5,0.7l0.1,1.9
	l0.5,0.6l2.6,0.1l1.2,0.8l1.8,2.8l1,1.3l2.8,1.6l0.9,0.8l-0.8,0.6l1.9,0.8L577-58l2.1-0.2l1.1-1.6l0.7,0.7l0.9,0.7l0.6,0.8l-0.4,1.1
	l2.2,1.2l5.6,0.3l1.9,0.8l-0.8,2l0.1,2l0.8,1.8l1.1,1.4l2.3,2.2l0.9,1.3l0.2,1.9l-0.3,1.4l-1.2,2.5l-0.3,1.5l0.1,4.4l0.3,1.4
	l0.5,0.7l1.2,1.5l0.2,0.8v2.3l0.3,1.6l1.5,2.7l0.5,1.6l0.5,4.8l-0.3,1l-0.5,1l0.1,0.7l0.5,0.5l0.2,0.8l-0.2,0.5l-0.5,0.8l-0.3,0.8
	v1.9l-0.1,0.7l-0.6,1.3l-0.2,0.8L597-2.9l-0.1,0.8l0.3,0.6l0.2,1.2l0.2,0.7L597.5,1l-0.7,0.8L596.1,2l-0.6,0.6L595,3.3l-0.5,0.8
	l-0.3,0.1l-1.4,0.6l0.1,0.2l-0.7,1.8l-0.5,2.1l-0.1,1.3l0.1,1.3l1.2,3.8l-0.2,0.8l0.9,4.1l0.7,0.6l0.3,0.6l0.8,4.1l0.1,1.4l-0.6,3.9
	l-0.2,0.8l-0.4,0.5l-0.2,0.6l0.6,0.9l0.3,0.6l-0.1,0.7l-0.4,1.2v2.3l-0.3,1l-0.9,0.5l-0.2,0.6l-3.8,4.7l-0.3,1.1v2.6l0.1,0.7
	l0.6,0.9l0.2,0.8l-0.1,0.6l-0.8,1.9l-0.8,2.8l-0.4,2.8l-21.7,20.7l-1.2-0.3l-2,0.2l-1.3-0.2l-1.6-0.7l-0.7-1l-0.3-1.5l-0.2-1.5
	l-0.7-1.9l-0.6-2.1l-1.1-2.7l-0.5-2.1l-0.1-1.7l0.7-2.3v-2.7l-0.3-1.6l0.3-1.5l0.5-0.9l1.4-1.5l0.6-0.9l0.4-1.1l0.4-1.6l-1.2-3.8
	l-2.7,2.1l-0.7,1.2l-1.2,2.9l-0.9,1.1l-1.5,1.3l-1.3,0.3l-1.3-0.4l-1.4-1.3l-2.3-2.8l-1.3-2.9l-0.3-1.8v-2.1l0.9-5.6l0.8-1.7
	l1.5-1.1l1.5-0.9l1.2-1.2l1-1.9l0.2-1.2l-0.3-0.9l-0.8-0.5l-0.9-0.5l-0.8-1.3l-0.6-2l-0.7-6.8l-0.7-1.9l-0.7-0.8l-1.3-1.8l-1.2-2.1
	L527-0.8l0.5-1.1v-0.9l0.8-1.1l1-1.1l0.1-0.5l-0.1-0.4L529-7l1.7-0.4l0.6-0.4l1.4-1.2l0.7-0.2l2.2,0.2l1.8-0.1l1.6-0.5l1.4-1l1-1.1
	l0.7-1.6l0.2-1.7l0.2-0.6h0.3l0.6,0.2l1.1,0.1l0.5-0.8l0.9-2.6l0.2-0.8l-0.1-1.2l-0.6-2.3l-0.2-2v-1.5l0.1-0.3l-0.8-0.8l-0.7-2
	l-1.2-7.9l0.6-1.4l1.7-1.5l0.9-1.6l0.9-0.9v-0.5l-0.4-0.7l-0.9-0.9l-3.4-5.2l-3.2-3.5l-6.4-4.9l-1.9-0.8l-2.9-1.8l-1.2-2.5l-1.3-2.5
	l-1.2-1l-0.6-0.3l-0.7-0.6l-0.3-0.6l-0.2-1v-0.9l-0.7-2.9l-0.9-1.9l-0.3-1.3v-0.8l0.3-1.3l-0.6-0.9l0.2-0.6l1.4-3.2l0.9-1.4l0.3-0.4
	l-0.3-0.5l-0.6-0.3l-1.4-1l-0.6-0.9h-0.5l-0.8,0.4l-1.6,0.4l-1.3-0.3l-1.1-0.4l-0.4-0.5l-0.2-0.6l1.4-3.2l-2-0.6h-1.9l-0.8-0.6
	l-2.9-2.5l-1.4-1.8l-2.7-2.2l-1-0.4l-0.8-0.1l-0.8,0.2l-0.9-0.1l-2-1.4l-1.2-0.4l-1-0.1l-0.9,0.4l-0.5,0.5l-1.1,1l-1.4-0.5l-1.3,1.1
	l0.7-3l0.5-0.8l0.1-1l0.1-1.2l0.3-1.3l0.7-2.1l0.2-1.1l-0.3-1.6l0.5-2.2l0.5-1.1l-0.1-1l-1.4-0.1l-0.9,0.5l-0.9-0.2l-5.4-1.8
	l-1.5-0.8l-0.5-0.7l0.2-0.6l1-1.4l0.2-0.6v-0.7l-0.6-1.2l-0.1-0.9l-0.1-2.3l-1.1,0.1l-1.2,0.4l-0.9-0.1l-0.7-0.3l-0.2-0.7l0.4-1
	l3.1-5.5l-6.5,3.5l-0.4-1.1l-0.1-1.4l0.6-0.7l1-0.4l0.3-0.4l0.7-1.5l0.7-1.1l0.2-0.8l0.1-0.7v-1.4l0.3-0.7l-2.1,1.2l-2.8,1.9
	l-2.7,2.8l-2.7,1.6l-1.3-0.2l1-2.3l1.9-1.1l1-0.6l1-1.4l0.4-0.9l0.6-0.8l0.2-0.7l-0.3-0.9l0.2-0.5h1.5l-0.4-0.6l-0.1-0.5l0.1-0.6
	l0.4-0.6l0.6,1.4l1.3-0.3l2.5-1.6l0.7-0.6v-1.6l-0.4-1.8l-0.1-1.6h-0.5l-0.5,0.4l-0.4-0.5l-0.4-1.8h-0.5l-0.4,1.1l-0.4,0.2l-0.6,0.1
	l0.3-0.5l0.3-1.3l0.3-0.5l0.4-0.4l0.8-0.4l0.5-0.4l1.9-2.2l0.6-0.4l-0.3,1.2l-0.7,1.4l-0.3,1.2l1.1,0.5l0.9-0.6l0.4-1.5v-1.7
	l-0.2-1.4l-0.2-0.3l-1.2-0.2l0.1-0.4l0.4-1l-0.1-1.5l-0.2-0.6l-0.9-0.2l-0.2-0.3l0.3-0.6l0.6-0.7l0.7-0.3l0.8-0.1l0.9-0.3l0.7-0.4
	l0.6-0.6v-0.4l-0.5-0.7l0.1-0.3l1.5-0.7h0.5l0.5-0.1l0.2-0.8l0.2-0.1l0.6-0.6l0.4-0.7v-0.3l0.4-0.1l1.6-0.8l4.5-1.1l0.6-0.6l0.7-1.1
	l0.5-0.6l0.4-0.1l1.1,0.5l0.1,0.4l-0.5,0.7l0.5,0.5v0.3l-0.4,0.7l-0.2,0.9l0.1,0.8l0.4,0.4l1.4,1.1l0.4,0.6l0.2,1v1.5l-0.4,0.7
	l-0.7,0.4l-0.6,0.5l-0.1,1l-0.8,2.6l0.2,0.9l0.6,1.1l0.3,0.6l0.4,0.3l2.6,0.2l1.2,0.2l1.1,0.4l0.2,0.5l-0.6,0.9l1,0.6l2,3.1l3.8-0.8
	l3,3l1.5,0.4l1.8,1.4l3,3.5L521.5-142.5L521.5-142.5z M500.5-176.4v-0.4l-1.1,0.9l-0.3,0.5l-1.3-0.7l-0.4-1.3l0.5-1.2l2.4-0.8
	l0.2-0.3l0.3,0.5l0.2,1.7L500.5-176.4L500.5-176.4z"/>
<path id="COL1414" class="st0" d="M656-153.5v1v1.3l-1.3,15l-3.5,12l-0.1,2.7l-0.5,2.6l-0.1,1.4l0.5,1.8l0.6,1.3l0.2,1.2l-0.5,1.8
	l-2.1,4.3l-3.7,5.8l-1.7,4.6l-0.7,1.3l-1.1,1.1l-2.7,1.7l-1,0.9l-1.2,3l-5.4,8l-2.3,5.8l-0.9,1.4l-1.2,1.2l-2.4,1.7l-0.8,1.3
	l-0.1,1.5l0.9,0.5h1l-3,0.7l-0.6,0.3L621-64l0.3,2.6l-0.9,9.4l0.3,2.7v0.5l-0.5,1.9l0.9,3.4l0.5,1.6l0.1,0.7l-0.3,0.7l-1,0.9
	l-1.7,1.1l-0.4,0.4l-0.2,0.5l0.2,1.1l-0.2,0.5l-0.7,0.7l-2.4,1.9l-1,0.9l-0.9,1.4l-0.4,0.8l-0.2,0.9v1.4l0.7,1.7l1.9,2.7l1.3,3.1
	l0.4,0.2l0.5,0.9l-0.8,2.9l-1.6,1.8l-0.1,0.5l0.1,0.3l1.5,0.2l1,0.4l0.4,0.3l1,0.7l0.2,1.6l0.7,0.6l0.3-0.2l1-1.5l2-1.6l-0.4-2.6
	l-0.5-1.1l-0.3-1.1l0.3-0.8l0.6-0.1l0.9,0.1l1.6,0.2l0.7,0.5l0.5,0.4l0.2,3l-0.9,4.3l-1.1,2.4l-0.5,2l-0.8,1.3l-0.5,1.4L622.6-2
	l0.3,5.3l0.9,0.6l1,2.3l0.1,1.1L624.8,9l0.3,0.9l0.9,1l2.9,0.3l0.9,1.2l1.1,0.5l0.2,0.9l-0.1,0.9l-0.2,0.9l-0.9,1.2l-0.6,0.7
	l-0.8,0.6l-1.2,0.5l-0.5,0.4l-0.3,0.8l-0.3,1.2l0.2,2.4l-0.1,1.4l-0.2,0.7l-0.3,0.6l-1.5,2l-0.6,1l-0.8,0.8l-0.7,0.9l-1,0.9
	l-1.3,0.9l-2.1,1l-0.8,0.2l-0.6-0.1l-0.7-0.3l-1.3-1l-0.5-0.3l-1.3-0.3l-0.5-0.5l-0.8-0.9l-0.5-0.3l-0.7-0.3l-2.5-0.5l0.7,0.7
	l-8.5-0.4l0.1-2l0.7-1.2l-0.2-1.3l-0.2-1l0.1-0.6l0.3-0.7l1.2-1.2l1.1-0.8l1.9-1.6l0.5-1.2v-1.2l-0.4-1.2l-0.4-0.6l-0.8-0.5
	l-0.5-0.6l-0.4-0.2l-0.8-0.2l-0.6-0.7l-0.1-1.2l-2.8-4.9L598,5.3l-0.1-0.9L597.5,1l0.1-0.6l-0.2-0.7l-0.2-1.2l-0.3-0.6l0.1-0.8
	l0.7-0.7l0.2-0.8l0.6-1.3l0.1-0.7v-1.9l0.3-0.8l0.5-0.8l0.2-0.5l-0.2-0.8l-0.5-0.5l-0.1-0.7l0.5-1l0.3-1l-0.5-4.8l-0.5-1.6l-1.5-2.7
	l-0.3-1.6v-2.3l-0.2-0.8l-1.2-1.5l-0.5-0.7l-0.3-1.4l-0.1-4.4l0.3-1.5l1.2-2.5l0.3-1.4l-0.2-1.9l-0.9-1.3l-2.3-2.2l-1.1-1.4l1.8-5.6
	l0.7-1.2l0.7-2l1.6-2.6l-1.7-2.3l-2-2l-0.9-1.4l-0.3-1.4l-0.1-1.3l-0.3-0.4h-0.5l-1.1,0.1l-2.6-0.5l-0.9-0.4l-0.5-0.9v-1l0.7-1v-0.8
	l-0.1-0.6l-0.2-2.4l-0.3-0.5l-0.4-0.4l-1.2-1l-0.7-1.4l-0.4-3.8l-1.2-1.1l-1.4-0.8l-2.9-2.7l-3.7-2.2l2-1.4l3.2-3.8l1.2-0.7l1-0.4
	l1.5-0.2l1.1,0.2l0.7,0.2l1.1,0.1l0.5,0.1l0.9,0.7l0.6,0.3h2.5l1.3,0.1l0.5-0.3l2.8-1.6l0.5-0.1l0.4,0.2l0.8,1.2l1.1-1.4l-2.2-6.5
	l-1.7-3.2l0.4-1.1l-0.3-2.3l-2.9-2.7l-0.7-0.5l-3.9-5.3l-1.1-1l-1-0.7l-0.9-0.4l-0.7-0.9l-1.8-2.8l-2.1-3.7l-0.2-0.8v-1l0.2-0.7
	l0.6-2.2l0.4-3.2l1.2-1.6l0.7-1.5l0.7-0.7l1-1.5l2.1-2.2l0.6-1l0.7-1.8l0.5-1.2l1.3-1.3l0.9-0.8l0.9-0.3l2.4-0.5l0.9-0.3h0.6
	l1.1,0.3h0.7l2.6-0.8l2.4-1.7l0.9-0.2l1.1-0.5l0.9-1.1l0.7-0.3l0.8-0.1l0.9-0.1l0.5-0.4l0.7-1.7l0.5-0.2l1.9-0.6l1.6-0.7l0.5-0.7
	l-0.1-0.6l-0.5-0.6l-0.7-0.4l-0.3-0.3l-0.2-0.6l0.2-1v-1.1l-0.4-2.5l-0.3-1l-0.6-1.3l1.8-3.4l0.7-0.7l1-1.4l-0.2-0.9l-0.7-0.8
	l-1-0.5l-1.2-0.3l-1-0.1l-1,0.1l-0.6-0.3l0.4-1l2.2-3.3l0.1-0.8l10.3-1.4l4.4,0.2l1.5,0.3l1.8,0.1l2.4,0.5l1.2-0.1l0.9,0.6l0.8,1.1
	l0.3,1.2l0.3,1.8l-0.1,0.8l-0.3,0.9l-0.1,0.7l0.5,1l2,0.6l1.8,1.1l2,0.5l2.7,1.6l2.6,2.2l0.7,1.1l-0.8,1.1l-0.3,0.8l-0.6,1.6
	l-0.9,1.1l-0.8,2.4l-0.9,0.5l-1.3,2.5l-0.8,0.4l-0.4,0.7l-0.4,0.8l1.3,0.4l0.8,0.9l0.4,1l0.4,1.2l0.6,0.3l1-0.3l1.2-0.5l1.3-0.2
	l1,0.2l1.2,0.5l1,0.2l1.2,0.1l1.2-0.2l1.1-0.3l2.6-1.1L656-153.5L656-153.5z"/>
<path id="COL1415" class="st0" d="M362.3,268.3l0.1,1.2l-0.5,0.7l-0.9,0.4l-0.8-0.3l-0.8-0.8l-0.6-0.2l-0.9,0.1l-2.9,2.4l-2.8,0.4
	l0.2-1.1l0.4-0.7l0.8-0.7l0.9-0.2l0.9,0.1l0.7-0.1l0.3-0.9l0.2-0.5l0.7-0.5l0.8-0.2l0.8,0.3l1.1,1.3l0.4,0.1l1-0.3L362.3,268.3
	L362.3,268.3z M357.8,264.7l1.3,0.6l1.4-0.1l1.4-0.3l1.3,0.2l-1.2,2l-0.9,0.8l-0.8-0.4l-1.2-1.5l-1.7,0.7l-1.6,0.2h-3.5l-1.3-0.3
	l-0.9-0.1l-1,0.2l-0.6,0.5l-0.9,1.1l-2.5,0.8l-0.3,0.2l-0.2-0.6v-0.9l0.3-0.9l0.6-0.4l0.9-0.3l1.5-1.3l0.8-0.2l0.9,0.1l1.7,0.3h0.9
	l-0.3-0.5l-1-0.7l-0.5-0.6h2.3l-1.6-0.4l0.2-0.7l1.1-0.7l1.2-0.6l-0.9-0.4h-0.5l0.5-1l1.8,1l1,0.8l0.8,1l0.5,1.1L357.8,264.7
	L357.8,264.7z M382.5-5.4v0.2l0.8,3.3l0.5,1.1l0.3,1.3l0.5,5.6l-0.4,1.4l-0.5,0.7l-0.2,1.3l-1.3,0.8l-0.5,0.7l-0.4,1l-1.3,6.9
	l-0.9,1l-1,0.7l-1.4,1.4l-1.5,1l-1.8-0.3v2.8l0.3,0.1l0.2,0.7l-0.4,0.1l-0.5,0.4l0.5,1l0.7,0.8l8.6,7.9l7,5l7,7.6l5.4,6.7l1.3,1.1
	l1.8,1.1l2.3,0.3l0.9,0.3l0.8,0.6l2.9,2.5l0.9,1.3l1.4,4.2l0.2,7.6l-0.2,1.3l-0.3,0.6l-2.2,3.7l-1.6-0.1l-0.9-0.5l-1.2-0.4l-5.5-1.4
	h-1.4l-4.3,0.4l-2,0.3l-1.3,0.5l-1,0.6l-0.3,1l0.6,1.4l0.2,0.2l0.8,0.5l0.4,0.8l0.3,1.1l0.3,2.5l-0.3,1l-0.6,0.8l-0.8,0.8l-0.3,0.4
	l-0.6,0.3l-3.2-0.3l-2.1,1.3l-0.9,0.1l-3,1l0.2,0.6v2.5l0.2,0.8l1,0.7l0.2,0.7l-0.2,0.4l-1.2,1.4l1.2,0.1l0.5,0.1l0.2,0.5v0.7
	l0.2,0.5l0.4,0.3l0.8,0.1l-0.1-0.4l0.5-0.7l0.6-0.4l0.3,0.4l-0.4,1.1v0.7l0.4,0.7l0.6,0.2l1.5,0.2l0.3,0.3l-0.2,1h-0.4l-0.4-0.3
	h-0.4l-0.6,1l-0.2,1.4l0.4,0.8l0.8-0.4l1,0.4l0.6,0.7l0.3,1v1.2l0.7,0.6l0.5,0.9l0.6,0.6l0.9-0.3l1.6,2l0.1,0.5l-0.7,0.8l-0.4,0.9
	l0.2,0.6l1.1,0.3l-0.5,0.7l-0.9,0.3l0.5,1.1l0.6,0.7l0.1,0.8l-0.7,1.1l0.9,0.4l-0.6,0.6l-0.4,1.2l-0.2,1.3l0.3,1.1l0.4,0.4l1.1,0.3
	l0.3,0.2l0.3,1.5l0.1,0.4l1.9,2l0.7,1.2l0.2,1.4l0.6,0.8l0.9,0.7l1.8,0.5l1.7,0.2l5.3-0.2l3-0.7l3.8-0.3l3.2-0.3l2.2-0.5l2.6-0.3
	h2.5l2.4,0.3l1.2,0.9l0.7,1.1l0.5,4.2l1.6,4.2l1.9,2.4l1.7,0.7h1.8l1.7,0.9l0.4,3l-1.8,4.7l-0.2,1.6l0.3,1.8l0.5,1.5l1.9,3.2
	l0.5,0.9l0.2,1.7l-0.8,2.9l-0.1,1.1l0.7,1.3l0.4,0.5l2.6,2.7l-2.5,2.7l-0.1,1.8l-0.8,3.7l-3.5,2.1l-1.3,1.1l-1.2,3.8l0.2,2.9
	l5.5,9.1l0.7,2.4l-0.1,2l1,1.7l-0.1,3.3l-2,1.9l-0.7,0.5l-1.1,1.1l-0.6,0.9l-1.9,5.4l-2.7,3.2l-5.5,4.7l-0.5,0.6l-0.5,0.9l-0.4,0.9
	v0.8l0.4,0.7l0.2,1l-0.9,1.4l-2,2.1l-1.8,1.3l-3.6,3.2l-0.6,1.1l-1,3.5v0.8l0.5,1.1l0.1,1.3l-0.9,3.1l-1.4,1l-1.9,0.6l-1.2,0.3h-0.5
	l-0.8-0.2l-0.4,0.2l0.1,0.5l1.2,2.1l0.6,0.9l1.6,1.4l0.1,0.5l-0.5,3.3l0.3,1.7l2.8,1.5l1,1l-0.4,1.3l-1.8,1.7l-1.6,0.5l-1.6,0.8
	l-1.7,1.8l-1.5,2.1l-0.3,0.7l-0.1,0.9l-0.5,0.3h-0.8l-3.3-0.9l-0.8,0.1l-0.7,0.3l-1,1l-1.2,0.9l-2.2,2.1l-0.9,0.3l-1.2-0.1l-2.1-0.9
	l-0.9-0.3l-0.7-0.4l-0.4-0.7l-0.9-0.2l-2.1,0.2l-1.7-0.8l-2.8-4.3l-0.8-0.8l-0.7-0.3h-0.7l-0.9-0.1h-0.5l-0.3,0.2l-0.6,0.8l-0.5,0.3
	l-0.6,0.2h-0.7l-1.4-0.2h-1.1l-0.3-0.2l-0.8-1l-2.9-3l-0.8-0.2l-1.3-0.9l-0.6-0.1h-0.7l-1.5,0.5l-1.1,0.7l-0.5-0.1l-0.6-0.4
	l-0.9-1.1l-0.2-0.7v-1.7l-0.5-1.1l1.2-1.5l-5.7-0.1l-1-0.2l-1-1.1l-2.4-4.2l1.9-2.7l0.4-1l0.5-2.9l0.7-1l1.5-0.7v-0.5l-1.4,0.5
	l0.2-2l0.7-3.1l0.1-9.3l0.4,1.1l0.9,0.8l0.3-0.7l0.2-1.1l-0.2-1l-1.6-0.8l-0.3-0.9v-1.1l-0.2-0.9l1.5,0.2l1.2,0.8l0.8,1.1l0.6,1.2
	h0.4l-0.7-2.2l-2.9-3.5l-0.4-2.2l-1.5,0.5l-0.5-2.8l-0.8-8.6l-0.5-1.2l-0.4-10.1l0.4-2.3l0.6-2.2l0.8-2l-0.9-0.5l-0.1-1.5l0.1-1.5
	l-0.3-0.7l-0.6-0.5l-0.3-1.4l-0.2-2.7l-1,0.4l-0.6-0.3L354,189v-1.1h0.5l0.5,0.4h0.4l0.5-0.4l-0.7-0.5l-0.3-0.6l-0.5-2.1l0.1-0.5
	l-0.5-0.5l-1.4-0.3l-0.4-0.2l-0.7-0.7l-0.5-0.7l-0.6-0.6l-0.9-0.3h-1l-0.7,0.2l-0.5,0.5l-0.1,0.7l-0.8-0.7h-0.8l-0.7,0.3h-0.5
	l-0.5-0.8l0.2-0.6l0.6-0.4l0.8-0.1l0.6-0.7l1.6-3.3l0.8-1.1l0.6-0.2l1.5-0.1l0.7-0.2l0.8-0.5l0.5-0.6l0.7-0.5l1-0.2l1.2,0.4l1,0.6
	l1.1,0.4l1.5-0.5l0.4-0.4l0.3-0.9l0.3-0.8l-0.1-0.8l0.4-0.4l0.8,0.1l0.5-1l0.7-0.5l0.9-0.6l0.6-0.5l0.5-0.6l0.3-0.8l0.4-1.6
	l-0.2-2.8l-1-2.4l-2.7-4.4l-0.7-0.6l-0.1-1.5l-2.6-7.3h-0.5v1.9h-0.5l-1-3L354,142l-4.1-5.1l-0.7-1.2l-0.3-1l0.1-2.7l0.5-2.4v-1.1
	l-0.5-0.9l0.5-0.4l2.5,2.1l1.6,2l0.7-0.5l0.6-1.1l1-2.5l0.2-1.3l0.1-1.2l-0.1-1l-0.2-0.7l-1.2-1.7l0.1-0.6l1.6-0.5l0.2,0.4l0.7,0.5
	l0.2-1l-0.2-1l-0.6-0.7l-0.8-0.5v-0.5l1-1.7l0.3-1.1l0.1-1.4l0.8-1l0.3-1.5l-0.1-1.5l-0.5-1.1l-2.3-1.8l-1.2-1.4l-0.7-0.5v-0.7
	l0.4-1.4v-0.9l-0.2-0.8l-0.5-0.4l-0.6-0.2l-2.3-1.3l-1.6,0.4l-1.3,1l-0.8,1.1l0.5,0.9l-0.6,0.1l-0.9,0.4h-0.4v-1.7l0.1-0.8l0.3-0.8
	l-2.7-6l-1.4-1.8l-1.9-1.9l-1-0.7l-1.7-0.4l-0.6-0.5l-0.8,0.2l-0.2,0.4l-0.1,1.1l-0.6,0.3l-0.3-4.7l0.6-1.9l1.8-0.8l0.8-1.2
	l-0.8-2.6l-2.1-4h-0.5l0.5,0.8l0.5,0.5v0.5h-0.5l-1.2-1.6l-4.9-5.3l-0.7-0.4l-1.2-0.1l-0.7-0.4l-0.4-0.9l-0.5-0.8l-1-0.3l0.5-0.4
	l-0.9-0.3l-0.8-0.6l-1.1-1.5l-0.5-0.1l5.1-16.4l1.6,0.4l1.4-0.3l1.3-0.7l1-1.3l0.6-1.7l-0.2-1.5l-1.5-3l-0.6-2.1l-0.3-2.9l0.4-2.4
	l1.6-0.9l0.7,0.3l3.4,2.9l0.6,0.8l-0.3,0.7l0.2,0.5l0.8,0.2l1.8,2.6l0.5,0.9l0.9,3.4l0.7,0.7l1.5-0.1l1.7-1.4l3.1-3.1l9.4-5.9l2-1.8
	l-0.5-1.2l-1.3-1.3l-0.9-2l0.2-0.8l2-2.6l1.7-3.8l1.4-1.5l2.1-1.1l2.2-0.7l2-0.4h2.5l0.4-0.3L370,15l-0.7-0.7l-0.7-0.5l-0.6-0.6
	l-0.5-1l-0.1-1.6L366,5.3l-2-3.8L361.6-2l-1.4-3.1l-0.5-0.7l-0.9-0.3l-0.9-0.1l-0.8-0.3l-0.8-1.2l-0.6-2.4l-0.5-4.7l-1-2.3l-1.1-1.9
	l-0.7-0.6l-1.1-0.4l-2.1,0.2l-0.6-0.4v-1.6l0.6-2l2.6-2.8l0.8-1.7v-1.2l-0.4-0.7l0.1-0.5l1.1-0.7l1.1-0.3l1.1-0.1l0.7-0.5l0.1-1.2
	l0.4-0.6l1.1,0.6l0.6,2.5l0.8,1.3l0.9,0.8l0.6,0.8l0.6,1l0.5,1.3l0.6,2.6l0.5,1.5l4.4,3l3.4,1.3l1,0.8l0.7,0.8l5.4,9l1.5,1.1
	l0.9,0.2h1.9L382.5-5.4L382.5-5.4z"/>
<path id="COL1416" class="st0" d="M612.3-211.6l0.2,1.9l-1.3,3.9l-0.3,0.6l-0.8,0.5l-0.9,1.2l-0.3,0.3l-1,0.3l-0.4,0.7l0.2,1v0.8
	l-0.1,0.8l-0.2,3.6l-0.4,1l-0.4,1.7v0.7l0.1,0.5l0.8,1.3l0.3,0.9l0.4,2.8l1.4,5l-0.1,0.8l-2.2,3.3l-0.4,1l0.6,0.3l1-0.1l1,0.1
	l1.2,0.3l1,0.5l0.7,0.8l0.2,0.9l-1,1.4l-0.7,0.7l-1.8,3.4l0.6,1.3l0.3,1l0.4,2.5v1.1l-0.2,1l0.2,0.6l0.3,0.3l0.7,0.4l0.5,0.6
	l0.1,0.6l-0.5,0.7l-1.6,0.7l-1.9,0.6l-0.5,0.2l-0.7,1.7l-0.5,0.4l-0.9,0.1l-0.8,0.1l-0.7,0.3l-0.9,1.1l-1.1,0.5l-0.9,0.2l-2.4,1.7
	l-2.6,0.8h-0.7l-1.1-0.3h-0.6l-0.9,0.3l-2.4,0.5l-0.9,0.3l-0.9,0.8l-1.3,1.3l-0.5,1.2l-0.7,1.8l-0.6,1l-2.1,2.2l-1,1.5l-0.7,0.7
	l-0.7,1.5l-1.2,1.6l-0.4,3.2l-0.6,2.2l-0.2,0.7v1l0.2,0.8l2.1,3.7l1.8,2.8l0.7,0.9l0.9,0.4l1,0.7l1.1,1l3.9,5.3l0.7,0.5l2.9,2.7
	l0.3,2.3l-0.4,1.1l1.7,3.2l2.2,6.5l-1.1,1.4l-0.8-1.2l-0.4-0.2l-0.5,0.1l-2.8,1.6l-0.5,0.3l-1.3-0.1h-2.5l-0.6-0.3l-0.9-0.7
	l-0.5-0.1l-1.1-0.1l-0.7-0.2l-1.1-0.2l-1.5,0.2l-1,0.4l-1.2,0.7l-3.2,3.8l-2,1.4l3.7,2.2l2.9,2.7l1.4,0.8l1.2,1.1l0.4,3.8l0.7,1.4
	l1.2,1l0.4,0.4l0.3,0.5l0.2,2.4l0.1,0.6v0.8l-0.7,1v1l0.5,0.9l0.9,0.4l2.6,0.5l1.1-0.1h0.5l0.3,0.4l0.1,1.3l0.3,1.4l0.9,1.4l2,2
	l1.7,2.3l-1.6,2.6l-0.7,2l-0.7,1.2l-1.8,5.6l-0.8-1.8l-0.1-2l0.8-2l-1.9-0.8l-5.6-0.3l-2.2-1.2l0.4-1.1l-0.6-0.8l-0.9-0.7l-0.7-0.7
	l-1.1,1.6L577-58l-2.3-0.6l-1.9-0.8l0.8-0.6l-0.9-0.8l-2.8-1.6l-1-1.3l-1.8-2.8l-1.2-0.8l-2.6-0.1l-0.5-0.6l-0.1-1.9l-0.5-0.7
	l-1.3-0.7l-1.5-0.5l-1.3-0.1l-0.7,0.2l-0.6,0.4l-0.6,0.2l-0.9-0.4l-0.3-0.6l-0.5-1.8l-0.3-0.4l-2.2-0.2l-1.1,0.1l-1.1,0.6l-0.7,1
	l-0.4,0.4H548l-0.7-0.2l-0.6-0.5l-0.4-0.6l-0.6-2.2l-1.1-1.2l-2.1-1.4l-0.6-0.5l-0.4-0.6l-0.4-0.6l-0.1-0.9l-0.2-0.5l-0.5-0.5
	l-1.1-0.6l-0.3-0.1H538l-0.4-0.1l-0.3-0.4l-0.3-1l-0.3-0.5l-0.8-0.5H535l-0.9,0.3l-0.9,0.5l-1.3-1.8l-0.5-0.6l-2,0.3l-0.4-2.6l1-6.1
	l0.8-2.7l-0.2-1.1l-0.8-1.1l-1.8-1.6l-0.6-1l-0.2-1.4l0.3-1.3l0.5-1.5l0.3-1.4l-0.4-1.2l-2.3-2.1l-0.6-0.9l-0.6-1.3l-0.3-1.4v-3.2
	l0.1-1.5l0.4-0.9l0.7-0.5l2.4-1.2l0.8-0.6l0.4-1l0.2-1.8l-0.3-0.6l-0.9-0.5l-0.2-0.2l-0.9-2.1l-0.6-0.8l-0.8-0.7l-2-0.4l-0.5-0.2
	l-1.3-0.9l-1.1-0.4l-0.8-0.8l-0.3-1.9l0.2-1.5l0.9-2.2l0.5-2.4l0.5-0.9l3.5-7l1.1-1.3l0.8-1.2l0.4-1.5l0.4-3.1l1.2-2.5l3.9-2.7
	l1.3-2.3l0.2-1.5l-0.2-4.4l0.5-5.8v-1.4l-0.2-0.6l-1.1-3.1l-0.1-0.8l0.3-1.6l0.6-1.3l0.3-1.2l-0.3-1.3l-0.6-0.8l-0.8-0.7l-0.6-0.9
	l-0.5-2.8l-0.5-1l-1.5-1.8l-2.8-2.6l-0.6-0.9l-0.2-1.1l0.4-0.5l1.7,0.9l5.1,1.7l6.5,2.7l5,1.7l3.3,0.8l3.4,0.5l4.6,0.4l4.5-0.2
	l2.6-0.4l-1,0.8l-3.3,0.6l-6.5-0.2l-1.5-0.3h-0.7l-0.8,0.3l-0.2,0.6l0.1,0.8v0.7l-0.6,0.3l-0.3,0.9l0.8,2l1.6,3.2l-1-0.6l-1-1
	l-0.9-0.7l-0.7,0.8l-0.5-0.6H545l-1-0.5l-0.5,0.3l-0.5,1.1l-0.4,1.4l-0.2,0.9v2.1l0.1,1l0.4,0.5l0.9-0.3l0.4-1.1l0.3-1.2l0.7-0.8
	v0.8l0.2,0.4l0.5,0.3h0.7l-0.1,0.7l0.1,2.6l1,0.4h1.1l0.8-0.6l0.3-1.2l-0.7,0.4l-0.6-0.1l-0.4-0.7l-0.2-1l0.3-0.9l0.5-0.7l0.4-0.5
	l-0.2-0.8l1.3,0.3l0.9,0.9l0.4,1.3l0.3,3.3l0.6,0.8l1,0.2l2.7-0.2l0.5-0.1l0.6-0.3l1.3-1.3l0.3-0.2l0.1-0.6l2-3.6v-0.5v-1.9l0.7-1.5
	l0.4-0.9l0.9-1.1l0.2-0.4l0.5-2.6l0.7-1.5l4.2-6.2l0.2-0.5l-0.2-0.8l-1-1.2l-0.2-0.6v-0.8l0.4-1.1l0.1-0.7l-0.2-0.7l-0.6-1.2
	l-0.2-0.7l0.2-0.2l0.6-0.6l0.1-0.8l-0.4-0.4l0.1-0.8l0.4-0.6l0.9-1.3l0.9-0.9v-0.7l0.9-1.7h1.1l0.8,0.2l0.5-0.4l-0.1-1.6h0.5
	l0.1,0.4l0.4,1l0.7-1l0.1-0.4l0.5,0.4h0.5v-1.4l0.6,0.6l0.5,1l0.8,0.3l0.6-0.3l0.6-1.2l0.6,0.6h0.5l0.1-0.5l0.3-0.2l0.9-0.3l1.7,0.2
	l1.3,0.5l1.1,0.8l1.2,1.1l0.5,0.2l3.1,0.7l2.2,1.3l2.6,0.8l8.1,0.6l7.6-0.6L612.3-211.6L612.3-211.6z"/>
<path id="COL1417" class="st0" d="M459.8-110.4l0.5,0.1v0.4h-1.2l-0.7,0.1l-0.2-0.4l0.5-0.4L459.8-110.4L459.8-110.4z M529-7
	l0.1-3.8l-0.4-1.1l-0.8-0.9l-0.9-0.6l-1.5-1.5l-1.9-3.1l-2.5-1.9l-1.4-1.2h-0.9l-1.5,0.1l-3.7,1.3l-2.9,0.9l-7.1,3.5l-2.5-2.6
	l-2.2-1.5l-2.8-1.3l-0.7-0.7l-0.5-0.9l-0.4-1.2l-0.4-3.4v-2.9l-1.3-4.4l-0.2-1.4v-1l0.4-1.8l-1.3-4.2l0.2-2.7l0.5-0.6l1.3-1l1.3-1.4
	l1-0.7l0.7-0.3l1-0.1l3.4-0.9l0.7-0.5l0.3-3.3l0.5-0.8l-0.2-0.4l-1.2-1.8l-0.2-0.5l0.6-1.3l-2.9-2.1L487-66.4l-1.9-2.9l-0.5-2.9
	l-1.1-0.7l-1.4-0.1l-0.3-0.1l-0.3-0.6l-2.5-0.6l-1.2-1.3l-0.9-1.3l-3.6-1.7l-2-0.5l-0.6-0.4l-1.8-0.7l0.1-4.2l1.7,0.4l0.9-0.6
	l2.6-2.3l1.6-3.1l1.3-4.4l0.1-4l-0.8-1.8l-0.8-1l-0.5-0.5l-0.7-1.3h-1.1l-0.9-0.7l-0.7-0.4h-1.4l-0.8,0.4l-0.8,0.6l-0.2-0.7l3.8-3.8
	l0.6-1.8l1.1-3.8v-1.6l0.4-1.4l0.9-1.9l0.7-2.3l0.3-1.4v-1.4l0.9-3.9l0.1-2.2l-0.5-1.2l6.5-3.5l-3.1,5.5l-0.4,1l0.2,0.7l0.7,0.3
	l0.9,0.1l1.2-0.4l1.1-0.1l0.1,2.3l0.1,0.9l0.6,1.2v0.7l-0.2,0.6l-1,1.4l-0.2,0.6l0.5,0.7l1.5,0.8l5.4,1.8l0.9,0.2l0.9-0.5l1.4,0.1
	l0.1,1l-0.5,1.1l-0.5,2.2l0.3,1.6l-0.2,1.1l-0.7,2.1l-0.3,1.3l-0.1,1.2l-0.1,1l-0.5,0.8l-0.7,3l1.3-1.1l1.4,0.5l1.1-1l0.5-0.5
	l0.9-0.4l1,0.1l1.2,0.4l2,1.4l0.9,0.1l0.8-0.2l0.8,0.1l1,0.4l2.7,2.2l1.4,1.8l2.9,2.5l0.8,0.6h1.9l2,0.6l-1.4,3.2l0.2,0.6l0.4,0.5
	l1.1,0.4l1.3,0.3l1.6-0.4l0.8-0.4h0.5l0.6,0.9l1.4,1l0.6,0.3l0.3,0.5l-0.3,0.4l-0.9,1.4l-1.4,3.2l-0.2,0.6l0.6,0.9l-0.3,1.3v0.8
	l0.3,1.3l0.9,1.9l0.7,2.9v0.9l0.2,1l0.3,0.6l0.7,0.6l0.6,0.3l1.2,1l1.3,2.5l1.2,2.5l2.9,1.8l1.9,0.8l6.4,4.9l3.2,3.5l3.4,5.2
	l0.9,0.9l0.4,0.7v0.5l-0.9,0.9l-0.9,1.6l-1.7,1.5l-0.6,1.4l1.2,7.9l0.7,2l0.8,0.8l-0.1,0.3v1.5l0.2,2l0.6,2.3l0.1,1.2l-0.2,0.8
	l-0.9,2.6l-0.5,0.8l-1.1-0.1l-0.6-0.2h-0.3l-0.2,0.6l-0.2,1.7l-0.7,1.6l-1,1.1l-1.4,1l-1.6,0.5L535.6-9l-2.2-0.2L532.7-9l-1.4,1.2
	l-0.6,0.4L529-7L529-7z"/>
<path id="COL1420" class="st0" d="M890.1,139.2l-6.7,4.1l-2.7,0.5l-14.3-0.5l-2.1,0.5l-2,1.2l-0.6,0.7l-2.2-0.9l-1.1-1.4l-0.1-1.1
	l-0.2-0.7l-0.5-0.6l-1.6-1.3l-1.3-0.7l-4.5-1.7l-0.8-0.7l-0.6-1.5l-0.4-0.7l-0.5-0.5l-2-1.2l-0.5-0.5l-0.8-1.1l-0.6-0.5l-2.2-1
	l-0.9-0.2l-1.7-0.2l-2.4,0.1l-1.9,0.2h-1.8l-1-0.1l-2.1-0.7l-1.4-0.1l-1.7,0.2l-4.7,1.7l-2.8,1.4l-1.4,0.4l-2.5-0.1l-3.5,0.3
	l-5.2,0.9h-3.7l-0.4-0.3l-2.6-1.1l-1.2-0.2l-1.4,0.2l-1.4,0.3l-1.5,0.6h-0.7l-6.4-0.4l-4.9-1.8l-2.2-0.4l-3.6,0.1l-1.6-0.2l-2.1-0.8
	l-2.3-0.4l-1.3,0.9l-1.1-0.1l-1.1,0.2l-0.8-0.2l-0.8,0.2l-1.6,1l-2.4,1.1h-2.1l-1.3,0.2l-1,0.4l-1,0.4l-2.6,1l-1.7,0.2l-1.5-0.2
	h-1.2l-2,0.5l-1-0.2l-1.8-0.9l-0.7-0.2l-1,0.1l-1.5,0.6h-5.1l-1.7,0.4l-7.3,2.7l-2.1,0.1l-1.2-0.1h-1.4l-1.4,0.3l-3.8,1.8l-3.7,0.9
	l-3.8,2.8l-1.1-0.1l-1.7-0.3l-2.1-1.5l-2.7-1.3l-1.2-0.8l-0.9-0.8l-1.7-3.2l-2.6-2.7l-1.5-2.5L694,128v-0.6l0.2-0.9l1.7-2.8l1.8-1.6
	l0.5-1.6v-0.9l0.4-0.7l0.6-0.6l0.6-0.4l0.6,0.1l0.7,0.6l0.6,0.1l0.5-0.4l0.7-0.7l0.6-0.9l0.6-0.5l0.8-0.2l0.9-0.1l1.2-0.5l0.8-1
	l0.6-1l0.7-2.4l1.6-12.8l0.5-1.2l1.5-0.7l1.3-1.7l0.8-2.9l1.4-2.5l2.5-6.5l0.7-1.4l0.6-1.9l5.5,1.3l2.2,0.2l1.1-0.2l0.7-0.4l0.7-0.6
	l0.8-0.5h0.8l0.7,0.1l0.4-0.2l-0.2-1.2l2-0.1l1.6-0.3l1.5-0.1l2,0.5l-0.3-1.1l0.4-0.5l0.9-0.1l2.3,0.1l0.5,0.4l0.4,0.5l0.8,0.6h0.4
	l0.5-0.1l0.9-0.6l0.6-0.1l0.3,0.3l0.4,0.6l1.3,0.1l0.1-0.2l1.2-0.3l1.5,0.4l1.3,1.1l0.8-0.3l1.8-0.8l1-0.2l1.1,0.1l2.2,0.6l1.1,0.1
	l2.8-0.5l1,0.1l0.6,0.4l0.2,1.7l0.3,0.7l0.9,0.4h3.3l0.8,0.4l0.5,0.5l0.7,0.1l1.2-0.3l0.8-0.6l0.6-0.7l0.6-0.4l4.8,0.6l3.6-0.5
	l3.4-1.2l2.8-2.1l0.7-0.9l0.3-0.7l0.6-0.3l1.4-0.1l2.5-0.8l3-0.3l4-0.9l2-0.1l0.4,0.3l1,0.8l0.6,0.2l2.3,0.5h1.1l1.9-0.6l1.1-0.2
	l0.5,0.4l3.4,4.4l0.6,0.4l1.1,0.2l0.7,0.1l1.6-0.3l0.6,0.1l0.3,0.2l0.6,0.8l1,0.3l7,3.4l2.1,0.1l3.8-2.2l2.5-0.6l2.5-0.1l1.9,0.5
	l2.2,1.9l21.5,27.3l5.1,6.5l17.3,21.8L890.1,139.2L890.1,139.2z"/>
<path id="COL1421" class="st0" d="M718,78.9h-2.7l-1.3-0.7l-1.3-0.5l-1.9-0.5l-5.5-0.1l-1.4,0.5l-0.4,0.4l-0.3,0.6l-0.2,1l-0.5,0.6
	l-0.6,0.6l-0.6,0.4l-0.7,0.2l-0.4-0.3l-0.5-1.3l-1.5-0.4l-1.2,2.4l-0.7,1.9l-0.7,1l-0.8,1l-1.8,1.7l-1.2,0.7l-1.2,0.2l-1.5-0.3
	l-3.8-2.1l-1.7-0.3l-0.5,0.9l-0.6,0.7l-0.4,0.3l-1.3,0.1l-0.3-1.8l0.3-2l-0.1-1.1l-0.2-1.6l-0.3-0.7l-0.3-0.6l-1.1-0.2l-0.9,0.1
	l-0.7,0.3l-1.9,0.4l-1.5-0.3l-0.3,0.1l-0.5,0.9l-0.5,0.5l-0.2-0.2l-0.3-1l-0.3-0.7l-0.5-0.2l-0.9,0.1h-0.8l-0.4,0.1l-1.6,0.8
	l-1.8-1.5l-0.8-0.5l-0.7-0.8l-0.5-0.3L662,77l-1.5-0.2l-1.8-0.8l-0.3-0.2l-0.4-1l2.5-3.9l0.8-1.2l0.5-0.9l-0.4-1.2l0.1-1l-0.2-0.9
	l-0.7-0.3l-0.4-0.3l-0.7-1l-1.2-1.7l2.5-3l0.1-3.8l-0.9-0.4l-0.1-0.6l-0.7-0.8l-2-3.1l-0.4-1.3l0.2-0.9l-0.2-1l-4.8-3.8l-0.6-1
	l-0.3-0.9l-0.5-2.2l0.1-0.7l0.2-0.7l-2.4-0.5l-1.3,0.4l-0.7,0.5l-1-0.3l-1.6-0.1l-0.7-0.3l-0.7-0.1H641l-2.1-0.3l-1.3,0.1l-1-0.4
	l-0.8-0.1l-0.5,0.1l-0.6,0.5l-1,1.6l-0.7,3.1l-0.2,0.5l-3.2-0.3l-2.2,0.1l-1.3-0.2l-0.7-0.2l-0.3-0.7l-1.2-0.7l-3.7-0.5l-1.3-0.3
	l-1-0.4l-1-0.6l-0.5-0.5l-0.8-1.3v-0.6l-0.2-0.4l-1.7-1.9l-1.6-1.4l-1.6-0.8l-1.2-1l-1-1.2l-0.7-0.7l2.5,0.5l0.7,0.3l0.5,0.3
	l0.8,0.9l0.5,0.5l1.3,0.3l0.5,0.3l1.3,1l0.7,0.3l0.6,0.1l0.8-0.2l2.1-1l1.3-0.9l1-0.9l0.7-0.9l0.8-0.8l0.6-1l1.5-2l0.3-0.6l0.2-0.7
	l0.1-1.4l-0.2-2.4l0.3-1.2l0.3-0.8l0.5-0.4l1.2-0.5l0.8-0.6l0.6-0.7l0.9-1.2l0.2-0.9l0.1-0.9l-0.2-0.9l-1.1-0.5l-0.9-1.2l-2.9-0.3
	l-0.9-1L624.8,9l0.1-1.7l-0.1-1.1l-1-2.3l-0.9-0.6L622.6-2l0.2-1.5l0.5-1.4l0.8-1.3l0.5-2l1.1-2.4l0.9-4.3l-0.2-3l-0.5-0.4l-0.7-0.5
	l-1.6-0.2l-0.9-0.1l-0.6,0.1l-0.3,0.8l0.3,1.1l0.5,1.1l0.4,2.6l-2,1.6l-1,1.5l-0.3,0.2l-0.7-0.6l-0.2-1.6l-1-0.7l-0.4-0.3l-1-0.4
	l-1.5-0.2l-0.1-0.3l0.1-0.5l1.6-1.8l0.8-2.9l-0.5-0.9l-0.4-0.2l-1.3-3.1l-1.9-2.7l-0.7-1.7v-1.4l0.2-0.9l0.4-0.8l0.9-1.4l1-0.9
	l2.4-1.9l0.7-0.7l0.2-0.5l-0.2-1.1l0.2-0.5l0.4-0.4l1.7-1.1l1-0.9l0.3-0.7l-0.1-0.7l-0.5-1.6l-0.9-3.4l0.5-1.9v-0.5l-0.3-2.7
	l0.9-9.4L621-64l1.3-2.3l0.6-0.3l3-0.7l7.4-0.2l2.8-0.3l2.4-1.2l2.3-2.2L642-72l1.7-0.5l1.5-0.9l2.9-2.7l1.6-0.1l0.4,0.6l0.8,2.4
	l-0.3,0.9l0.3,0.6l0.8,0.9l0.2,1.7l-0.1,2.8l0.3,1.5l1.2,1.7l1.3,0.3l1.4-0.5l2.3-1.5l0.5-0.3l0.8-0.3l0.8,0.1l0.6,0.2h0.5l0.5-0.6
	l1.3,1.2l1.1,0.7l0.3,0.8l-0.9,1.6l1.1,1.3l4.2,16.1l3,11.7l1.4,2.3l6.5,7.1l6.9,7.4l0.8,0.7l1.3,0.4l0.6,0.4l0.8,0.8l0.7,1l0.4,1.2
	l0.2,1.1l-0.1,1.1L691-6.6l-0.1,1.1l0.4,1.6l2.2,4.2l1.5,4.6l0.1,2.6L694,9.1h-1.1l-1.5-0.3L690.2,9l-0.7,1.2l-0.3,1.3l-0.6,1.1
	l-0.8,0.9l-1,0.9l-1.4,0.6l-0.6,0.4l-0.3,0.8l0.3,0.6l1.4,1.7l0.5,0.7l0.3,1.2l0.2,2.9l-0.2,1.2l-1.3,4.2l-0.6,7.1l0.2,1.4l0.9,2.6
	l0.2,1.3l-0.3,1.5l-0.5,1.4l-0.5,1.4l0.3,1.6l1.8,3l2.5,1.8l2.9,1l3.3,0.6l5.5-0.1l2.3,0.6l2.3,3l0.4,0.3l0.1,0.3l-0.6,2.8l-0.1,0.6
	l0.2,2l0.5,1.9l0.7,2l3.7,7.1l1.2,1.4l0.8,0.5l1.8,0.8l0.9,0.6l1.6,1.3L718,78.9L718,78.9z"/>
<path id="COL1422" class="st0" d="M861.7,145.7l-1.4,1.5l-1.5,2.3l-4.8,11l-1.1,1.9l-2.9,3l-0.3,0.9l-2.3,3.6l-1.6,1.6l-2.1,1.6
	l-2.2,1.4l-2,0.9l-2.8,0.6l-5.3,0.2l-2.5,0.5l-4.2,1.7l-1.5,0.2l-1.4,0.5l-4.3,3.2l-4.5,2.4l-1.4,1.1l-1.2,0.8l-2.9,1.2l-1.1,1
	L806,190l-0.2,3.2l-0.6,0.7l-1.1,0.4l-11.8,10.3l-1.2,0.6l-2.6,0.7l-1.1,1.2l-4.5,10.7l-1.4,2l-0.8,0.7l-1.8,1.7l-0.9,0.4l-0.9,0.2
	l-1.1,0.5l-1.9,1.1l-3.2,2.6l-0.6,0.5l-4,0.6l-19.5,8.4l-5.3,3.7l-2.8,1.4l-6.1,1.8l-0.8,0.1h-0.7l-0.7,0.1l-0.7,0.5l-5.3,5.7
	l-5.1,4.3l-2.6,1.6l-2.5,0.7l-1.4-0.4l-0.7-1l-0.6-1l-2.5-1.6l-0.8-0.3h-0.7l-10.8,2.4l-0.9,0.4l-2.9,4.5l-1.5,0.4l-1.7-0.3
	l-1.3-0.9l-3.2,1.8l-1.6,0.5l-0.7-1.1l-0.4-0.4l-0.8-0.4l-1-0.3l-0.8-0.1l-0.4,0.4l-1.4,2.7l-0.6,0.2l-0.8-0.7l-0.5-0.3l-0.6,0.5
	h-0.5l-2.6-0.4l-0.6-0.1l-0.6,0.3l-0.9,0.8l-0.4,0.3l-0.7,0.1l-0.5-0.1l-1.5-0.9l-0.4-2.4l-0.5-0.2l-1.1,0.2l-0.5-0.1l0.2-1.4
	l-0.4-0.6l-0.1-0.4l-0.2-0.6l-1.1-1.3l-0.3-0.8l-0.6-0.3h-1l-6-6.4l-4.6-8.4l-3.1-3l-0.4-0.7l-0.4-2l0.2-1.2l-1.3-4l0.2-1.3l1.1-2.9
	l0.2-3.1l1.1-4.4l0.3-0.6l1-0.1l2.5,1.1l1.6-1.8l1.1-1l0.4-0.8l0.4-1.5l1-1.9l-0.5-0.9l-1.6-1.3l-0.7-1.2l-0.3-0.9v-1l0.3-1.5
	l0.4-0.9l0.5-0.6l-0.2-2.4l0.5-0.6l3.8-5.2l1.1-1.3l1-0.9l0.8-0.4l1.5-1.3l1.4,0.6l0.5,0.6l1.6,2.4l1.3,1l1.9,2.5l1.3,0.1l3.9-3.5
	l2.8-1.6l0.9-1.5l1.5-2.5l7.4-8l1.6-1.8l0.8-0.4h0.7l0.4,0.3l0.4,0.6l0.6,1.1l0.5,0.5l1.5,1.1l0.8,0.6l0.6,0.1l0.5-0.4l0.9-4.7
	l0.6-1.3l0.9-0.8l0.5-1.7l0.3-1.2l0.3-0.7l0.5-0.5l0.5-0.2l1-0.9l-1.6-1.3l-1.5-2.2l-1.4-1l-0.5-1.6l-2.7-2l-6.4-3.4V156l0.4-0.5
	l0.6-0.6l1.1-0.4l1.5-0.3l0.3-0.5l1.5-5l0.6-3.4l0.9-1.8l0.2-1.3l-2-2.1l-0.4-0.8l-0.3-0.9l-0.4-0.9l-0.4-1.6l-0.4-0.5l-1-0.5
	l-0.2-0.5l0.1-0.7l1.3-4.3l2.8-4.5l2.2-1.2l-1.7,2.8l-0.2,0.9v0.6l0.3,1.7l1.5,2.5l2.6,2.7l1.7,3.2l0.9,0.8l1.2,0.8l2.7,1.3l2.1,1.5
	l1.7,0.3l1.1,0.1l3.8-2.8l3.7-0.9l3.8-1.8l1.4-0.3h1.4l1.2,0.1l2.1-0.1l7.3-2.7l1.7-0.4h5.1l1.5-0.6l1-0.1l0.7,0.2l1.8,0.9l1,0.2
	l2-0.5h1.2l1.5,0.2l1.7-0.2l2.6-1l1-0.4l1-0.4l1.3-0.2h2.1l2.4-1.1l1.6-1l0.8-0.2l0.8,0.2l1.1-0.2l1.1,0.1l1.3-0.9l2.3,0.4l2.1,0.8
	l1.6,0.2l3.6-0.1l2.2,0.4l4.9,1.8l6.4,0.4h0.7l1.5-0.6l1.4-0.3l1.4-0.2l1.2,0.2l2.6,1.1l0.4,0.3h3.7l5.2-0.9l3.5-0.3l2.5,0.1
	l1.4-0.4l2.8-1.4l4.7-1.7l1.7-0.2l1.4,0.1l2.1,0.7l1,0.1h1.8l1.9-0.2l2.4-0.1l1.7,0.2l0.9,0.2l2.2,1l0.6,0.5l0.8,1.1l0.5,0.5l2,1.2
	l0.5,0.5l0.4,0.7l0.6,1.5l0.8,0.7l4.5,1.7l1.3,0.7l1.6,1.3l0.5,0.6l0.2,0.7l0.1,1.1l1.1,1.4L861.7,145.7L861.7,145.7z"/>
<path id="COL1423" class="st0" d="M780.5,358.8l1.5-0.3l1.2,0.7l1.2,0.2l1.3,0.3l0.2,0.5l-0.2,1.4v0.6l0.4,0.3l0.4-0.2l0.3-0.6v-0.9
	l-0.2-1l0.2-0.8h0.5l1.2,0.8l0.8,1.3l0.6,0.4l0.4-0.4l-0.1-0.9l0.4-0.6l0.6-0.1l0.9,0.8l0.1,0.9l-0.1,0.7l0.1,0.4l1.7-0.8h1l1.1,0.7
	l0.8,1.4l0.6,0.3l1.1-0.2l1-0.5l0.9-0.6l0.8-0.2l0.5,0.1l0.3,0.5v0.8l0.2,0.7l0.4,0.1l2.8-2.2l0.4-0.6v-0.6l-0.2-0.8l-0.4-0.7
	l-0.1-0.6l0.2-0.4h0.7l0.6,0.5l1.7,2h0.5l0.8-0.9l1.4,0.1l1.1,0.2l6.3,3.8l-26.6,11.1l-0.9,0.6l-0.1,0.6l0.7,0.7l3.8,1.2l3.4,1.8
	l1.6,0.4l1.5,0.8l1.4,1.5l3.3,4.7l2.8,5.4l0.8,2l0.9,0.9l1.3,0.9l3.4,0.9l1.4,0.4l0.4,0.1l0.7,0.3l0.5,0.7l0.1,1.4l2.5-0.4l0.5-0.3
	l1.8-0.6h1l3.6,1.2h0.8l1.6,0.9l0.9,0.4l0.7-0.3l0.2-0.6l-0.1-0.6l0.1-0.4l0.4-0.2h1.2l1.2-0.4l0.8-0.1l0.9,0.7l0.7,0.2h1.6l2-0.6
	l0.7-0.1l0.5,0.1l0.4-0.1l0.3-0.7l0.8-0.2l2,0.1l1.1-0.3l0.8-0.6h0.7l1,0.7l1.1,1.9l1.4,1.5l0.3,0.5v0.4l-0.3,1l-1.7,1.1l-0.6,0.7
	l-2.6,1.6L845,409l-0.1,1.4l-2.9,2.1l-1.6,1.5l-0.8,0.6l-1.2,0.6l-3.9,0.4l-3,0.8l-2.3,0.8l-1.4,0.1h-1.2l-0.7,0.3h-1.1l-2.7,0.4
	l-1.2,0.6l-1,1l-0.6,0.5l-0.9,0.4l-2.5,0.5l-1.4,0.6l-4.5,1l-2.1,1.1l-1.2,0.2l-1,0.1l-0.9-0.1l-0.8-0.3l-0.6-0.4l-1.5-0.4L801,423
	l-2.5-0.3l-6.2,0.2l-1.1-0.2l-0.5,0.3l-1,1.4l-2.8,2.7l-1.7,1.2l-2.2,1.2l-3.5,1.2l-5.5,3l-3.2,2.3l-1.2,1.3l-1.4,1.2l-1.2,0.7
	l-1.2-0.2l-0.7-0.2l-1.3-1.4l-2.3-0.9l-1.9-1.5l-1.1,0.3l-0.3,5.6l-0.3,1.9l-0.4,1.5l-1.8,2.3l-0.6,1.1l-0.6,2.3l-1.4,3.3l-0.8,1.5
	l-0.4,1.7l-0.5,1.9l-3.1,7.3l-0.5,0.6l-0.2,1.3v1.5v0.9l1,1.7l0.2,0.6l0.8,1.3l0.5,1l0.6,0.7l0.3,0.9l-0.2,0.6l-0.7,0.2l-0.8-0.3
	l-0.5-0.6l-0.2-0.8l-0.3-1.4l-0.3-0.3l-0.4,0.1l-0.4,0.4l-0.1,0.9l0.1,0.7l-0.1,0.5l-1-0.2l-0.5,0.3l-0.2,0.6v1.5l-0.1,0.6l-0.8,1.7
	l-0.7,1l-1.3,0.9l-3,3.2l-0.8,0.2l-0.7-0.1l-0.9-0.3l-1-0.2l-1.3,0.3l-0.9,0.8l-1,1.5l-0.5,1.2l-0.5,0.9l-2.1,2.2l-2,1.6l-12.7,13.2
	l-2.8-0.3l-0.6-0.4l-0.4-1.4l-0.4-0.6l-0.5-0.4l-3.1-1.1l-1.2-0.3l-4.6-0.3l-0.5-0.6l-1.2-2.7l-0.6-0.6l-1.9-0.6l-0.7-0.7l0.1-1.1
	l0.3-1.2l0.1-1l-0.5-1.4h-0.5l-0.5,0.5l-0.7,0.2l-0.7-0.3l-0.3-0.4l-0.2-2.1l-0.5-1.3l-0.9-0.3l-1.1-0.1l-0.7-0.5l-0.4-0.9l-0.2-1.1
	l-0.1-2.1l-0.3-1.2l-0.7-1.1l-3.1-2.9l-0.9-0.4l-2.2-0.3l-1.7-0.5l-5.5-3.6l-1.9-1.7l-1-0.6l-2.2-0.9l-2.4,0.5v0.6l-1.5,2.3l-1-0.8
	l-0.9-1.2l-1.1-0.7l-0.8-0.3l-0.5,0.2l-0.2,0.6l-0.3,0.3l-1.2,0.3l-0.5,0.2l-0.9,1.1l-0.2,0.7l-0.2,1.1l-0.5,1.2l-0.2,0.7l0.3,1.3
	v0.8l-0.3,0.9l-0.4,0.8l-0.9,0.6l-2.1,0.9l-1,0.9l-1.4,1.5l-1.5,1.2l-1,1.6l-1.5,1l-1,0.4l-1,0.1h-1.3l-3.6-1.1l-1.4-0.9l-1.3-0.9
	l-0.7-1l-0.4-1l-0.4-0.8l-0.8-0.5l-2.5-0.8l-1.8-2.3l-6.8-6l-3.4-3.9l-0.2-1.6l-0.1-1.5l-0.1-0.9l-0.8-2.2l-0.6-1.1l-1-1.2l-1-1.9
	l-1-1.1l-3.4-2.6l-1.1-1.1l-6.8-10l-0.1-0.9l-0.5-1.8l0.9-1.2l0.2-32.5l-0.1-8.6l0.3-2.7l0.5-0.6l0.6-1.2l0.9-1.3l0.1-0.6l-0.2-0.5
	v-0.7l0.6-0.6l0.8-0.5l0.5-0.3l0.4,0.1l0.1,1.1l0.4,0.5h0.5l0.8-0.2l2-1.2h0.4l0.3,0.3l0.7,1.3l0.3,0.4l2.2-0.3l0.6,0.2l0.5,0.4
	l0.4,0.1l0.3-0.5l0.4-2.1l0.8,1.5l-0.1,0.8v0.8l0.2,0.5l0.3,0.1l1-0.9h1.2l0.5,0.3l0.3,0.6l0.4,0.1l0.6-1.2l0.3-0.5h0.8l0.4,0.4
	l-0.1,0.9l0.2,0.4l0.5-0.1l0.7-0.9l0.6-0.2l1.7,0.6l1.1-0.3l1.7-0.1l0.6-0.4v-0.6l-0.4-0.5v-0.4l2.2-1.1l1.1,0.5l1.7-0.3l0.4,0.2
	l0.4,1l0.5,0.4h0.6l0.7-0.3l0.3-0.5V391l0.4-0.3l0.5,0.2l0.9,0.6l0.5-0.1l1-0.9l1.3-1.1l1.1-0.3h0.6l0.4,0.4l0.7,0.1l0.9-0.6
	l1.4-1.1l1.2-0.6l0.4-0.7l0.6-0.5l1.5-0.3l0.2-0.6l-0.3-0.7l-0.7-0.7l0.3-1.1l1.2-0.6l0.4-0.8l0.5-0.9l5.8-3.3l1.3-0.4l0.7,0.1
	l0.7,1l0.6,0.4l0.6,1l1.7,0.4l0.9-1.1l0.6-1.4l0.8-0.7l2.2-0.5l0.8,0.4l0.5,2.3l0.2,0.5l0.4,0.3l0.7-0.2l0.5-2.8l0.9-0.9l0.7,0.4
	l1.1,1.9l0.5,0.4v-1.9l0.2-1.4l0.8-0.8h1.7v-0.5l-0.8-0.5l-0.5-0.6l0.1-0.7h0.5l0.5,0.3l1.4,0.2l0.8,0.2l1.5-1.3l0.6-0.3l2.4-0.1
	l1.2-0.3l1.1-0.6l2.6-2.3l1.2-0.1l2.6,1.5l0.4-1.4l0.6-0.9l0.8-0.1l1,1l0.8,2.3l0.3,0.4l0.3-1.3l-0.1-1.4l-0.1-0.7l0.2-0.5l0.9-0.6
	l0.9-0.5l0.9-0.2l0.9,0.1l0.1-1.6l-0.2-1.2l-0.1-1.3l0.3-0.9l0.8-0.4l2.6-0.5l1.4-0.4l1,0.3l0.9,1.6l1,0.8l1.5,0.4l2.6,0.2l0.8,0.7
	l0.3-0.3l0.5,0.8l0.9,0.1l0.9-0.3l1.3-0.3l0.2-0.2l7.2-1.4l1.4-0.7l0.7-0.8l0.9-0.5l0.6,0.1l0.4,0.5l0.5,2l0.7,0.4l0.6-0.7l0.2-1.2
	v-2.1l0.3-0.4l0.6,0.1l2.5,2.4l0.9,0.3l0.8-0.4l1.1-1.1l0.4-0.1l0.2,0.4l-0.1,1.9l0.3,0.7l1.4,0.2l2.9-1.3l0.7-0.7l0.5-0.7l0.8-0.2
	h0.9l1.7-0.2l1.4,0.2l1.5,0.5l0.8-0.3l0.9-1.3h0.5l2.3,1.4l1.3,0.6l0.8-0.1l0.5-1.4l0.4-0.5l0.6,0.1l1.2,1.1l0.6-0.2l0.4-0.6
	l0.4-1.8l0.4-0.6h0.6l0.6,0.5l0.3,1l0.5,0.8l0.6,0.4h1.1l0.7,0.2l0.8,0.5h0.7l0.8-0.2l2.3-1.8l0.6,0.1l0.7,0.5l0.7,0.6l0.7,0.2
	l0.7-0.4l0.4-0.5l0.6,0.2l1.4,0.7L780.5,358.8L780.5,358.8z"/>
<path id="COL1424" class="st0" d="M862.6,436.9l-2.4-1.3l-3-0.9l-3.2-0.2l-2-0.8l-3.4-1.7l-7.2-6l-0.4-1l0.1-1.2l2.9-7l0.7-3.5
	l0.2-2.9l0.1-1.4l2.1-1.7l2.6-1.6l0.6-0.7l1.7-1.1l0.3-1v-0.4L852,402l-1.4-1.5l-1.1-1.9l-1-0.7h-0.7l-0.8,0.6l-1.1,0.3l-2-0.1
	l-0.8,0.2l-0.3,0.7l-0.4,0.1l-0.5-0.1l-0.7,0.1l-2,0.6h-1.6l-0.7-0.2l-0.9-0.7l-0.8,0.1l-1.2,0.4h-1.2l-0.4,0.2l-0.1,0.4l0.1,0.6
	l-0.2,0.6l-0.7,0.3l-0.9-0.4l-1.6-0.9h-0.8l-3.6-1.2h-1l-1.8,0.6l-0.5,0.3l-2.5,0.4l-0.1-1.4l-0.5-0.7l-0.7-0.3l-0.4-0.1l-1.4-0.4
	l-3.4-0.9l-1.3-0.9l-0.9-0.9l-0.8-2l-2.8-5.4l-3.3-4.7l-1.4-1.5l-1.5-0.8l-1.6-0.4l-3.4-1.8l-3.8-1.2l-0.7-0.7l0.1-0.6l0.9-0.6
	l26.6-11.1l2.2-1.8l5.6-2.3l1.6-1l0.8-0.9l0.2-0.9l0.2-0.7l0.6-0.8l3.5-2.2l0.4-1.2l-0.1-1.6l-0.3-1.3l-0.6-1.2l-0.1-0.6l0.2-0.4
	l0.8-0.2l0.7-0.4l0.3-0.6l-0.1-0.6l-0.6-0.5L833,345l-1.5-0.3l-0.3-0.4l0.3-0.4l1.2-0.9l1.1-2l1.5-1.8l0.9-0.8l1.6-0.9l0.2-0.5
	l0.6-0.3l0.9,0.9l0.6,0.1l0.8-0.3l0.2-0.8l-0.2-0.8l0.1-0.9l0.2-0.3l0.4,0.1l0.2,0.4l0.4,1.2l0.4,0.2l0.7-0.3l0.2-0.9l-0.1-0.9
	l-1.1-1.9l0.2-1.2l0.5-0.4l1-0.2l0.2-0.3l-0.2-0.6l-0.6-0.8l-0.9-0.7l-0.6-0.9l-0.1-0.9l1-1l0.4-0.8l0.3-0.8l0.4-0.3v-1.7h2.7
	l0.8-0.6l0.5-2.9l0.4-1.1l-1.5-2.1l-0.4-0.7l1.3-0.3l1.9-0.1l1.6,0.2l0.8,0.5l0.2,0.4l0.7,0.4l0.9,0.2l0.7,0.1l1.8-2.7l0.6-0.7
	l0.9-0.5l1.3-0.2l0.5,0.3l0.6,0.7l0.7,1.4l0.5-0.6l0.7-1.3l1.1-0.2l4.6,0.2l1.7-0.3l1.1-0.4l1.1,0.1l1.4,1l1.1,1l0.7,0.4l0.4-0.7
	l0.3-3.5l0.4-0.7h0.9l1.2-1l0.3-2.6l-0.1-0.7l-0.5-0.5l0.2-0.7l0.6-0.4l1.3-0.1l1.1,0.1l1.5-0.1l1.5-0.2l2-0.9l1.3-0.4l1.1,0.3
	l0.7,0.7l0.5,0.7l0.6,0.3l0.6-0.3l1.1-0.4l1.4-0.2l2.6-0.9l1.4,0.1l1.1,0.8h0.5l0.1-1l0.5-0.8l0.9-0.2l0.9,0.5l0.5,0.8l0.5,0.6h0.8
	l0.7-0.1l0.5,0.1l0.8,0.9l1.2,0.5l0.4,0.3l0.1,0.5l-0.1,0.9l0.1,0.2l0.6-0.1l1.5-1.2l0.9-0.2l0.6,0.3l1.2,0.9h0.5l-0.2,1.9l0.3,0.3
	l0.4,0.6l0.5,0.4l1.1-0.4l0.5-0.5l0.9-1.6l0.8-0.6l0.9,0.3l4.4,0.6l0.8-0.5l-0.1-2.7l0.5-1l0.8-0.3l1,0.3l0.1,0.8l0.6,0.2h0.9
	l2.3-1.2l0.8-0.2l0.6,0.4l0.8,1l1.5-0.1l-0.1-1.1l-0.3-1.4l0.9-0.7l0.7,0.1l1.3,0.3h0.7l0.9-0.3l0.2-0.7v-0.9l0.1-0.8l1.9-0.4
	l1.5-1.3l0.8,0.2l1.2,0.5l1.1,0.4l2.1-0.2l0.8-0.5l0.7-0.7l0.6-0.4l0.9,0.1l0.7,0.5l0.7,0.2l0.4-0.3l0.5-1.1l0.8-1l1.1-0.9l2.1-0.4
	l0.3-0.8l0.7-0.5l0.8-0.2h0.5l-0.7-1l-0.1-0.8l0.4-0.9l1.4-0.2l2.9-0.1l0.6-0.4l0.2-1.1l0.5-1.1l0.7-0.8l-0.3-0.8l-0.9-1l-0.1-1.2
	l1-0.5l1.5,0.1l2.9,0.4l1.5,0.7l0.4,1.4l0.1,1.6l0.5,1l2.7-1.5l1.6-0.5l0.8,0.8l-0.2,0.7l-0.4,0.7l-0.2,0.6l0.4,0.6l0.9,0.2l0.9-0.6
	l1.5-1.7l0.6-0.8l0.7-1.7l0.6-0.8l0.9-0.2l0.6,0.6l1,1.7l1.3,1l0.9-0.4l1.5-2.5l0.3,1.1l0.2,2.3l0.4,0.8l0.8,0.1l0.9-0.4l1.6-1.1
	l2.5,1.4l2.5,1l2.5-0.2l2.8-1.9l3.3-4.6l0.9-0.7l1.2-0.5l0.5,0.2l0.5,1.6l0.3,4.2l0.3,1.5l2.7,4.6l0.6,1.7l0.4,3.3l0.4,1.6l1.2,1.4
	l1.3,0.7h1.3l1.2-0.2l1.4-0.1l2.5,1.2l1.9,2.5l4.6,11.8l0.9,1.4l1,0.6l2.5,1l2.2,2.4l-0.3,2.8l-1.7,2.8l-4.1,5.1l-0.8,0.6l-0.7,0.2
	l-1.5,0.3l-0.8,0.4l-4.1,3.9l-21.9,20.2l-1.1,1.9v4.6l1-0.8l0.5-0.9l0.7-0.8l1.3-0.4l1.5,0.1l0.7-0.1l1.3-0.6l0.6,0.2l0.7,0.8
	l2.8,1.4l1.7,0.3l1.3-0.5l1.3-0.3l1.2,1l1,1.5l0.4,1.2l0.4,3.1l0.4,1.4l0.8,0.7h3l1.3,0.4l1,0.9l0.3,0.6l0.4,1.2l0.3,0.5l0.6,0.5
	l1.4,0.7l0.5,1l1.1,1.3l0.3,0.3l0.8,0.2l0.5,0.6l0.3,0.8l0.5,0.7l0.6,0.4l1.5,0.9l0.6,0.5l0.3,0.7l0.3,0.9l0.4,0.8l0.6,0.4l0.8,0.2
	l0.7,0.5l1.3,1.3l0.6,0.4l2.4,0.7l2.2,1.4l0.6,0.5l0.2,0.7v1.3l0.4,0.6l0.4,1.3l-0.9,1.4l-1.3,1.2l-0.7,0.9v1.2l1.1,2.6l0.4,2.1
	l1.2,2.9l0.5,0.9l1,0.5l1.3,0.4l1,0.5l0.4,1.1l0.2,3.7l-0.2,1.1l-0.3,0.5l-1.1,1.4l0.2,0.9l0.5,0.7l0.5,0.5l0.5,0.9l1.2,0.9l0.3,0.5
	l0.2,0.7l1.2,2.3l5.8,15.3l0.2,1.5v3l0.2,1.3l0.7,1.5l1.4,2.3l0.7,1.5l0.2,1.5l-0.4,2.7l0.2,1l0.7,0.7l0.7,0.6l0.7,0.7l0.7,1.3
	l0.5,1.7l0.1,1.6l-1.2,2.5l0.3,1.6l1.4,2.9l-2.6,0.5l-10.2,2.8l-1.4-0.2l-0.5-1.7l-0.3-3.5l1.7-19.4l-0.7-4.2l-2.3-7.1l-2.6-5.3
	l-7.3-9.7l-1.6-2.9l-2.1-5.2l-1.4-2.5l-1.7-1.7l-1.1-0.5l-2.8-1l-1.1-0.1l-0.6,0.3l-1.1,1.2l-0.6,0.3l-2.4,0.3l-1.1,0.8l-1.9,1.5
	l-2.6,1.3l-5.1,5.4l-8.1,10.9l-2.1,1.9l-2.6,1.5l-2.2,0.8l-2.4,0.6h-2.4l-2.3-0.6l-2.2-1.9l-1.9-2.6l-1.3-2.9l-1.5-4.3l-0.7-1.3
	l-1-0.9l-1.5-0.6l-1.4-0.3l-0.5-0.2l-0.6-0.6l-0.1-0.5v-1.3l-0.3-0.4l-0.6,0.4l-4,10.1l-1.3,1.9l0.4,0.3l1.7,0.2l0.6,0.8l-0.1,1.5
	l0.1,1.2l2.5,0.1l0.6,0.4l0.2,0.5l-0.1,0.9l0.2,0.4l0.6,0.4l1.1,0.6l-56.2,0.1h-23.7l-2.8-0.4l-5.1-2.1l-4.8-1.1l-2.6,0.2l-4.6,2.1
	l-2.8,0.3l-1.4-0.3h-1.2l-1.2,0.3l-2.9,1.5l-1.2,0.3L862.6,436.9L862.6,436.9z"/>
<path id="COL1425" class="st0" d="M780.5,358.8l-1.3,0.3l-1.4-0.7l-0.6-0.2l-0.4,0.5l-0.7,0.4l-0.7-0.2l-0.7-0.6l-0.7-0.5l-0.6-0.1
	l-2.3,1.8l-0.8,0.2h-0.7l-0.8-0.5l-0.7-0.2H767l-0.6-0.4l-0.5-0.8l-0.3-1l-0.6-0.5h-0.6l-0.4,0.6l-0.4,1.8l-0.4,0.6l-0.6,0.2
	l-1.2-1.1l-0.6-0.1l-0.4,0.5l-0.5,1.4l-0.8,0.1l-1.3-0.6l-2.3-1.4H755l-0.9,1.3l-0.8,0.3l-1.5-0.5l-1.4-0.2l-1.7,0.2h-0.9l-0.8,0.2
	l-0.5,0.7l-0.7,0.7l-2.9,1.3l-1.4-0.2l-0.3-0.7l0.1-1.9l-0.2-0.4l-0.4,0.1l-1.1,1.1l-0.8,0.4l-0.9-0.3l-2.5-2.4l-0.6-0.1l-0.3,0.4
	v2.1l-0.2,1.2l-0.6,0.7l-0.7-0.4l-0.5-2l-0.4-0.5l-0.6-0.1l-0.9,0.5l-0.7,0.8l-1.4,0.7l-7.2,1.4l-0.2,0.2l-1.3,0.3l-0.9,0.3
	l-0.9-0.1l-0.5-0.8l-0.3,0.3l-0.8-0.7l-2.6-0.2l-1.5-0.4l-1-0.8l-0.9-1.6l-1-0.3l-1.4,0.4l-2.6,0.5l-0.8,0.4l-0.3,0.9l0.1,1.3
	l0.2,1.2l-0.1,1.6l-0.9-0.1l-0.9,0.2l-0.9,0.5l-0.9,0.6l-0.2,0.5l0.1,0.7l0.1,1.4l-0.3,1.3l-0.3-0.4l-0.8-2.3l-1-1l-0.8,0.1
	l-0.6,0.9l-0.4,1.4l-2.6-1.5l-1.2,0.1l-2.6,2.3l-1.1,0.6l-1.2,0.3l-2.4,0.1l-0.6,0.3l-1.5,1.3l-0.8-0.2l-1.4-0.2l-0.5-0.3h-0.5
	l-0.1,0.7l0.5,0.6l0.8,0.5v0.5h-1.7l-0.8,0.8l-0.2,1.4v1.9l-0.5-0.4l-1.1-1.9l-0.7-0.4l-0.9,0.9l-0.5,2.8l-0.7,0.2l-0.4-0.3
	l-0.2-0.5l-0.5-2.3l-0.8-0.4l-2.2,0.5l-0.8,0.7l-0.6,1.4l-0.9,1.1l-1.7-0.4l-0.6-1l-0.6-0.4l-0.7-1l-0.7-0.1l-1.3,0.4l-5.8,3.3
	l-0.5,0.9l-0.4,0.8l-1.2,0.6l-0.3,1.1l0.7,0.7l0.3,0.7l-0.2,0.6l-1.5,0.3l-0.6,0.5l-0.4,0.7l-1.2,0.6l-1.4,1.1l-0.9,0.6l-0.7-0.1
	l-0.4-0.4h-0.6l-1.1,0.3l-1.3,1.1l-1,0.9l-0.5,0.1l-0.9-0.6l-0.5-0.2l-0.4,0.3v1.1l-0.3,0.5l-0.7,0.3H640l-0.5-0.4l-0.4-1l-0.4-0.2
	l-1.7,0.3l-1.1-0.5l-2.2,1.1v0.4l0.4,0.5v0.6l-0.6,0.4l-1.7,0.1l-1.1,0.3l-1.7-0.6l-0.6,0.2l-0.7,0.9l-0.5,0.1l-0.2-0.4l0.1-0.9
	l-0.4-0.4h-0.8l-0.3,0.5l-0.6,1.2l-0.4-0.1l-0.3-0.6l-0.5-0.3h-1.2l-1,0.9l-0.3-0.1l-0.2-0.5v-0.8l0.1-0.8l-0.8-1.5l-0.4,2.1
	l-0.3,0.5l-0.4-0.1l-0.5-0.4l-0.6-0.2l-2.2,0.3l-0.3-0.4l-0.7-1.3l-0.3-0.3h-0.4l-2,1.2l-0.8,0.2H611l-0.4-0.5l-0.1-1.1l-0.4-0.1
	l-0.5,0.3l-0.8,0.5l-0.6,0.6v0.7l0.2,0.5l-0.1,0.6l-0.9,1.3l-0.6,1.2l-0.5,0.6l-0.3,2.7l0.1,8.6l-0.2,32.5l-0.9,1.2l-5.6-0.9
	l-6.4,0.5h-2.5l-1.9-0.3l-39.8-14l-2.7-1.9l-2.3-2.9l-1.5-3.2l-0.6-3.1v-2.3l0.7-2.1l1.3-1.7l1.5-1.6l1-1.4l0.4-1.2V405l-0.7-1.4
	l-1-1.5l-4.1-4.6l-1.1-1.7l-0.6-1.9l-0.3-2.4l0.1-2.1l0.4-3.4l3.8-14.9l-0.1-2.4l-0.8-1.3l-1.3-1l-1.3-1.2l-1-1.5l-1.9-5l-0.6-1
	l-0.9-0.8l-1.2-0.7l-1.3-0.4l-3.2-0.4l-6.7-2.2l0.1-0.4l1.8-5.2l2.3-4l0.7-0.9l1.5-1.1l2-0.9l1.7-1.8l3.2-2.1l1.2-1l2-3.4l0.7-2.2
	l0.3-2.2l0.3-5.6l0.3-2.8l0.8-2.3l5-6.7l1.4-2.5l1.5-3.7l0.3-1.9l2,1.8l1.9,0.1l0.6-0.3l0.4-0.9l0.4-0.5l0.9-2l4.4-5.4l1.3-2.2
	l0.6-1.5l-0.1-1.4l0.6-0.8l1.3-1.3l1.7-2l0.9-1.5l1.3-2.7l1-0.7l3.6,0.9l2.1,0.1l3.3-3.2l2.4-1.6l1.1-1.2l1.1-0.6l1-0.2l1-0.1
	l1.1-0.3l0.6-0.8l0.7-1.3l1.5-0.8l1.2-0.2l4.5-2l0.6-0.6l0.7-0.5h1.5l0.8,0.2l1.9-0.1l-0.7-2.2l-0.1-0.8v-1l-0.5-1.1l-1.1-1
	l-0.2-1.4l0.2-1.3l-0.8-3.6l-0.9-0.9l0.1-1.4l0.5-0.7l0.7-0.9l0.5-0.4l1.6-0.7l1.5-0.9l0.4-0.8l1-1.6l0.6-0.6l0.9-0.2l0.7,0.2
	l0.7,0.4l0.7,0.9l0.7,0.6h1l0.6,0.1l0.6,0.3l0.8,1.4l0.8,0.9l0.9,1.3l0.3,0.6v0.9l0.4,1.9l1.4,3.2l0.1,0.8l0.3,0.5l0.6,0.5l0.8,0.4
	l1,0.4l0.8,0.4l0.9,0.2l1.1-0.2l1.1-0.5l1.7-1.3l4.3-0.5l8.2,2.1l1.5,0.6l0.8,0.6l0.4,0.8l0.3,0.3l0.8,0.4l1.8,1.2l1,0.5l0.5-0.3
	l0.3-0.6l0.2-1.6l2.2-14.6l2.3-16l0.7-1.2l0.4,2l0.4,0.7l3.1,3l4.6,8.4l6,6.4h1l0.6,0.3l0.3,0.8l1.1,1.3l0.2,0.6l0.1,0.4l0.4,0.6
	l-0.2,1.4l0.5,0.1l1.1-0.2l0.5,0.2l0.4,2.4l1.5,0.9l0.5,0.1l0.7-0.1l0.4-0.3l0.9-0.8l0.6-0.3l0.6,0.1l2.6,0.4h0.5l0.6-0.5l0.5,0.3
	l0.8,0.7l0.6-0.2l1.4-2.7l0.4-0.4l0.8,0.1l1,0.3l0.8,0.4l0.4,0.4l0.7,1.1l1.6-0.5l3.2-1.8l1.3,0.9l1.7,0.3l1.5-0.4l2.9-4.5l0.9-0.4
	l10.8-2.4h0.7l0.8,0.3l2.5,1.6l0.6,1l0.7,1l1.4,0.4l2.5-0.7l2.6-1.6l5.1-4.3l5.3-5.7l0.7-0.5l0.7-0.1h0.7l0.8-0.1l6.1-1.8l2.8-1.4
	l5.3-3.7l19.5-8.4l4-0.6l0.6-0.5l3.2-2.6l1.9-1.1l1.1-0.5l0.9-0.2l0.9-0.4l1.8-1.7l-0.2,105.1L780.5,358.8L780.5,358.8z"/>
<path id="COL1426" class="st0" d="M862.6,436.9h-1l0.5,2.6v4.7l-0.2,36.3l1.5,0.2l2.8-1.8l1.7-0.5h0.9l0.9,0.2l0.5,0.4l0.1,1.4
	l0.8,0.2l6.4-1l1.6,0.1l2.9,1l0.7,0.1h2.2l2.1-0.3h0.7l0.6,0.3l0.8,0.9l1.3,0.8l0.7,0.1l3.2-2.3l1-0.3l1.1,0.2l3.4,1.8l0.9,0.6
	l1.2,1.5l1.1,0.7l0.5,0.5l0.2,0.6l0.1,0.8l0.2,0.7l1.4,0.9l-0.3,2.5l1,1l1.6,0.6l0.8,0.5l0.4,0.5v0.9l-0.5,0.4l-0.6,0.1l-0.4,0.2
	l-0.2,1.4l0.7,3v1.5l-0.5,0.8l-0.7,0.5l-0.4,0.6l0.2,0.9l0.5,0.5l1.5,0.7l0.5,0.5l0.7,1.5l0.2,1.2l-0.4,0.8l-1.2,0.4l-0.6-0.1
	l-1.3-0.4h-0.7l-0.5,0.3l-0.7,1l-0.5,0.3l-1.1,0.1l-2.5-0.4l-1.2,0.1l0.3-1.8l-0.6-0.8l-1.2,0.1l-1.5,0.4l-1.4,0.6l-0.4-0.2
	l-4.8-4.8l-1.2-0.9l-1.4-0.3l-1.7,0.2l-1.3,0.6l-2.2,1.4l-1.2,0.2l-1.4,0.5l-0.7,1.5l-0.9,1.1l-2.2-0.4l-1.9-0.9l-1,0.1l-2.6,2
	l-2.3,1.3l-2.5,0.9l-2.8,0.5l-4.6,0.3l-1.3,0.4l-1.3,0.2l-1.6-0.3H852l-1.4,0.7l-1.3,0.4l-1-1l-0.5,17.3l-0.2,7.4l-0.5,18.2
	l-0.1,5.1l0.4,2.4l0.8,1.4l2.6,3l3.4,3.1l1.5,2.2l0.7,0.6l1.3,0.5l2.7,0.6l1.1,0.8l0.4,0.6l0.7,1.5l0.5,0.7l0.6,0.4l1.6,0.8l0.7,0.5
	l2,2.1l1,0.9l5.4,2l1.1,0.6l1.2,1l0.8,1.2l0.6,1.3l0.3,1.5v2l0.1,0.7l0.4,0.7l0.8,1l0.2,0.9l-0.4,1.5l-2.1,3.2l-0.5,1.2l0.7,1.6
	l2.6,2.9l0.5,0.9l-0.2,1.7l0.2,0.7l0.6,1l0.4,0.4l1,0.6l0.4,0.7v0.8L883,613l-0.1,0.7l0.5,0.9l0.5,0.5l1.5,0.6l0.6,0.4l1.5,2.2
	l0.4,0.3l1,0.2l0.5,0.8l-0.1,0.2l0.3,2.5l-0.1,0.8l-0.5,1.4l0.1,0.8l2.5,4l0.7,2.1l-1.4,3.8l-2.3-2.7l-0.3-0.9l-0.4-0.4l-1-0.4
	l-0.9-0.1l-4.8-2.4l-1-0.1l-3.4,2l-0.8,0.1l-0.5-0.4l-0.5-1.3l-0.2-1.3l0.3-1.1l0.5-1.1l0.3-1.2l-0.3-1.1l-0.9-1.1l-2.7-2.4l-1-0.6
	l-1-0.2l-1,0.4l-0.6,0.7l-0.5,1.8l-0.8,0.6h-1.4l-3-1.2h-1.6l-1.1,0.6l-1,0.9l-1.1,0.6l-1.3-0.1l-1.1-0.9V621l0.9-2.1v-1.4l0.1-0.3
	l0.4-0.5l1.2-1l0.5-0.9l0.3-0.8l-0.4-0.6l-1.5,0.1l-1.1,0.4l-1,0.6l-1,0.2l-2-1l-0.7,0.5l-0.6,0.8l-0.9,0.5h-0.6l-0.6-0.2l-1.3-0.7
	h-0.8l-1.1,0.6l-1.7,2.1l1,1.6l1.7,1.3l0.8,1.8l-0.6,1.3l-1.2,0.7l-1.3,0.2l-1.3-0.3l-3.3-2.6l-0.6-0.7l0.1-0.9l0.8-1.8l0.2-0.9
	l-0.4-0.9l-0.9,0.4l-1.7,1.5l-1.2,0.3l-1.2-1l-0.9-1.4l-0.4-1.3l0.2-1.1l0.8-0.8l2-1.3l1.5-2.3l-1.4-2.1l-2.1-2.2l-0.6-2.4l0.7-0.9
	l1-0.6l0.9-0.7l0.1-1l-0.7-2.1l-0.2-1.1v-1.2l0.4-2.6v-1.3l-0.3-1.2l-1-0.9l-1.2,0.1l-1,0.4l-0.7-0.1l-0.1-1.5l1.4-1.9l4.2-3.9
	l0.6-0.8l-0.3-0.8l-1.5-0.9l-1.5-0.4h-1.3l-1.2,0.4l-1.4,0.7l-0.7,0.9l0.2,1.8l-0.5,0.7l-1.3,0.2l-3.5-0.7l-2.9,0.1l-0.3-0.6l0.2-1
	v-1.1l-0.5-1.2l-0.8-1.3l-1-1.2l-1.1-0.7l-1.1-0.3l-3.4,0.3l-0.9-0.4l-1.4-1.7l-0.9-0.5h-0.8l-1.5,0.3l-0.8-0.1l-0.7-0.3l-1.9-1.6
	l-1.2-0.6l-1.5-0.5l-1.3,0.1l-0.7,1.1l-0.3,1.1l-0.8,0.6l-1.1,0.2l-2.4-0.1l-0.6-0.2l-0.4-0.6l-1.6-3.5l-1.6-4.5l-2.5-3.2l-0.1-0.8
	l0.4-0.8l0.3-1.2v-1.2l-0.3-1l-0.5-1l-2-2.9l-0.9-1l-0.8-0.5h-0.9l-1.4,0.7l-0.8,0.1l-1.2-0.4l-2.6-1.3l-1.3-0.4l-1.5-0.6l-0.6-1.1
	l-0.6-2.8l-1-1.4h-1.4l-2.8,1.3h-1.1l-1.1-0.1l-1.1-0.4l-1-0.5l-1.5-1.5l-2.1-1.9l-2.3-0.8l-1.5-1l-0.8-0.2l-2.1,0.6l-0.7,0.1
	l-0.6-0.1l-1.2-0.4l-0.6-0.1l-1.1,0.4l-0.7,0.4h-0.8l-3.4-2.2l-6.8-3.2l-0.8-0.9l-1.4-2.4l-0.8-0.6l-1.5-0.5l-0.8-0.9l-0.5-1.2
	l-0.7-1.2l-1-0.2l-2.1,1.4h-1l-0.3-0.9l0.2-1.1l0.3-1.2l0.1-1l-1.5-1.3l-2.6-1.6l-2.2-1.7v-1.6l0.6-0.9l0.1-1.1l-0.4-1l-0.8-1
	l-1.1-0.7l-0.5,0.2l-0.3,0.6l-0.5,0.2l-1-0.8l-0.5-1.1l-0.4-2.7l-0.8-1.5l-1.1-0.6l12.7-13.2l2-1.6l2.1-2.2l0.5-0.9l0.5-1.2l1-1.5
	l0.9-0.8l1.3-0.3l1,0.2l0.9,0.3l0.7,0.1l0.8-0.2l3-3.2l1.3-0.9l0.7-1l0.8-1.7l0.1-0.6v-1.5l0.2-0.6l0.5-0.3l1,0.2l0.1-0.5l-0.1-0.7
	l0.1-0.9l0.4-0.4l0.4-0.1l0.3,0.3l0.3,1.4l0.2,0.8l0.5,0.6l0.8,0.3l0.7-0.2l0.2-0.6l-0.3-0.9l-0.6-0.7l-0.5-1l-0.8-1.3l-0.2-0.6
	l-1-1.7v-0.9v-1.5l0.2-1.3l0.5-0.6l3.1-7.3l0.5-1.9l0.4-1.7l0.8-1.5l1.4-3.3l0.6-2.3l0.6-1.1l1.8-2.3l0.4-1.5l0.3-1.9l0.3-5.6
	l1.1-0.3l1.9,1.5l2.3,0.9l1.3,1.4l0.7,0.2l1.2,0.2l1.2-0.7l1.4-1.2l1.2-1.3l3.2-2.3l5.5-3l3.5-1.2l2.2-1.2l1.7-1.2l2.8-2.7l1-1.4
	l0.5-0.3l1.1,0.2l6.2-0.2l2.5,0.3l0.9-0.2l1.5,0.4l0.6,0.4l0.8,0.3l0.9,0.1l1-0.1l1.2-0.2l2.1-1.1l4.5-1l1.4-0.6l2.5-0.5l0.9-0.4
	l0.6-0.5l1-1l1.2-0.6l2.7-0.4h1.1l0.7-0.3h1.2l1.4-0.1l2.3-0.8l3-0.8l3.9-0.4l1.2-0.6l0.8-0.6l1.6-1.5l2.9-2.1l-0.2,2.9l-0.7,3.5
	l-2.9,7L841,425l0.4,1l7.2,6l3.4,1.7l2,0.8l3.2,0.2l3,0.9L862.6,436.9L862.6,436.9z"/>
<path id="COL1427" class="st0" d="M1005.4,279.9l-1.2,0.5l-0.9,0.7l-3.3,4.6l-2.8,1.9l-2.5,0.2l-2.5-1l-2.5-1.4l-1.6,1.1l-0.9,0.4
	l-0.8-0.1L986,286l-0.2-2.3l-0.3-1.1l-1.5,2.5l-0.9,0.4l-1.3-1l-1-1.7l-0.6-0.6l-0.9,0.2l-0.6,0.8l-0.7,1.7l-0.6,0.8l-1.5,1.7
	L975,288l-0.9-0.2l-0.4-0.6l0.2-0.6l0.4-0.7l0.2-0.7l-0.8-0.8l-1.6,0.5l-2.7,1.5l-0.5-1l-0.1-1.6l-0.4-1.4l-1.5-0.7l-2.9-0.4
	l-1.5-0.1l-1,0.5l0.1,1.2l0.9,1l0.3,0.8l-0.7,0.8l-0.5,1.1l-0.2,1.1l-0.6,0.4l-2.9,0.1l-1.4,0.2l-0.4,0.9l0.1,0.8l0.7,1h-0.5
	l-0.8,0.2l-0.7,0.5l-0.3,0.8l-2.1,0.4l-1.1,0.9l-0.8,1l-0.5,1.1l-0.4,0.3l-0.7-0.2l-0.7-0.5l-0.9-0.1l-0.6,0.4l-0.7,0.7l-0.8,0.5
	l-2.1,0.2l-1.1-0.4l-1.2-0.5l-0.8-0.2l-1.5,1.3l-1.9,0.4l-0.1,0.8v0.9l-0.2,0.7l-0.9,0.3h-0.7l-1.3-0.3l-0.7-0.1l-0.9,0.7l0.3,1.4
	l0.1,1.1l-1.5,0.1l-0.8-1l-0.6-0.4l-0.8,0.2l-2.3,1.2h-0.9l-0.6-0.2l-0.1-0.8l-1-0.3l-0.8,0.3l-0.5,1l0.1,2.7l-0.8,0.5l-4.4-0.6
	l-0.9-0.3l-0.8,0.6l-0.9,1.6l-0.5,0.5l-1.1,0.4l-0.5-0.4l-0.4-0.6l-0.3-0.3l0.2-1.9h-0.5l-1.2-0.9l-0.6-0.3l-0.9,0.2l-1.5,1.2
	l-0.6,0.1l-0.1-0.2l0.1-0.9l-0.1-0.5l-0.4-0.3l-1.2-0.5l-0.8-0.9l-0.5-0.1l-0.7,0.1h-0.8l-0.5-0.6l-0.5-0.8l-0.9-0.5l-0.9,0.2
	l-0.5,0.8l-0.1,1h-0.5l-1.1-0.8l-1.4-0.1l-2.6,0.9l-1.4,0.2l-1.1,0.4l-0.6,0.3l-0.6-0.3l-0.5-0.7l-0.7-0.7l-1.1-0.3l-1.3,0.4l-2,0.9
	l-1.5,0.2l-1.5,0.1l-1.1-0.1l-1.3,0.1l-0.6,0.4l-0.2,0.7l0.5,0.5l0.1,0.7l-0.3,2.6l-1.2,1H876l-0.4,0.7l-0.3,3.5l-0.4,0.7l-0.7-0.4
	l-1.1-1l-1.4-1l-1.1-0.1l-1.1,0.4l-1.7,0.3l-4.6-0.2l-1.1,0.2l-0.7,1.3l-0.5,0.6l-0.7-1.4l-0.6-0.7l-0.5-0.3l-1.3,0.2l-0.9,0.5
	l-0.6,0.7l-1.8,2.7l-0.7-0.1l-0.9-0.2l-0.7-0.4l-0.2-0.4l-0.8-0.5l-1.6-0.2l-1.9,0.1l-1.3,0.3l0.4,0.7l1.5,2.1l-0.4,1.1l-0.5,2.9
	l-0.8,0.6h-2.7v1.7l-0.4,0.3l-0.3,0.8l-0.4,0.8l-1,1l0.1,0.9l0.6,0.9l0.9,0.7l0.6,0.8l0.2,0.6l-0.2,0.3l-1,0.2l-0.5,0.4l-0.2,1.2
	l1.1,1.9l0.1,0.9l-0.2,0.9l-0.7,0.3l-0.4-0.2l-0.4-1.2l-0.2-0.4l-0.4-0.1l-0.2,0.3l-0.1,0.9l0.2,0.8l-0.2,0.8l-0.8,0.3l-0.6-0.1
	l-0.9-0.9L838,337l-0.2,0.5l-1.6,0.9l-0.9,0.8l-1.5,1.8l-1.1,2l-1.2,0.9l-0.3,0.4l0.3,0.4l1.5,0.3l0.7,0.2l0.6,0.5l0.1,0.6l-0.3,0.6
	l-0.7,0.4l-0.8,0.2l-0.2,0.4l0.1,0.6l0.6,1.2l0.3,1.3l0.1,1.6l-0.4,1.2l-3.5,2.2l-0.6,0.8l-0.2,0.7l-0.2,0.9l-0.8,0.9l-1.6,1
	l-5.6,2.3l-2.2,1.8l-6.3-3.8l-1.1-0.2l-1.4-0.1l-0.8,0.9h-0.5l-1.7-2l-0.6-0.5h-0.7l-0.2,0.4l0.1,0.6l0.4,0.7l0.2,0.8v0.6l-0.4,0.6
	l-2.8,2.2l-0.4-0.1l-0.2-0.7V363l-0.3-0.5l-0.5-0.1l-0.8,0.2l-0.9,0.6l-1,0.5l-1.1,0.2l-0.6-0.3l-0.8-1.4l-1.1-0.7h-1l-1.7,0.8
	l-0.1-0.4l0.1-0.7l-0.1-0.9l-0.9-0.8l-0.6,0.1l-0.4,0.6l0.1,0.9l-0.4,0.4l-0.6-0.4l-0.8-1.3l-1.2-0.8h-0.5l-0.2,0.8l0.2,1v0.9
	l-0.3,0.6l-0.4,0.2l-0.4-0.3v-0.6l0.2-1.4l-0.2-0.5l-1.3-0.3l-1.2-0.2l-1.2-0.7l-1.5,0.3v-33.2l0.2-105.1l0.8-0.7l1.4-2l4.5-10.7
	l1.1-1.2l2.6-0.7l1.2-0.6l11.8-10.3l1.1-0.4l0.6-0.7l0.2-3.2l0.4-1.2l1.1-1l2.9-1.2l1.2-0.8l1.4-1.1l4.5-2.4l4.3-3.2l1.4-0.5
	l1.5-0.2l4.2-1.7l2.5-0.5l5.3-0.2l2.8-0.6l2-0.9l2.2-1.4l2.1-1.6l1.6-1.6l2.3-3.6l0.3-0.9l2.9-3l1.1-1.9l4.8-11l1.5-2.3l1.4-1.5
	l0.6-0.7l2-1.2l2.1-0.5l14.3,0.5l2.7-0.5l6.7-4.1l1.8-0.4l3.2-1.5l1.8-0.4l1.4,0.7l2.8,3.3l1.5,1.2l3.9-2.2l3.9-3.9l1.5-0.8l1.9-1.9
	l1.3-0.5l1.6-0.1l1.4,0.3l2.5,1.2l1.2-0.4l1.5,0.4l1.6,0.5l1.5,0.3l4.3-0.2l1.4,0.2l4.3,1.4l1.5,0.1l1.4,0.3l2.8,1.3l1.6,0.2
	l0.9-0.4l1.8-1.5l0.7-0.4l4.2-0.2l4.9-1.5l1.5-0.1l1.4,0.1l4.4,1.2h2.4l7.7-2.7l2.9-0.4l8.6,0.8l2.8-0.4l2.3-0.8l1.3-0.4l0.5-0.5
	l0.4-0.7l0.1-0.7l0.3-0.8l0.8-0.2h0.9l0.8-0.1l0.7-0.6l1.2-1.3l0.8-0.4h0.6l1.2,0.3l4.7,0.4l10.5,2.5l2,1.2l1.8,1.8l1.8,1.4l2.8,0.2
	l-1.8,1.3l-0.7,0.8l-0.3,1v2.6l2.5,3.9l1.7,1.2l0.5,1.4l0.2,1.5l-0.3,1.2l-0.8,0.7l-2.4,1l-1,0.6l-3.2,3.5l-0.6,1l-4,3.8l-1.6,2.5
	l-1.1,2.7l-0.5,2.9v3.1l0.7,3.9l0.2,1.4l1.2,1.3l0.2,0.3l-0.2,0.8l-0.4,0.5l-0.8,1l-0.8,2.4l-0.4,0.4l-0.8,0.2l-0.7,0.5l-1.2,1.4
	l-0.6,0.4l-2,0.7l-0.3,0.3l-0.7,0.8l-0.7,0.4l-1-0.1l-2.5,2.1l-1.7,2.7l-0.6,2.8l0.6,2.6l0.7,1.1l0.4,1l0.2,1.2l0.1,1.6l-0.1,0.6
	l-0.6,1.6l-0.2,0.8v0.8l0.2,1.3l0.2,0.7l0.4,0.6l1.3,1.4l0.2,0.5l-0.1,0.7l-0.7,0.8l-0.1,0.4l0.1,3l-0.1,1.3l-0.9,2.6l-0.4,2.6
	l-0.1,1.5l0.1,0.5l0.8,1.6v0.9l-0.3,0.8l0.3,0.6l-0.4,1.3l-0.2,3l-0.5,1.1l-0.7,1.1l-0.3,1.4l-0.2,3.8l-0.5,1.8l0.1,2.1l-0.1,0.7
	l-0.3,0.5l-0.5,0.3l-0.4,0.5l-0.1,0.9l0.2,0.8l0.5,0.6l1.1,1v-0.5l1.3,0.9l0.5,0.9l0.5,2.3l0.3,0.3l0.8,0.3l0.3,0.4v0.6l-0.4,0.9
	l-0.1,0.5l0.3,0.9l0.9,1.5l0.2,0.9l-0.2,0.8l-1.2,2.2l-0.3,2.5l0.4,2.3l0.6,2.1l0.3,2.1l0.5,1.3l1.3,1l1.3,1.3l0.5,2.2l0.8,0.8
	l0.4,1.2L1005.4,279.9L1005.4,279.9z"/>
<circle id="_x30_" class="st0" cx="588.4" cy="306.3" r="0"/>
<circle id="_x31_" class="st0" cx="587.8" cy="306.2" r="0"/>
<circle id="_x32_" class="st0" cx="500.3" cy="513.9" r="0"/>
<rect x="274.5" y="-238.5" class="st1" width="140.2" height="96"/>
</svg>
